<svg xmlns="http://www.w3.org/2000/svg" viewBox="0 0 196.53 41.43"><title>DTA inline white</title><path d="M66.88,48v-.19h.23a.83.83,0,0,0,.46-.1.55.55,0,0,0,.24-.26,2.34,2.34,0,0,0,0-.64V42.18a2.13,2.13,0,0,0-.06-.66.48.48,0,0,0-.23-.24,1,1,0,0,0-.46-.1h-.23V41H70a5.12,5.12,0,0,1,2,.34,3,3,0,0,1,1.41,1.26,3.79,3.79,0,0,1,.48,1.91,3.68,3.68,0,0,1-.24,1.35,3.18,3.18,0,0,1-.61,1,2.92,2.92,0,0,1-.87.65,4.58,4.58,0,0,1-1.2.38A5.7,5.7,0,0,1,70,48Zm2.65-6.57v5.43a1.66,1.66,0,0,0,0,.53.24.24,0,0,0,.13.15.9.9,0,0,0,.41.08A1.57,1.57,0,0,0,71.43,47,4,4,0,0,0,72,44.54a4.6,4.6,0,0,0-.42-2.14,1.79,1.79,0,0,0-.86-.86A3.53,3.53,0,0,0,69.53,41.39Z" transform="translate(-5.01 -9.71)" style="fill:#fff"/><path d="M76.41,43.16V47a1.12,1.12,0,0,0,.12.65.6.6,0,0,0,.46.16V48H74.4v-.19a.58.58,0,0,0,.47-.18A1.16,1.16,0,0,0,75,47v-2.8a1.12,1.12,0,0,0-.12-.65.59.59,0,0,0-.45-.16v-.19Zm-.72-2.33a.79.79,0,0,1,.8.79.82.82,0,0,1-.8.8.76.76,0,0,1-.56-.24.77.77,0,0,1-.23-.56.8.8,0,0,1,.23-.56A.79.79,0,0,1,75.69,40.83Z" transform="translate(-5.01 -9.71)" style="fill:#fff"/><path d="M80.38,43.21H82v.57h-.92a1.72,1.72,0,0,1,.35.45,1.48,1.48,0,0,1,.12.59,1.43,1.43,0,0,1-.28.89,1.88,1.88,0,0,1-.78.59,2.2,2.2,0,0,1-.87.21l-.61,0a.53.53,0,0,0-.39.15.46.46,0,0,0-.16.36.39.39,0,0,0,.14.3.72.72,0,0,0,.46.12H80a3.21,3.21,0,0,1,1.49.24,1.09,1.09,0,0,1,.58,1,1.28,1.28,0,0,1-.27.79,1.54,1.54,0,0,1-.7.53,4.27,4.27,0,0,1-1.53.25,4.79,4.79,0,0,1-1.18-.13,1.73,1.73,0,0,1-.77-.34.68.68,0,0,1-.23-.47.61.61,0,0,1,.18-.43,1.44,1.44,0,0,1,.66-.31,1,1,0,0,1-.67-.92,1.08,1.08,0,0,1,.27-.69,2.23,2.23,0,0,1,.87-.58,2.19,2.19,0,0,1-1-.66,1.51,1.51,0,0,1-.31-1,1.57,1.57,0,0,1,.58-1.22A2.09,2.09,0,0,1,79.4,43,2.77,2.77,0,0,1,80.38,43.21Zm-1.19,5.46a1.69,1.69,0,0,0-.69.09.47.47,0,0,0-.3.43.6.6,0,0,0,.31.47,2.13,2.13,0,0,0,1.14.22,2.82,2.82,0,0,0,1.12-.19.6.6,0,0,0,.41-.54.3.3,0,0,0-.08-.21.65.65,0,0,0-.42-.21A10.23,10.23,0,0,0,79.19,48.67Zm.3-5.34a.61.61,0,0,0-.5.3,2.49,2.49,0,0,0-.2,1.25,1.89,1.89,0,0,0,.2,1,.56.56,0,0,0,.48.28.6.6,0,0,0,.51-.28,2,2,0,0,0,.21-1.1A2.4,2.4,0,0,0,80,43.58.53.53,0,0,0,79.49,43.33Z" transform="translate(-5.01 -9.71)" style="fill:#fff"/><path d="M84.28,43.16V47a1.12,1.12,0,0,0,.12.65.6.6,0,0,0,.46.16V48h-2.6v-.19a.6.6,0,0,0,.48-.18,1.16,1.16,0,0,0,.1-.63v-2.8a1.12,1.12,0,0,0-.12-.65.6.6,0,0,0-.46-.16v-.19Zm-.72-2.33a.8.8,0,0,1,.8.79.79.79,0,0,1-1.36.56.77.77,0,0,1-.23-.56.8.8,0,0,1,.23-.56A.77.77,0,0,1,83.56,40.83Z" transform="translate(-5.01 -9.71)" style="fill:#fff"/><path d="M87.07,41.4v1.76h1.15v.5H87.07v3a2.61,2.61,0,0,0,0,.54.38.38,0,0,0,.14.19.29.29,0,0,0,.18.08q.33,0,.63-.51l.16.11a1.41,1.41,0,0,1-1.36,1,1.19,1.19,0,0,1-.77-.26,1.13,1.13,0,0,1-.4-.57,4.36,4.36,0,0,1,0-.94v-2.6H85v-.18a6.1,6.1,0,0,0,1.9-2.08Z" transform="translate(-5.01 -9.71)" style="fill:#fff"/><path d="M91.17,47.25a2.56,2.56,0,0,1-1.58.78.91.91,0,0,1-.68-.27.9.9,0,0,1-.28-.68,1.31,1.31,0,0,1,.48-1,9,9,0,0,1,2.06-1.17v-.48a2.38,2.38,0,0,0-.06-.69.58.58,0,0,0-.23-.24.67.67,0,0,0-.37-.11,1,1,0,0,0-.55.15.26.26,0,0,0-.13.22A.45.45,0,0,0,90,44a.67.67,0,0,1,.2.43.56.56,0,0,1-.19.43.67.67,0,0,1-.49.18.78.78,0,0,1-.54-.2.58.58,0,0,1-.22-.46,1.08,1.08,0,0,1,.29-.7,1.84,1.84,0,0,1,.82-.52A3.32,3.32,0,0,1,90.93,43,1.8,1.8,0,0,1,92,43.3a1.41,1.41,0,0,1,.52.63,4.06,4.06,0,0,1,.07,1v1.87a1.58,1.58,0,0,0,0,.41.23.23,0,0,0,.07.13.19.19,0,0,0,.12,0c.09,0,.18-.06.27-.19l.16.12a1.67,1.67,0,0,1-.54.55,1.1,1.1,0,0,1-.62.18,1,1,0,0,1-.64-.2A.81.81,0,0,1,91.17,47.25Zm0-.37V45.27a2.87,2.87,0,0,0-.93.78,1,1,0,0,0-.2.56.58.58,0,0,0,.17.41.45.45,0,0,0,.36.14A1,1,0,0,0,91.17,46.88Z" transform="translate(-5.01 -9.71)" style="fill:#fff"/><path d="M95.5,41v6a1.12,1.12,0,0,0,.12.65.6.6,0,0,0,.46.16V48h-2.6v-.19a.6.6,0,0,0,.48-.18,1.16,1.16,0,0,0,.1-.63V42a1.14,1.14,0,0,0-.12-.65.69.69,0,0,0-.46-.16V41Z" transform="translate(-5.01 -9.71)" style="fill:#fff"/><path d="M105,41v1.89h-.19a3.06,3.06,0,0,0-.36-.94,1.37,1.37,0,0,0-.55-.45,1.58,1.58,0,0,0-.68-.1h-.52v5.38a2.21,2.21,0,0,0,.06.67.56.56,0,0,0,.23.23.89.89,0,0,0,.47.1h.23V48H100v-.19h.23a1,1,0,0,0,.49-.11.48.48,0,0,0,.21-.25,1.93,1.93,0,0,0,.06-.64V41.39h-.51a1.46,1.46,0,0,0-1,.3,2,2,0,0,0-.56,1.19h-.2V41Z" transform="translate(-5.01 -9.71)" style="fill:#fff"/><path d="M106.74,43.16v1.09a3.45,3.45,0,0,1,.84-1,1.2,1.2,0,0,1,.69-.25.62.62,0,0,1,.46.18.7.7,0,0,1,.17.5.72.72,0,0,1-.17.53.5.5,0,0,1-.4.19.67.67,0,0,1-.47-.17l-.24-.2a.21.21,0,0,0-.12,0,.41.41,0,0,0-.28.12,1,1,0,0,0-.32.5,3.42,3.42,0,0,0-.16,1.09v1.4a1.23,1.23,0,0,0,0,.37.39.39,0,0,0,.18.2.94.94,0,0,0,.41.08V48h-2.59v-.19a.53.53,0,0,0,.42-.17,1.63,1.63,0,0,0,.11-.77V44.17a1.85,1.85,0,0,0,0-.52.38.38,0,0,0-.15-.21.66.66,0,0,0-.34-.09v-.19Z" transform="translate(-5.01 -9.71)" style="fill:#fff"/><path d="M111.91,47.25a2.53,2.53,0,0,1-1.58.78.92.92,0,0,1-1-1,1.3,1.3,0,0,1,.47-1,9,9,0,0,1,2.06-1.17v-.48a2.38,2.38,0,0,0-.06-.69.55.55,0,0,0-.22-.24.7.7,0,0,0-.37-.11.92.92,0,0,0-.55.15.28.28,0,0,0-.14.22.42.42,0,0,0,.15.26.66.66,0,0,1,.19.43.56.56,0,0,1-.19.43.66.66,0,0,1-.49.18.8.8,0,0,1-.54-.2.61.61,0,0,1-.22-.46,1,1,0,0,1,.3-.7,1.75,1.75,0,0,1,.81-.52,3.37,3.37,0,0,1,1.09-.18,1.8,1.8,0,0,1,1.08.29,1.41,1.41,0,0,1,.52.63,4.06,4.06,0,0,1,.07,1v1.87a1.58,1.58,0,0,0,0,.41.23.23,0,0,0,.07.13.19.19,0,0,0,.12,0c.09,0,.18-.06.27-.19l.16.12a1.75,1.75,0,0,1-.53.55,1.13,1.13,0,0,1-.63.18,1,1,0,0,1-.64-.2A.84.84,0,0,1,111.91,47.25Zm0-.37V45.27a3,3,0,0,0-.93.78,1,1,0,0,0-.2.56A.58.58,0,0,0,111,47a.45.45,0,0,0,.36.14A1,1,0,0,0,111.91,46.88Z" transform="translate(-5.01 -9.71)" style="fill:#fff"/><path d="M116.32,43.16v.62a3.2,3.2,0,0,1,.71-.59,1.55,1.55,0,0,1,.73-.18,1.2,1.2,0,0,1,.78.26,1.28,1.28,0,0,1,.41.65A5.27,5.27,0,0,1,119,45v1.87a1.38,1.38,0,0,0,.1.69.59.59,0,0,0,.42.17V48h-2.43v-.19a.49.49,0,0,0,.39-.22,1.6,1.6,0,0,0,.08-.64V44.77a3.68,3.68,0,0,0,0-.74.6.6,0,0,0-.16-.24.38.38,0,0,0-.25-.08c-.29,0-.56.21-.82.63v2.57a1.49,1.49,0,0,0,.1.68.49.49,0,0,0,.38.18V48h-2.43v-.19a.6.6,0,0,0,.43-.19,1.48,1.48,0,0,0,.08-.67V44.2a1.36,1.36,0,0,0-.1-.68.54.54,0,0,0-.41-.17v-.19Z" transform="translate(-5.01 -9.71)" style="fill:#fff"/><path d="M123.09,43l.08,1.64H123a2.53,2.53,0,0,0-.65-1,1.09,1.09,0,0,0-.67-.26.48.48,0,0,0-.36.14.42.42,0,0,0-.15.32.4.4,0,0,0,.11.27,4.73,4.73,0,0,0,.92.72,3.78,3.78,0,0,1,1,.87,1.42,1.42,0,0,1,.24.8,1.75,1.75,0,0,1-.2.79,1.41,1.41,0,0,1-.57.59,1.67,1.67,0,0,1-.8.2,2.84,2.84,0,0,1-.92-.21l-.21-.06c-.12,0-.21.09-.29.26h-.17l-.08-1.73h.18a2.23,2.23,0,0,0,.63,1,1.19,1.19,0,0,0,.76.34.58.58,0,0,0,.41-.15.51.51,0,0,0,.15-.37.64.64,0,0,0-.15-.43,3.68,3.68,0,0,0-.69-.54,5.77,5.77,0,0,1-1-.83,1.47,1.47,0,0,1-.33-.93,1.5,1.5,0,0,1,.38-1,1.36,1.36,0,0,1,1.11-.45,1.67,1.67,0,0,1,.75.19.53.53,0,0,0,.23.08.24.24,0,0,0,.15,0,1.45,1.45,0,0,0,.18-.22Z" transform="translate(-5.01 -9.71)" style="fill:#fff"/><path d="M126.1,43.66V47a1.09,1.09,0,0,0,.1.61.73.73,0,0,0,.61.17V48H124v-.19a1.08,1.08,0,0,0,.46-.07.37.37,0,0,0,.18-.19,1.51,1.51,0,0,0,0-.52V43.66H124v-.5h.69v-.6a1.6,1.6,0,0,1,.54-1.23,2.09,2.09,0,0,1,1.47-.5,1.53,1.53,0,0,1,.94.24.67.67,0,0,1,.3.52.5.5,0,0,1-.19.4.69.69,0,0,1-.5.17.65.65,0,0,1-.43-.13.43.43,0,0,1-.15-.31,1.12,1.12,0,0,1,0-.19,1.11,1.11,0,0,0,0-.17.21.21,0,0,0-.06-.16.29.29,0,0,0-.2-.07.3.3,0,0,0-.25.12.6.6,0,0,0-.1.4v1.51h.71v.5Z" transform="translate(-5.01 -9.71)" style="fill:#fff"/><path d="M129.6,43a2.2,2.2,0,0,1,1.17.33,2,2,0,0,1,.82.92,3,3,0,0,1,.28,1.3,2.74,2.74,0,0,1-.52,1.71,2,2,0,0,1-1.73.83,2,2,0,0,1-1.67-.76,2.79,2.79,0,0,1-.59-1.76,2.83,2.83,0,0,1,.6-1.8A2,2,0,0,1,129.6,43Zm0,.37a.61.61,0,0,0-.45.19,1.49,1.49,0,0,0-.24.79q-.06.57-.06,1.62a6.54,6.54,0,0,0,.07,1,1,1,0,0,0,.24.56.57.57,0,0,0,.42.19.56.56,0,0,0,.39-.13.94.94,0,0,0,.27-.49,13,13,0,0,0,.1-2,4.64,4.64,0,0,0-.1-1.2.88.88,0,0,0-.29-.48A.54.54,0,0,0,129.62,43.38Z" transform="translate(-5.01 -9.71)" style="fill:#fff"/><path d="M134.43,43.16v1.09a3.45,3.45,0,0,1,.84-1A1.2,1.2,0,0,1,136,43a.59.59,0,0,1,.46.18.67.67,0,0,1,.18.5.77.77,0,0,1-.17.53.51.51,0,0,1-.4.19.69.69,0,0,1-.48-.17l-.23-.2a.27.27,0,0,0-.12,0,.41.41,0,0,0-.28.12,1,1,0,0,0-.32.5,3.41,3.41,0,0,0-.17,1.09v1.4a1.36,1.36,0,0,0,0,.37.46.46,0,0,0,.19.2.91.91,0,0,0,.41.08V48h-2.6v-.19a.52.52,0,0,0,.42-.17,1.47,1.47,0,0,0,.12-.77V44.17a1.72,1.72,0,0,0,0-.52.34.34,0,0,0-.15-.21.6.6,0,0,0-.34-.09v-.19Z" transform="translate(-5.01 -9.71)" style="fill:#fff"/><path d="M139,43.16v.63a2.7,2.7,0,0,1,.73-.61,1.64,1.64,0,0,1,.74-.17,1.24,1.24,0,0,1,1.25.88,3,3,0,0,1,.79-.67,1.61,1.61,0,0,1,.79-.21,1.26,1.26,0,0,1,.79.23,1.21,1.21,0,0,1,.42.58,4.28,4.28,0,0,1,.11,1.12v2a1.38,1.38,0,0,0,.1.69.59.59,0,0,0,.42.17V48h-2.48v-.19a.54.54,0,0,0,.43-.22,1.41,1.41,0,0,0,.09-.64V44.85a3.54,3.54,0,0,0,0-.82.48.48,0,0,0-.16-.26.38.38,0,0,0-.26-.08.75.75,0,0,0-.45.16,1.92,1.92,0,0,0-.45.48v2.58a1.63,1.63,0,0,0,.08.65.52.52,0,0,0,.46.21V48h-2.49v-.19a.48.48,0,0,0,.31-.1.46.46,0,0,0,.16-.21,2.82,2.82,0,0,0,0-.55V44.85a4.11,4.11,0,0,0,0-.82.55.55,0,0,0-.18-.26.41.41,0,0,0-.26-.09.7.7,0,0,0-.37.11,2.06,2.06,0,0,0-.51.54v2.58a1.42,1.42,0,0,0,.1.67c.06.11.2.17.41.19V48H137v-.19a.6.6,0,0,0,.43-.19,1.43,1.43,0,0,0,.09-.67V44.2a1.49,1.49,0,0,0-.1-.68.59.59,0,0,0-.42-.17v-.19Z" transform="translate(-5.01 -9.71)" style="fill:#fff"/><path d="M148.21,47.25a2.53,2.53,0,0,1-1.58.78.92.92,0,0,1-.95-1,1.3,1.3,0,0,1,.47-1,9.27,9.27,0,0,1,2.06-1.17v-.48a2.38,2.38,0,0,0-.06-.69.55.55,0,0,0-.22-.24.7.7,0,0,0-.37-.11.94.94,0,0,0-.55.15.28.28,0,0,0-.14.22A.42.42,0,0,0,147,44a.66.66,0,0,1,.19.43.58.58,0,0,1-.18.43.69.69,0,0,1-.49.18.81.81,0,0,1-.55-.2.61.61,0,0,1-.22-.46,1,1,0,0,1,.3-.7,1.81,1.81,0,0,1,.81-.52A3.37,3.37,0,0,1,148,43a1.85,1.85,0,0,1,1.09.29,1.45,1.45,0,0,1,.51.63,4.06,4.06,0,0,1,.07,1v1.87a1.58,1.58,0,0,0,0,.41.24.24,0,0,0,.08.13.15.15,0,0,0,.11,0c.09,0,.18-.06.28-.19l.15.12a1.75,1.75,0,0,1-.53.55,1.11,1.11,0,0,1-.63.18,1,1,0,0,1-.64-.2A.84.84,0,0,1,148.21,47.25Zm0-.37V45.27a2.93,2.93,0,0,0-.92.78.91.91,0,0,0-.21.56.58.58,0,0,0,.17.41.45.45,0,0,0,.36.14A1,1,0,0,0,148.21,46.88Z" transform="translate(-5.01 -9.71)" style="fill:#fff"/><path d="M152.57,41.4v1.76h1.14v.5h-1.14v3a2,2,0,0,0,0,.54.36.36,0,0,0,.13.19.34.34,0,0,0,.18.08q.35,0,.63-.51l.16.11a1.41,1.41,0,0,1-1.35,1,1.2,1.2,0,0,1-.78-.26,1.13,1.13,0,0,1-.4-.57,5.2,5.2,0,0,1-.05-.94v-2.6h-.63v-.18a6.16,6.16,0,0,0,1.1-1,5.68,5.68,0,0,0,.8-1.12Z" transform="translate(-5.01 -9.71)" style="fill:#fff"/><path d="M155.88,43.16V47a1.12,1.12,0,0,0,.12.65.6.6,0,0,0,.46.16V48h-2.59v-.19a.58.58,0,0,0,.47-.18,1.16,1.16,0,0,0,.1-.63v-2.8a1.14,1.14,0,0,0-.11-.65.6.6,0,0,0-.46-.16v-.19Zm-.72-2.33a.78.78,0,0,1,.57.23.8.8,0,0,1,.23.56.77.77,0,0,1-.23.56.79.79,0,0,1-1.13,0,.77.77,0,0,1-.23-.56.79.79,0,0,1,.79-.79Z" transform="translate(-5.01 -9.71)" style="fill:#fff"/><path d="M159,43a2.2,2.2,0,0,1,1.17.33,2,2,0,0,1,.81.92,3,3,0,0,1,.28,1.3,2.8,2.8,0,0,1-.51,1.71,2,2,0,0,1-1.74.83,2,2,0,0,1-1.67-.76,2.78,2.78,0,0,1-.58-1.76,2.83,2.83,0,0,1,.6-1.8A2,2,0,0,1,159,43Zm0,.37a.61.61,0,0,0-.45.19,1.48,1.48,0,0,0-.25.79q-.06.57-.06,1.62a6.49,6.49,0,0,0,.08,1,.91.91,0,0,0,.24.56.59.59,0,0,0,.8.06.82.82,0,0,0,.27-.49,11.71,11.71,0,0,0,.1-2,5.31,5.31,0,0,0-.09-1.2.94.94,0,0,0-.29-.48A.56.56,0,0,0,159.06,43.38Z" transform="translate(-5.01 -9.71)" style="fill:#fff"/><path d="M163.84,43.16v.62a3,3,0,0,1,.71-.59,1.52,1.52,0,0,1,.73-.18,1.18,1.18,0,0,1,1.18.91,4.5,4.5,0,0,1,.09,1.12v1.87a1.38,1.38,0,0,0,.1.69.55.55,0,0,0,.42.17V48h-2.43v-.19a.49.49,0,0,0,.39-.22,1.6,1.6,0,0,0,.08-.64V44.77a3.4,3.4,0,0,0-.05-.74.49.49,0,0,0-.15-.24.39.39,0,0,0-.25-.08c-.29,0-.57.21-.82.63v2.57a1.36,1.36,0,0,0,.1.68.49.49,0,0,0,.37.18V48h-2.43v-.19a.58.58,0,0,0,.43-.19,1.43,1.43,0,0,0,.09-.67V44.2a1.36,1.36,0,0,0-.1-.68.59.59,0,0,0-.42-.17v-.19Z" transform="translate(-5.01 -9.71)" style="fill:#fff"/><path d="M173.49,46H171l-.29.67a1.67,1.67,0,0,0-.14.56.49.49,0,0,0,.23.44,2.3,2.3,0,0,0,.69.12V48h-2.32v-.19a1.05,1.05,0,0,0,.62-.31,4,4,0,0,0,.59-1.05l2.49-5.56h.1l2.51,5.71a3.31,3.31,0,0,0,.6,1,.78.78,0,0,0,.49.19V48h-3.37v-.19h.14a1.11,1.11,0,0,0,.57-.11.3.3,0,0,0,.11-.24.68.68,0,0,0,0-.19l-.15-.39Zm-.18-.38-1-2.4-1.07,2.4Z" transform="translate(-5.01 -9.71)" style="fill:#fff"/><path d="M180,43.21h1.61v.57h-.92a1.72,1.72,0,0,1,.35.45,1.34,1.34,0,0,1,.13.59,1.44,1.44,0,0,1-.29.89,1.91,1.91,0,0,1-.77.59,2.28,2.28,0,0,1-.87.21l-.62,0a.54.54,0,0,0-.39.15.5.5,0,0,0-.16.36.37.37,0,0,0,.15.3.69.69,0,0,0,.46.12h.88a3.21,3.21,0,0,1,1.49.24,1.07,1.07,0,0,1,.58,1,1.28,1.28,0,0,1-.27.79,1.54,1.54,0,0,1-.7.53,4.23,4.23,0,0,1-1.53.25,4.85,4.85,0,0,1-1.18-.13,1.69,1.69,0,0,1-.76-.34.65.65,0,0,1-.24-.47.61.61,0,0,1,.18-.43,1.44,1.44,0,0,1,.66-.31,1,1,0,0,1-.67-.92,1,1,0,0,1,.28-.69,2.26,2.26,0,0,1,.86-.58,2.19,2.19,0,0,1-1-.66,1.57,1.57,0,0,1-.31-1,1.6,1.6,0,0,1,.58-1.22A2.11,2.11,0,0,1,179,43,2.77,2.77,0,0,1,180,43.21Zm-1.2,5.46a1.69,1.69,0,0,0-.69.09.48.48,0,0,0-.29.43.59.59,0,0,0,.3.47,2.13,2.13,0,0,0,1.14.22,2.79,2.79,0,0,0,1.12-.19.59.59,0,0,0,.41-.54.3.3,0,0,0-.07-.21.7.7,0,0,0-.42-.21A10.51,10.51,0,0,0,178.79,48.67Zm.31-5.34a.61.61,0,0,0-.51.3,2.61,2.61,0,0,0-.2,1.25,2,2,0,0,0,.2,1,.59.59,0,0,0,.48.28.62.62,0,0,0,.52-.28,2.1,2.1,0,0,0,.2-1.1,2.4,2.4,0,0,0-.23-1.25A.51.51,0,0,0,179.1,43.33Z" transform="translate(-5.01 -9.71)" style="fill:#fff"/><path d="M186.08,45.39h-2.64A2.48,2.48,0,0,0,184,46.9a1.07,1.07,0,0,0,.85.42.93.93,0,0,0,.56-.17,2,2,0,0,0,.54-.62l.18.11a2.89,2.89,0,0,1-.87,1.13,1.85,1.85,0,0,1-1.09.33,1.83,1.83,0,0,1-1.62-.82,2.85,2.85,0,0,1-.44-1.64,2.73,2.73,0,0,1,.65-1.92,2,2,0,0,1,1.52-.71,1.65,1.65,0,0,1,1.27.6A2.74,2.74,0,0,1,186.08,45.39ZM184.81,45a4.65,4.65,0,0,0-.09-1.13.87.87,0,0,0-.28-.47.44.44,0,0,0-.29-.09.49.49,0,0,0-.43.26,2.24,2.24,0,0,0-.31,1.25V45Z" transform="translate(-5.01 -9.71)" style="fill:#fff"/><path d="M188.48,43.16v.62a3,3,0,0,1,.71-.59,1.55,1.55,0,0,1,.73-.18,1.2,1.2,0,0,1,.78.26,1.28,1.28,0,0,1,.41.65,5.27,5.27,0,0,1,.08,1.12v1.87a1.38,1.38,0,0,0,.1.69.57.57,0,0,0,.42.17V48h-2.43v-.19a.49.49,0,0,0,.39-.22,1.6,1.6,0,0,0,.08-.64V44.77a3.4,3.4,0,0,0-.05-.74.49.49,0,0,0-.15-.24.39.39,0,0,0-.25-.08c-.29,0-.57.21-.82.63v2.57a1.36,1.36,0,0,0,.1.68.49.49,0,0,0,.37.18V48h-2.43v-.19a.61.61,0,0,0,.44-.19,1.65,1.65,0,0,0,.08-.67V44.2a1.36,1.36,0,0,0-.1-.68.55.55,0,0,0-.42-.17v-.19Z" transform="translate(-5.01 -9.71)" style="fill:#fff"/><path d="M196.13,46.72l.16.12a2.32,2.32,0,0,1-.84.95,2,2,0,0,1-1.08.31,1.88,1.88,0,0,1-1.54-.72,2.72,2.72,0,0,1-.57-1.74,2.92,2.92,0,0,1,.52-1.73,2,2,0,0,1,1.74-.9,1.77,1.77,0,0,1,1.19.38,1.1,1.1,0,0,1,.44.83.61.61,0,0,1-.18.47.62.62,0,0,1-.46.18.71.71,0,0,1-.51-.2,1.22,1.22,0,0,1-.24-.72.79.79,0,0,0-.15-.45.35.35,0,0,0-.28-.13.52.52,0,0,0-.42.26,2.21,2.21,0,0,0-.26,1.22,4,4,0,0,0,.21,1.29,2.08,2.08,0,0,0,.59.93,1.1,1.1,0,0,0,.67.22,1,1,0,0,0,.48-.12A2.14,2.14,0,0,0,196.13,46.72Z" transform="translate(-5.01 -9.71)" style="fill:#fff"/><path d="M198.93,48.15l-1.55-3.56a5.44,5.44,0,0,0-.52-1,.8.8,0,0,0-.4-.25v-.19H199v.19a.57.57,0,0,0-.35.09.28.28,0,0,0-.11.21,2.54,2.54,0,0,0,.26.77l.82,1.89.56-1.46a3.83,3.83,0,0,0,.31-1.08.4.4,0,0,0-.13-.3.63.63,0,0,0-.44-.12v-.19h1.6v.19a.55.55,0,0,0-.38.18,4.3,4.3,0,0,0-.5,1.06l-1.37,3.56a7.9,7.9,0,0,1-.77,1.65,1.11,1.11,0,0,1-.89.43,1,1,0,0,1-.69-.24.78.78,0,0,1-.27-.59.69.69,0,0,1,.19-.5.58.58,0,0,1,.44-.19.55.55,0,0,1,.42.16.74.74,0,0,1,.16.51.42.42,0,0,0,0,.25.11.11,0,0,0,.11.06.39.39,0,0,0,.27-.15,3.45,3.45,0,0,0,.48-1Z" transform="translate(-5.01 -9.71)" style="fill:#fff"/><path d="M71.47,28.12H68.76l-.32.75a1.53,1.53,0,0,0-.16.61.53.53,0,0,0,.26.48,2.21,2.21,0,0,0,.75.13v.21H66.74v-.21a1.11,1.11,0,0,0,.68-.34,4.44,4.44,0,0,0,.66-1.16l2.74-6.11h.1l2.77,6.28a3.8,3.8,0,0,0,.65,1.13.88.88,0,0,0,.54.2v.21H71.17v-.21h.16A1.18,1.18,0,0,0,72,30a.29.29,0,0,0,.13-.26.52.52,0,0,0,0-.21,2.43,2.43,0,0,0-.17-.43l-.4-.95Zm-.2-.42-1.14-2.64L69,27.7Z" transform="translate(-5.01 -9.71)" style="fill:#fff;fill-rule:evenodd"/><path d="M79.58,25v4.13a1.49,1.49,0,0,0,.11.76.68.68,0,0,0,.46.19v.2H78v-.71a2.66,2.66,0,0,1-.75.67,1.87,1.87,0,0,1-.85.2,1.29,1.29,0,0,1-.8-.27,1.37,1.37,0,0,1-.46-.65A4.63,4.63,0,0,1,75,28.26v-2.1a1.54,1.54,0,0,0-.11-.74.66.66,0,0,0-.46-.19V25h2.15v3.61a3.49,3.49,0,0,0,0,.73.58.58,0,0,0,.17.25.5.5,0,0,0,.27.08.67.67,0,0,0,.37-.11A2.13,2.13,0,0,0,78,29V26.16a1.42,1.42,0,0,0-.11-.74.64.64,0,0,0-.46-.19V25Z" transform="translate(-5.01 -9.71)" style="fill:#fff"/><path d="M83.85,24.87l.08,1.8h-.19A2.76,2.76,0,0,0,83,25.58a1.15,1.15,0,0,0-.73-.3.58.58,0,0,0-.4.16.46.46,0,0,0-.16.36.42.42,0,0,0,.11.29,5.43,5.43,0,0,0,1,.8,4.07,4.07,0,0,1,1.09.95,1.5,1.5,0,0,1,.27.88,1.93,1.93,0,0,1-.22.86,1.56,1.56,0,0,1-.62.65,1.82,1.82,0,0,1-.89.23,3,3,0,0,1-1-.24.89.89,0,0,0-.24-.06c-.12,0-.22.09-.31.28h-.18l-.09-1.9h.19a2.5,2.5,0,0,0,.69,1.12,1.36,1.36,0,0,0,.85.38.62.62,0,0,0,.44-.17.57.57,0,0,0,.17-.41.64.64,0,0,0-.17-.46,3.6,3.6,0,0,0-.75-.6A5.88,5.88,0,0,1,81,27.48a1.59,1.59,0,0,1-.38-1,1.63,1.63,0,0,1,.42-1.1,1.49,1.49,0,0,1,1.22-.5,1.73,1.73,0,0,1,.83.21.64.64,0,0,0,.25.08.31.31,0,0,0,.17,0,1.27,1.27,0,0,0,.19-.24Z" transform="translate(-5.01 -9.71)" style="fill:#fff"/><path d="M86.64,23.08V25H87.9v.56H86.64v3.26a3.18,3.18,0,0,0,0,.59.37.37,0,0,0,.16.21.28.28,0,0,0,.19.08c.25,0,.48-.18.7-.56l.17.13a1.55,1.55,0,0,1-1.49,1.08,1.35,1.35,0,0,1-.85-.27,1.24,1.24,0,0,1-.44-.63,5,5,0,0,1-.06-1V25.58h-.69v-.2a7.11,7.11,0,0,0,1.21-1.06,6.16,6.16,0,0,0,.88-1.24Z" transform="translate(-5.01 -9.71)" style="fill:#fff"/><path d="M90.48,25v1.19a4,4,0,0,1,.92-1.08,1.35,1.35,0,0,1,.76-.27.66.66,0,0,1,.51.2.75.75,0,0,1,.19.54.82.82,0,0,1-.19.59.56.56,0,0,1-.44.21.76.76,0,0,1-.52-.19L91.45,26a.28.28,0,0,0-.13,0,.48.48,0,0,0-.31.12,1.27,1.27,0,0,0-.35.55,3.89,3.89,0,0,0-.18,1.21v1.53a1.57,1.57,0,0,0,0,.42.48.48,0,0,0,.2.22,1.1,1.1,0,0,0,.45.09v.2H88.32v-.2a.6.6,0,0,0,.46-.19,1.62,1.62,0,0,0,.13-.85V26.14a2.09,2.09,0,0,0,0-.58.45.45,0,0,0-.16-.23.76.76,0,0,0-.38-.1V25Z" transform="translate(-5.01 -9.71)" style="fill:#fff"/><path d="M95.76,29.52a2.76,2.76,0,0,1-1.73.85,1,1,0,0,1-1.06-1,1.47,1.47,0,0,1,.52-1.08A10.33,10.33,0,0,1,95.76,27v-.53a2.24,2.24,0,0,0-.07-.75.52.52,0,0,0-.24-.27.73.73,0,0,0-.41-.12,1,1,0,0,0-.6.16.3.3,0,0,0-.15.24.45.45,0,0,0,.16.29.75.75,0,0,1,.21.47.63.63,0,0,1-.21.48.72.72,0,0,1-.53.19.84.84,0,0,1-.6-.22.65.65,0,0,1-.24-.5,1.16,1.16,0,0,1,.32-.77,2.05,2.05,0,0,1,.9-.57,3.52,3.52,0,0,1,1.2-.2,2,2,0,0,1,1.19.32,1.51,1.51,0,0,1,.57.69A4.62,4.62,0,0,1,97.34,27V29a2.06,2.06,0,0,0,0,.46.22.22,0,0,0,.08.14.2.2,0,0,0,.13,0q.15,0,.3-.21l.17.14a2.16,2.16,0,0,1-.59.61,1.3,1.3,0,0,1-.68.18,1.15,1.15,0,0,1-.71-.2,1,1,0,0,1-.31-.65Zm0-.41V27.34a3.33,3.33,0,0,0-1,.86,1.09,1.09,0,0,0-.22.61.62.62,0,0,0,.19.46.5.5,0,0,0,.39.15,1.09,1.09,0,0,0,.66-.31Z" transform="translate(-5.01 -9.71)" style="fill:#fff;fill-rule:evenodd"/><path d="M100.35,22.64V29.2a1.32,1.32,0,0,0,.13.72.76.76,0,0,0,.51.18v.2H98.14v-.2a.71.71,0,0,0,.52-.21,1.29,1.29,0,0,0,.11-.69V23.73a1.19,1.19,0,0,0-.13-.7.65.65,0,0,0-.5-.18v-.21Z" transform="translate(-5.01 -9.71)" style="fill:#fff"/><path d="M102.77,22.46a.8.8,0,0,1,.62.26.83.83,0,0,1,.26.61.85.85,0,0,1-.26.62.89.89,0,0,1-1.24,0,.89.89,0,0,1-.25-.62.86.86,0,0,1,.25-.61.82.82,0,0,1,.62-.26Zm.79,2.56V29.2a1.32,1.32,0,0,0,.13.72.76.76,0,0,0,.51.18v.2h-2.85v-.2a.71.71,0,0,0,.52-.21,1.29,1.29,0,0,0,.11-.69V26.12a1.21,1.21,0,0,0-.13-.71.65.65,0,0,0-.5-.18V25Z" transform="translate(-5.01 -9.71)" style="fill:#fff;fill-rule:evenodd"/><path d="M107.28,29.52a2.76,2.76,0,0,1-1.73.85,1,1,0,0,1-1-1,1.43,1.43,0,0,1,.52-1.08A9.94,9.94,0,0,1,107.28,27v-.53a2.71,2.71,0,0,0-.06-.75.59.59,0,0,0-.25-.27.7.7,0,0,0-.4-.12,1,1,0,0,0-.61.16.3.3,0,0,0-.15.24A.5.5,0,0,0,106,26a.72.72,0,0,1,.22.47.63.63,0,0,1-.21.48.76.76,0,0,1-.54.19.84.84,0,0,1-.6-.22.64.64,0,0,1-.23-.5,1.12,1.12,0,0,1,.32-.77,1.94,1.94,0,0,1,.9-.57,3.42,3.42,0,0,1,1.19-.2,2,2,0,0,1,1.19.32,1.51,1.51,0,0,1,.57.69,4.62,4.62,0,0,1,.08,1.09V29a2.06,2.06,0,0,0,0,.46.37.37,0,0,0,.08.14.2.2,0,0,0,.13,0q.15,0,.3-.21l.17.14a2,2,0,0,1-.59.61,1.25,1.25,0,0,1-.68.18,1.15,1.15,0,0,1-.71-.2,1,1,0,0,1-.31-.65Zm0-.41V27.34a3.28,3.28,0,0,0-1,.86,1,1,0,0,0-.22.61.65.65,0,0,0,.18.46.54.54,0,0,0,.4.15,1,1,0,0,0,.65-.31Z" transform="translate(-5.01 -9.71)" style="fill:#fff;fill-rule:evenodd"/><path d="M111.85,25v.68a3.05,3.05,0,0,1,.78-.64,1.72,1.72,0,0,1,.8-.2,1.25,1.25,0,0,1,.86.29,1.42,1.42,0,0,1,.45.7,5.55,5.55,0,0,1,.09,1.24v2.06a1.49,1.49,0,0,0,.11.76.66.66,0,0,0,.46.19v.2h-2.67v-.2a.57.57,0,0,0,.43-.25,1.65,1.65,0,0,0,.09-.7V26.8a4.11,4.11,0,0,0,0-.82.51.51,0,0,0-.18-.26.39.39,0,0,0-.26-.1c-.33,0-.63.23-.91.7v2.83a1.65,1.65,0,0,0,.11.75.55.55,0,0,0,.41.2v.2H109.7v-.2a.67.67,0,0,0,.47-.22,1.45,1.45,0,0,0,.1-.73v-3a1.54,1.54,0,0,0-.11-.74.68.68,0,0,0-.46-.19V25Z" transform="translate(-5.01 -9.71)" style="fill:#fff"/><path d="M125.81,22.46v2.7h-.21a3.41,3.41,0,0,0-1.14-1.68,2.68,2.68,0,0,0-1.65-.58,2.14,2.14,0,0,0-1.43.49,2.63,2.63,0,0,0-.81,1.34,7,7,0,0,0,0,3.71,2.14,2.14,0,0,0,.84,1.22,2.43,2.43,0,0,0,1.38.39,3.64,3.64,0,0,0,.56-.05,4.56,4.56,0,0,0,.6-.18V28.23a1.8,1.8,0,0,0-.06-.59.56.56,0,0,0-.26-.24,1,1,0,0,0-.47-.11H123v-.2h3.73v.2a1.67,1.67,0,0,0-.6.12.6.6,0,0,0-.25.29,1.47,1.47,0,0,0,0,.53v1.59a7.89,7.89,0,0,1-3.18.66,4.94,4.94,0,0,1-1.81-.29,4.66,4.66,0,0,1-1.27-.78,3.66,3.66,0,0,1-.86-1.09,3.76,3.76,0,0,1-.4-1.75,3.93,3.93,0,0,1,1.22-2.92,4.15,4.15,0,0,1,3-1.19,5.34,5.34,0,0,1,1,.09,4.11,4.11,0,0,1,.8.26,3.51,3.51,0,0,0,.67.21.44.44,0,0,0,.29-.12,1.08,1.08,0,0,0,.25-.44Z" transform="translate(-5.01 -9.71)" style="fill:#fff"/><path d="M129.48,24.86a2.51,2.51,0,0,1,1.28.35,2.36,2.36,0,0,1,.9,1,3.37,3.37,0,0,1,.31,1.43,3,3,0,0,1-.57,1.88,2.27,2.27,0,0,1-1.91.92,2.16,2.16,0,0,1-1.83-.84,3.07,3.07,0,0,1-.65-1.94,3.1,3.1,0,0,1,.66-2,2.15,2.15,0,0,1,1.81-.85Zm0,.4a.66.66,0,0,0-.5.22,1.54,1.54,0,0,0-.27.86c0,.42-.06,1-.06,1.78a6.75,6.75,0,0,0,.08,1.13,1.11,1.11,0,0,0,.26.61.66.66,0,0,0,.89.07,1,1,0,0,0,.29-.54,12.31,12.31,0,0,0,.12-2.17,5.42,5.42,0,0,0-.11-1.32,1,1,0,0,0-.32-.52.58.58,0,0,0-.38-.12Z" transform="translate(-5.01 -9.71)" style="fill:#fff;fill-rule:evenodd"/><path d="M134.46,30.46l-1.78-4.1a4.2,4.2,0,0,0-.5-.94.72.72,0,0,0-.39-.19V25h2.81v.21a.52.52,0,0,0-.36.09.39.39,0,0,0-.14.3,2.66,2.66,0,0,0,.25.78l.87,2,.7-1.72a3.26,3.26,0,0,0,.3-1,.37.37,0,0,0-.13-.28.69.69,0,0,0-.45-.12V25h1.73v.21a.73.73,0,0,0-.41.18,3.59,3.59,0,0,0-.47.9l-1.76,4.15Z" transform="translate(-5.01 -9.71)" style="fill:#fff"/><path d="M141.53,27.47h-2.9a2.71,2.71,0,0,0,.56,1.66,1.19,1.19,0,0,0,.94.47,1,1,0,0,0,.61-.19,2.19,2.19,0,0,0,.6-.68l.19.12a3.25,3.25,0,0,1-.95,1.25,2.07,2.07,0,0,1-1.2.36,2,2,0,0,1-1.78-.9,3.16,3.16,0,0,1-.49-1.81,3,3,0,0,1,.71-2.11,2.22,2.22,0,0,1,1.68-.78,1.81,1.81,0,0,1,1.39.66,3,3,0,0,1,.64,1.95Zm-1.39-.38a5.54,5.54,0,0,0-.1-1.25,1,1,0,0,0-.31-.51.45.45,0,0,0-.31-.1.57.57,0,0,0-.49.28,2.52,2.52,0,0,0-.33,1.38v.2Z" transform="translate(-5.01 -9.71)" style="fill:#fff;fill-rule:evenodd"/><path d="M144,25v1.19a3.81,3.81,0,0,1,.92-1.08,1.33,1.33,0,0,1,.76-.27.62.62,0,0,1,.5.2.71.71,0,0,1,.19.54.87.87,0,0,1-.18.59.56.56,0,0,1-.44.21.74.74,0,0,1-.52-.19L145,26a.28.28,0,0,0-.13,0,.47.47,0,0,0-.31.12,1.19,1.19,0,0,0-.35.55,3.89,3.89,0,0,0-.18,1.21v1.53a1.23,1.23,0,0,0,0,.42.48.48,0,0,0,.2.22,1.1,1.1,0,0,0,.45.09v.2h-2.85v-.2a.6.6,0,0,0,.46-.19,1.78,1.78,0,0,0,.12-.85V26.14a2.26,2.26,0,0,0,0-.58.45.45,0,0,0-.16-.23.79.79,0,0,0-.38-.1V25Z" transform="translate(-5.01 -9.71)" style="fill:#fff"/><path d="M148.91,25v.68a3.05,3.05,0,0,1,.78-.64,1.69,1.69,0,0,1,.8-.2,1.22,1.22,0,0,1,.85.29,1.29,1.29,0,0,1,.45.7,5.38,5.38,0,0,1,.1,1.24v2.06a1.66,1.66,0,0,0,.1.76.69.69,0,0,0,.47.19v.2h-2.68v-.2a.56.56,0,0,0,.43-.25,1.65,1.65,0,0,0,.09-.7V26.8a3.43,3.43,0,0,0-.05-.82.44.44,0,0,0-.17-.26.39.39,0,0,0-.27-.1c-.32,0-.62.23-.9.7v2.83a1.69,1.69,0,0,0,.1.75.6.6,0,0,0,.42.2v.2h-2.68v-.2a.7.7,0,0,0,.48-.22,1.74,1.74,0,0,0,.1-.73v-3a1.38,1.38,0,0,0-.12-.74.64.64,0,0,0-.46-.19V25Z" transform="translate(-5.01 -9.71)" style="fill:#fff"/><path d="M155,25v.69a3.33,3.33,0,0,1,.8-.66,1.74,1.74,0,0,1,.82-.19,1.37,1.37,0,0,1,1.38,1,3.5,3.5,0,0,1,.87-.74,1.79,1.79,0,0,1,.87-.22,1.38,1.38,0,0,1,.87.25,1.32,1.32,0,0,1,.45.64,4.11,4.11,0,0,1,.13,1.23v2.17a1.49,1.49,0,0,0,.11.76.71.71,0,0,0,.46.19v.2h-2.73v-.2a.58.58,0,0,0,.47-.25,1.45,1.45,0,0,0,.11-.7V26.88a4,4,0,0,0-.06-.9.53.53,0,0,0-.18-.28.4.4,0,0,0-.28-.1.8.8,0,0,0-.49.18,2.17,2.17,0,0,0-.51.53v2.84a1.53,1.53,0,0,0,.1.72.58.58,0,0,0,.5.23v.2H156v-.2a.62.62,0,0,0,.34-.11.43.43,0,0,0,.17-.24,2.34,2.34,0,0,0,0-.6V26.88a3.89,3.89,0,0,0-.06-.9.47.47,0,0,0-.19-.28.45.45,0,0,0-.28-.11.73.73,0,0,0-.41.12,2.37,2.37,0,0,0-.57.6v2.84a1.68,1.68,0,0,0,.11.74c.07.12.23.18.46.21v.2h-2.72v-.2a.67.67,0,0,0,.47-.22,1.45,1.45,0,0,0,.1-.73v-3a1.54,1.54,0,0,0-.11-.74.68.68,0,0,0-.46-.19V25Z" transform="translate(-5.01 -9.71)" style="fill:#fff"/><path d="M166.49,27.47h-2.9a2.77,2.77,0,0,0,.56,1.66,1.2,1.2,0,0,0,.94.47,1.06,1.06,0,0,0,.62-.19,2.32,2.32,0,0,0,.59-.68l.19.12a3.16,3.16,0,0,1-1,1.25,2,2,0,0,1-1.2.36,2,2,0,0,1-1.78-.9,3.16,3.16,0,0,1-.49-1.81,3,3,0,0,1,.71-2.11,2.22,2.22,0,0,1,1.68-.78,1.79,1.79,0,0,1,1.39.66,3,3,0,0,1,.64,1.95Zm-1.39-.38a5,5,0,0,0-.1-1.25,1,1,0,0,0-.3-.51.47.47,0,0,0-.32-.1.54.54,0,0,0-.48.28,2.52,2.52,0,0,0-.33,1.38v.2Z" transform="translate(-5.01 -9.71)" style="fill:#fff;fill-rule:evenodd"/><path d="M168.85,25v.68a3.05,3.05,0,0,1,.78-.64,1.72,1.72,0,0,1,.8-.2,1.26,1.26,0,0,1,.86.29,1.42,1.42,0,0,1,.45.7,5.55,5.55,0,0,1,.09,1.24v2.06a1.66,1.66,0,0,0,.1.76.69.69,0,0,0,.47.19v.2h-2.68v-.2a.56.56,0,0,0,.43-.25,1.65,1.65,0,0,0,.09-.7V26.8a3.43,3.43,0,0,0-.05-.82.44.44,0,0,0-.17-.26.39.39,0,0,0-.27-.1c-.32,0-.62.23-.9.7v2.83a1.51,1.51,0,0,0,.11.75.55.55,0,0,0,.41.2v.2H166.7v-.2a.67.67,0,0,0,.47-.22,1.58,1.58,0,0,0,.1-.73v-3a1.38,1.38,0,0,0-.12-.74.63.63,0,0,0-.45-.19V25Z" transform="translate(-5.01 -9.71)" style="fill:#fff"/><path d="M174.65,23.08V25h1.25v.56h-1.25v3.26a2.47,2.47,0,0,0,0,.59.41.41,0,0,0,.15.21.29.29,0,0,0,.2.08c.24,0,.47-.18.69-.56l.17.13a1.55,1.55,0,0,1-1.49,1.08,1.35,1.35,0,0,1-.85-.27,1.24,1.24,0,0,1-.44-.63,5,5,0,0,1-.06-1V25.58h-.69v-.2a7.11,7.11,0,0,0,1.21-1.06,6.16,6.16,0,0,0,.88-1.24Z" transform="translate(-5.01 -9.71)" style="fill:#fff"/><path d="M24.06,42.91a.31.31,0,0,1-.15.15" transform="translate(-5.01 -9.71)" style="fill:#fff"/><path d="M25.38,32.57a.28.28,0,0,0,.28-.28.28.28,0,1,0-.55,0,.28.28,0,0,0,.27.28Z" transform="translate(-5.01 -9.71)" style="fill:#fff"/><path d="M38.2,20.88h-10v8.05A1.82,1.82,0,0,0,29,30.59l3.84,2.29a.45.45,0,0,0,.35.16.48.48,0,0,0,.31-.12l3.9-2.33a1.82,1.82,0,0,0,.78-1.66v-8Zm-6.65,2.33h-.86V21.14h.86v2.07Zm-.63.72L31,23.8,31,23.66h.16l.1-.17.09.17h.16l-.07.14.12.13-.16,0v.17L31.23,24l-.15.11V24l-.16,0Zm-2.4,2.56v-2h1v2Zm.17-2.83h.16l.1-.17.09.17h.16l-.07.14.12.13-.16,0v.17L29,24l-.15.11V24l-.16,0,.12-.13-.07-.14Zm1.18,2H30l.1-.17.09.17h.17l-.08.14.12.13-.15,0v.17L30.13,26l-.15.11V26l-.16,0,.13-.13-.08-.14Zm.7-1.58c0-.05-.08-.06-.11-.06s-.13.15-.21.16-.1,0-.1-.07.12-.09.17-.13c-.65,0-.66.29-.76.29s.14-.31.23-.4c-.13,0-.21-.18-.35-.26.07-.1.1-.06.19,0s.05-.15.2-.15.21.28.25.28,0-.28.2-.28.64.74.32.74c-.14,0,0-.11,0-.13Zm-.75-2.15.13-.13-.08-.14.16,0,.1-.17.09.16h.17l-.08.14.12.13-.15,0v.17L30.13,22l-.15.11V22l-.16,0Zm-.26-.78v2.07h-1V21.14Zm2,10.64-2.39-1.42A1.69,1.69,0,0,1,28.52,29V26.76h3v5Zm-.86-5.29v-2h.86v2ZM34.62,32l-1.1.65h0a.44.44,0,0,1-.29.11.46.46,0,0,1-.3-.11L31.82,32V26.76h2.8V32Zm0-5.46h-2.8V21.14h2.8v5.35ZM37.92,29a1.69,1.69,0,0,1-.64,1.33l-2.39,1.42v-5h3V29Zm0-2.54h-3V21.14h3v5.35Z" transform="translate(-5.01 -9.71)" style="fill:#fff"/><path d="M31.39,28.61s-.38.12-.28.11a1.06,1.06,0,0,1,.3-.41c0-.13-.18,0-.35.08.57-.82.21-.48-.11-.42.51-.55.37-.54,0-.37.29-.23.36-.51.31-.59-.27.37-.53.31-.53.65a1.45,1.45,0,0,1-.19.72c-.15.16,0-.61-.43-.61-.12,0-.42,0-.5.15.08,0,.19.2.19.28s.08.3-.06.3-.28-.28-.28-.41,0-.11,0-.3-.53-.77-.74-.77c0,.22.29.27.29.56-.12,0-.3-.23-.3-.09s.19.17.19.3-.21-.05-.21.09.11.09.14.21-.16,0-.18,0,0,.09.09.13-.05.09-.05.28c0,.64.39.93.69.93s.17-.14.2-.21c0,.1.11-.06.11.13s-.2.11-.2.28.32,0,.32.25a2.9,2.9,0,0,1,0,.41c0,.08.33-.11.31-.15s.08.27.23.26.12-.24.19-.26.3.23.3.12c0-.3-.12-.17-.12-.38s.41-.15.35-.24-.09,0-.14-.17c0,0-.32-.48.07-.22s.46-.62.44-.67Z" transform="translate(-5.01 -9.71)" style="fill:#fff"/><path d="M42,30.71a.31.31,0,0,0,.33-.28.31.31,0,0,0-.33-.29.3.3,0,0,0-.32.29.3.3,0,0,0,.32.28Z" transform="translate(-5.01 -9.71)" style="fill:#fff"/><path d="M40.7,31.5a.29.29,0,1,0-.33-.29.31.31,0,0,0,.33.29Z" transform="translate(-5.01 -9.71)" style="fill:#fff"/><path d="M24.94,33.32a.29.29,0,1,0-.33-.29.31.31,0,0,0,.33.29Z" transform="translate(-5.01 -9.71)" style="fill:#fff"/><path d="M26,33.41a.29.29,0,1,0-.33-.29.31.31,0,0,0,.33.29Z" transform="translate(-5.01 -9.71)" style="fill:#fff"/><path d="M54.33,19.66a2,2,0,0,1,.24,2.17c-.19,0-.15-.26-.19-.4a2.66,2.66,0,0,1-.31-2.21c.23,0,.14.31.26.44Z" transform="translate(-5.01 -9.71)" style="fill:#fff"/><path d="M12.7,20.44a3.26,3.26,0,0,0,0,1.39c-.09.09-.07-.09-.16-.07-.67-.49-.36-1.46-.53-2.14a.13.13,0,0,1,.17,0,1.24,1.24,0,0,1,.52.85Z" transform="translate(-5.01 -9.71)" style="fill:#fff"/><path d="M55.83,20.5c.1.19-.09.38-.23.47a.43.43,0,0,1-.43-.19.4.4,0,0,1,.2-.46.46.46,0,0,1,.46.18Z" transform="translate(-5.01 -9.71)" style="fill:#fff"/><path d="M11.64,21.27a.52.52,0,0,1-.23.38c-.1,0-.26,0-.33-.08A.34.34,0,0,1,11,21.2a.42.42,0,0,1,.33-.16c.13.05.25.09.3.23Z" transform="translate(-5.01 -9.71)" style="fill:#fff"/><path d="M56.5,21.57a.34.34,0,0,1,0,.28A.39.39,0,0,1,56,22a.47.47,0,0,1-.2-.29.56.56,0,0,1,.3-.32.52.52,0,0,1,.36.18Z" transform="translate(-5.01 -9.71)" style="fill:#fff"/><path d="M55.51,21.58c.14.07,0,.25,0,.35s-.21.23-.36.18-.2-.09-.23-.21a.38.38,0,0,1,.24-.4.41.41,0,0,1,.33.08Z" transform="translate(-5.01 -9.71)" style="fill:#fff"/><path d="M54.24,21.85c0,.19,0,.43-.2.47a.33.33,0,0,1-.4-.25.41.41,0,0,1,.26-.42.44.44,0,0,1,.34.2Z" transform="translate(-5.01 -9.71)" style="fill:#fff"/><path d="M13.53,21.93c.06.18-.12.28-.22.37s-.28-.07-.35-.19,0-.23.07-.33a.32.32,0,0,1,.5.15Z" transform="translate(-5.01 -9.71)" style="fill:#fff"/><path d="M12.49,22a.35.35,0,0,1-.19.33.32.32,0,0,1-.35-.16.3.3,0,0,1,.16-.4c.19-.07.31.1.38.23Z" transform="translate(-5.01 -9.71)" style="fill:#fff"/><path d="M50,22.06a3.55,3.55,0,0,1,.34,1.26c-.07.33.06.77-.19,1-.24-.09-.26-.39-.42-.55a3.07,3.07,0,0,1,.07-1.92c.14-.06.14.12.2.21Z" transform="translate(-5.01 -9.71)" style="fill:#fff"/><path d="M11.67,22.27c.06.21-.1.31-.22.43s-.35-.1-.44-.24a.45.45,0,0,1,.23-.42.43.43,0,0,1,.43.23Z" transform="translate(-5.01 -9.71)" style="fill:#fff"/><path d="M52.78,22.77a2.5,2.5,0,0,1,.09,1.69l-.1.08a6.33,6.33,0,0,1-.72-1.42,2.28,2.28,0,0,1,.21-1c.12-.09.19,0,.24.12a.7.7,0,0,0,.28.52Z" transform="translate(-5.01 -9.71)" style="fill:#fff"/><path d="M55,22.46a.43.43,0,0,1-.26.42.32.32,0,0,1-.4-.21.39.39,0,0,1,.19-.42c.2-.11.39.07.47.21Z" transform="translate(-5.01 -9.71)" style="fill:#fff"/><path d="M12.51,23a.36.36,0,0,1-.26.33c-.14.11-.24-.07-.37-.12a.43.43,0,0,1,0-.4c.06-.11.18-.11.28-.14s.31.16.35.33Z" transform="translate(-5.01 -9.71)" style="fill:#fff"/><path d="M13.27,22.91c.07.18-.12.27-.19.35s-.31-.08-.4-.21a.39.39,0,0,1,.19-.38c.21-.05.32.09.4.24Z" transform="translate(-5.01 -9.71)" style="fill:#fff"/><path d="M55.46,22.86c0,.23-.36.46-.4.68a1.76,1.76,0,0,1-1.08,1,.79.79,0,0,1-.4.22c0-.35.28-.66.47-1a2.61,2.61,0,0,1,1.41-.91Z" transform="translate(-5.01 -9.71)" style="fill:#fff"/><path d="M12.16,23.6a6.84,6.84,0,0,0,.71.82.14.14,0,0,1-.12.18c-.85-.06-1.42-.93-1.84-1.55.05-.19.28,0,.4-.05.29.23.63.3.85.6Z" transform="translate(-5.01 -9.71)" style="fill:#fff"/><path d="M55.7,23.84a2.23,2.23,0,0,1-1.07,1.89c-.19.07-.4.27-.59.14a8.73,8.73,0,0,1,1.53-2Z" transform="translate(-5.01 -9.71)" style="fill:#fff"/><path d="M52.37,24.35a.43.43,0,0,1-.3.51c-.19,0-.31-.14-.4-.28a.38.38,0,0,1,.24-.39.31.31,0,0,1,.21-.05c.11,0,.16.12.25.21Z" transform="translate(-5.01 -9.71)" style="fill:#fff"/><path d="M11.2,24.51a9,9,0,0,1,.94.82c-.22.16-.5,0-.76,0-.59-.21-1-.72-1.6-.89,0-.2.24-.13.36-.18a3.2,3.2,0,0,1,1.06.23Z" transform="translate(-5.01 -9.71)" style="fill:#fff"/><path d="M29.83,19.32c-1-.38-1.62.63-2.61.51-.12.07-.09.19-.16.28s-.14,0-.19,0c-.05-.42-.19-.8-.24-1.2-.11-.18-.05-.42-.14-.6-.56-1.52,1.36-.37,1.74-1.26s-.64-.86-.94-1.4V15.4c-.28-.28-.57-.37-.75-.74a2.45,2.45,0,0,0,.05-1.34c0-.11-.08-.25-.24-.2-.33.46-.57.83-.89,1.26a10.08,10.08,0,0,0-1-.77c-.26,0-.51-.29-.8-.19a.24.24,0,0,0,.05.26,2.54,2.54,0,0,0,.85,1.72l.05.26A8.12,8.12,0,0,0,24.28,18a12.8,12.8,0,0,1-3.77,5.3c-1,1.12-2.18,2.21-2.33,3.75-.05.25,0,.54-.16.72a6,6,0,0,1-1.62-.86c-.8-.56-1.94-.49-2.47-1.51-.2-.4.06-.8.25-1.1A2,2,0,0,0,14.37,22c-.07,0-.09.07-.14.09-.05,1-.87,1.75-.56,2.89.07.33.25.54.33.85a2.57,2.57,0,0,1-.4-.08,4.11,4.11,0,0,0-1.16-.16c-.8.37-1.9-.09-2.54.65-.1,0-.24,0-.21.19.38,0,.75.1,1.13.09.61.1,1-.41,1.43-.63h.1c.18-.18.47-.07.7-.11A7,7,0,0,1,15.9,27v.07c-.35.16-.75.27-1.1.46a2.35,2.35,0,0,0-1,1.17c-.28.44.09.82.26,1.19,0,.18,0,.39.19.46.56-.6,0-1.33.12-2a1.44,1.44,0,0,1,1.13-.91c1-.42,1.71.39,2.51.84A11.7,11.7,0,0,1,18,30.64a2,2,0,0,1-.82.12c-1.37.11-2.45.86-3.68,1.28-.56.19-1.22.17-1.78.38A4,4,0,0,0,13,32.37c1.71-.24,3-1.56,4.86-1.33l0,.05a4.1,4.1,0,0,1-.82,1.14c0-.19-.07-.35-.24-.45a.32.32,0,0,0-.4.14.24.24,0,0,0,0,.26.56.56,0,0,0,.38.24c0,.16-.22.23-.33.37-.49.83-1.48.49-2,1.07-.09.12-.4.19-.26.39A2.62,2.62,0,0,0,16,33.79c.64-.72,1.32-1.4,2-2.08a2,2,0,0,1-.38,1.59,1.78,1.78,0,0,0-.47-.26.43.43,0,0,0-.31.35,1.1,1.1,0,0,0,.26.35,6.38,6.38,0,0,1-2,.65,36.74,36.74,0,0,1-3.79.28,9.09,9.09,0,0,1-1.88,0c-.66.12-1.37-.09-1.91.28-.07.08,0,.17,0,.26.8.53,1.89.1,2.8.26H17.1a3.09,3.09,0,0,0,1.41-.26,5.07,5.07,0,0,0,1.82-2.31,3.55,3.55,0,0,0,.37-1A1.5,1.5,0,0,1,22,30.78a7.86,7.86,0,0,1-.29,2.66c-.11.56-.47,1.1-.25,1.7.06.28.35.28.58.31,2.1,0,4.21-.12,6.43,0a5.1,5.1,0,0,0,1.19.17s.15-.07.1-.17a.65.65,0,0,0-.42-.49c0-.11-.19-.07-.24-.14-1.11-.63-2.45-.3-3.76-.28a2.82,2.82,0,0,1-1.93-.19c-.26-.32-.07-1.32-.07-1.32a25.76,25.76,0,0,1,1.08-3.38,3,3,0,0,0,.11-.8,3.62,3.62,0,0,0,.1-1.19,8,8,0,0,1,.54-1.63c.1-.27.19-.55.29-.81a2.7,2.7,0,0,1,.35-.91c.57.36,1.12.35,1.4,1l.24,1.46c0,.09.07.27.19.16.45-.3.31-1,.31-1.42s-.28-.8-.43-1.28a1.81,1.81,0,0,1-.33-.5c-.07-.39-.91-.65-.72-1.13a1.43,1.43,0,0,1,.59-1,.17.17,0,0,1,.09.12l.21-.15,0-1.46c.56,0,1.41.07,2,.07.16.05.28.17.45.19l.14-.19,1.41-.28c-.6.07-1-.62-1.53-.62Z" transform="translate(-5.01 -9.71)" style="fill:#fff"/><path d="M31.36,19.94l.13,0-.13,0Z" transform="translate(-5.01 -9.71)" style="fill:#fff"/><path d="M16.21,24.82a.39.39,0,0,1-.26.41c-.14-.06-.24-.07-.33-.21s.11-.34.25-.41.31.06.34.21Z" transform="translate(-5.01 -9.71)" style="fill:#fff"/><path d="M15.08,24.82a.39.39,0,0,1,.07.41c-.12.1-.31.19-.42.05s-.2-.23-.12-.37.33-.23.47-.09Z" transform="translate(-5.01 -9.71)" style="fill:#fff"/><path d="M39.29,25v0" transform="translate(-5.01 -9.71)" style="fill:#fff"/><path d="M52.54,25.31c.07.2-.09.34-.23.41s-.4-.09-.4-.32a.33.33,0,0,1,.26-.26.35.35,0,0,1,.37.17Z" transform="translate(-5.01 -9.71)" style="fill:#fff"/><path d="M53.46,25.28c0,.09.18.23,0,.31s-.13.07-.18.14a.34.34,0,0,1-.42-.21c0-.19.13-.28.27-.36s.2.05.29.12Z" transform="translate(-5.01 -9.71)" style="fill:#fff"/><path d="M10.72,25.49a.35.35,0,0,1-.47.23.74.74,0,0,1-.14-.23c0-.12.05-.25.19-.3a.43.43,0,0,1,.42.3Z" transform="translate(-5.01 -9.71)" style="fill:#fff"/><path d="M16.58,25.79c0,.14-.18.26-.3.33S16,26,15.9,25.87a.36.36,0,0,1,.21-.35.39.39,0,0,1,.47.27Z" transform="translate(-5.01 -9.71)" style="fill:#fff"/><path d="M15.55,25.66c0,.06.11.2,0,.28s-.26.25-.43.14-.23-.15-.19-.33a.78.78,0,0,1,.26-.21c.14,0,.21.05.31.12Z" transform="translate(-5.01 -9.71)" style="fill:#fff"/><path d="M56.12,25.87a.51.51,0,0,1-.22.34.37.37,0,0,1-.39-.09c-.1,0-.07-.18-.07-.26a.56.56,0,0,1,.33-.23.6.6,0,0,1,.35.24Z" transform="translate(-5.01 -9.71)" style="fill:#fff"/><path d="M57.23,26a.43.43,0,0,1-.33.32c-.1,0-.29-.06-.26-.21a.29.29,0,0,1,.16-.28.3.3,0,0,1,.43.17Z" transform="translate(-5.01 -9.71)" style="fill:#fff"/><path d="M12.7,26.28a.33.33,0,0,1-.21.42c-.12.07-.24,0-.33-.09a.31.31,0,0,1-.09-.35c0-.16.2-.12.3-.19a.39.39,0,0,1,.33.21Z" transform="translate(-5.01 -9.71)" style="fill:#fff"/><path d="M13.55,26.43c0,.14-.1.2-.14.3a.27.27,0,0,1-.31,0c-.12-.11-.26-.27-.14-.42s.51-.13.59.08Z" transform="translate(-5.01 -9.71)" style="fill:#fff"/><path d="M55.1,26.35c0,.17-.14.29-.25.4a.3.3,0,0,1-.35-.21.36.36,0,0,1,.2-.33.38.38,0,0,1,.4.14Z" transform="translate(-5.01 -9.71)" style="fill:#fff"/><path d="M56.52,26.63c0,.16,0,.33-.19.44a.55.55,0,0,1-.42-.07.34.34,0,0,1-.07-.37.41.41,0,0,1,.42-.21c.12.07.16.15.26.21Z" transform="translate(-5.01 -9.71)" style="fill:#fff"/><path d="M12,27c.07.13-.09.17-.14.24a.36.36,0,0,1-.35,0c-.12-.08-.07-.25-.05-.34.16-.3.47-.08.54.13Z" transform="translate(-5.01 -9.71)" style="fill:#fff"/><path d="M55.43,27.33c.07,0,0,.12,0,.16a1.31,1.31,0,0,1-1.4-.07,4.8,4.8,0,0,0-.7-.39c.09-.23.4-.21.63-.26.5.07.9.54,1.46.56Z" transform="translate(-5.01 -9.71)" style="fill:#fff"/><path d="M12.87,27.17c0,.14-.07.19-.1.3s-.21.07-.3,0a.29.29,0,1,1,.4-.33Z" transform="translate(-5.01 -9.71)" style="fill:#fff"/><path d="M14.4,27.28c.07.15,0,.29-.17.38s-.23,0-.33-.05-.24-.26-.09-.4.47-.13.59.07Z" transform="translate(-5.01 -9.71)" style="fill:#fff"/><path d="M34.51,28c0,.35-.61-.05-.53.41a2.54,2.54,0,0,0,.35,1,1.48,1.48,0,0,1,.06.89,1.45,1.45,0,0,1-.66.56c-.49-.05-1.22.25-1.45-.36a2.52,2.52,0,0,1-.28-.84s.11,0,.16-.08-.13-.18-.11-.3c.56-.1-.23-.6.25-.63.39.41,1,.28,1.38.73.09.07.15.17.25.22-.06-.42-.26-.83-.33-1.28a.58.58,0,0,1,.2-.59c.3-.23.54.1.71.29Z" transform="translate(-5.01 -9.71)" style="fill:#fff"/><path d="M15.94,27.91c.05.17-.09.28-.2.36s-.24-.1-.31-.19.07-.26.17-.35a.37.37,0,0,1,.34.18Z" transform="translate(-5.01 -9.71)" style="fill:#fff"/><path d="M26.66,28.08a2.43,2.43,0,0,1-.2,2c0,.14,0,.37-.16.35-.47-.64-.12-1.56.07-2.24,0-.17.24-.24.29-.07Z" transform="translate(-5.01 -9.71)" style="fill:#fff"/><path d="M41.55,28.41a2,2,0,0,1,0,1.63l-.13.14a3.68,3.68,0,0,1-.4-1.24,4.29,4.29,0,0,0,.2-.93c.25-.05.23.26.3.4Z" transform="translate(-5.01 -9.71)" style="fill:#fff"/><path d="M17.29,28.61c-.1.21-.4.26-.59.4a2.14,2.14,0,0,1-1.55.3,1.9,1.9,0,0,1,2-.83c0,.07.13,0,.16.13Z" transform="translate(-5.01 -9.71)" style="fill:#fff"/><path d="M10.14,29.24A4.54,4.54,0,0,1,11.34,31c.06.07.23.09.16.23s-.28-.1-.47-.07A1.92,1.92,0,0,1,10,29.31c0-.07.1-.07.17-.07Z" transform="translate(-5.01 -9.71)" style="fill:#fff"/><path d="M40.87,29.78c0,.17,0,.35-.16.4a.32.32,0,0,1-.4-.21c-.05-.12.06-.19.09-.28a.31.31,0,0,1,.47.09Z" transform="translate(-5.01 -9.71)" style="fill:#fff"/><path d="M48.21,30.71c0-.33.09-.65.12-1a.65.65,0,0,0,.07-.37c.42-.56,1.27-.39,1.93-.34a3.67,3.67,0,0,0,.87.2.62.62,0,0,1,.44-.09c.55-.3.19-.95.22-1.45l-.21-.53a2.83,2.83,0,0,1-.14-.35c-.1-.12-.17-.35-.27-.47a7,7,0,0,0-1.36-1.82,7.31,7.31,0,0,0-3.67-2.26c-1.37-.48-2.77.14-4,.57a1,1,0,0,1-.68-.73,3.5,3.5,0,0,1,.33-1.86,7.52,7.52,0,0,1,.47-1.17,12.25,12.25,0,0,0,.72-3,1.61,1.61,0,0,0-.94-1.39.93.93,0,0,0-1,.2,2.56,2.56,0,0,1-1.13,1c0,.3.33.11.45.21.38.07.82-.05,1.13.19a2.94,2.94,0,0,1-.73,1.81,13.63,13.63,0,0,0-1.58,2.73l-.07-.07L39.3,25a4.89,4.89,0,0,0,2.28,2.32c.56.46,1.26,1,2,.6.4-.12.44.44.63.66.21.65-.26,1.11-.3,1.7l-.45,1a12.63,12.63,0,0,1-1.79,3c-.26,0-.42.28-.68.29-.14.2-.41.06-.59.13-.54.22-1.3.08-1.67.59a.31.31,0,0,0,.14.09c1.06,0,2.24.09,3.37,0a.4.4,0,0,0,.28-.33c-.15-.3.06-.56.19-.79.09-.42.37-.68.49-1.08.37-.72.78-1.42,1.18-2.14l.54-.87a7,7,0,0,1,.54-1,2.29,2.29,0,0,0,.32-.47c0-.17-.07-.24-.18-.37.12-.12.31-.08.47-.12a1.9,1.9,0,0,1,1,1.16l.16.45.07.21,0,.58.07.54a12.76,12.76,0,0,1-.16,2.54c-.3,1-1.46.91-2.3,1.14-.21.14-.6.07-.6.42a15.35,15.35,0,0,0,3.26.07c.18-.07.21-.23.3-.38s.26-.42.19-.67,0-.63-.07-1a.47.47,0,0,0,0-.33c.14-.51.11-1.13.21-1.62l.07-.66Z" transform="translate(-5.01 -9.71)" style="fill:#fff"/><path d="M56.77,30a4.4,4.4,0,0,1-2.13,2c-.07,0-.14,0-.17-.06.59-.63.9-1.61,1.83-1.84a.56.56,0,0,1,.47-.06Z" transform="translate(-5.01 -9.71)" style="fill:#fff"/><path d="M9.29,30.88c-.08.07,0,.23-.17.25A.29.29,0,0,1,8.75,31,.31.31,0,0,1,9,30.59c.14.07.28.12.31.29Z" transform="translate(-5.01 -9.71)" style="fill:#fff"/><path d="M14.3,31.13c0,.16-.12.16-.21.19a1.89,1.89,0,0,1-2-.51c0-.07,0-.14.07-.15.71.17,1.55,0,2.14.47Z" transform="translate(-5.01 -9.71)" style="fill:#fff"/><path d="M10.25,30.9a.47.47,0,0,1,0,.26.37.37,0,0,1-.43.16.51.51,0,0,1-.23-.23.42.42,0,0,1,.3-.33.53.53,0,0,1,.33.14Z" transform="translate(-5.01 -9.71)" style="fill:#fff"/><path d="M26.54,31c0,.16-.1.26-.21.33a.33.33,0,0,1-.36-.14c0-.12,0-.3.12-.33s.4,0,.45.14Z" transform="translate(-5.01 -9.71)" style="fill:#fff"/><path d="M57.43,31.06c0,.17-.11.26-.23.37a.37.37,0,0,1-.33-.06c0-.08-.12-.15-.09-.28a.4.4,0,0,1,.4-.21,2,2,0,0,1,.25.18Z" transform="translate(-5.01 -9.71)" style="fill:#fff"/><path d="M58.57,31c.11.16,0,.28-.07.4a.24.24,0,0,1-.31.11c-.1-.11-.24-.16-.26-.32s.16-.24.26-.3.24.11.38.11Z" transform="translate(-5.01 -9.71)" style="fill:#fff"/><path d="M8.56,31.5c0,.12-.09.19-.12.29s-.17.11-.28.07a.48.48,0,0,1-.26-.28.49.49,0,0,1,.31-.35.46.46,0,0,1,.35.27Z" transform="translate(-5.01 -9.71)" style="fill:#fff"/><path d="M45.18,31.5a.42.42,0,0,1,0,.22c-.1.14-.24.27-.42.18s-.22-.21-.17-.37a.34.34,0,0,1,.57,0Z" transform="translate(-5.01 -9.71)" style="fill:#fff"/><path d="M11.36,31.76a.3.3,0,0,1-.24.26c-.16,0-.21-.12-.3-.19s0-.32.14-.4a.31.31,0,0,1,.4.33Z" transform="translate(-5.01 -9.71)" style="fill:#fff"/><path d="M9.69,31.79a.38.38,0,0,1-.17.39.41.41,0,0,1-.47-.25.51.51,0,0,1,.31-.4c.16,0,.25.18.33.26Z" transform="translate(-5.01 -9.71)" style="fill:#fff"/><path d="M46.33,31.76a.35.35,0,0,1-.19.42c-.21.07-.38-.11-.47-.25.09-.14.11-.33.31-.36a.41.41,0,0,1,.35.19Z" transform="translate(-5.01 -9.71)" style="fill:#fff"/><path d="M10.51,31.83c.05.12,0,.17-.09.26s-.14.11-.24.07S10,32,10,31.92a.36.36,0,0,1,.23-.34.33.33,0,0,1,.33.25Z" transform="translate(-5.01 -9.71)" style="fill:#fff"/><path d="M56.47,32a.52.52,0,0,1-.3.28c-.13,0-.22-.09-.33-.14s-.05-.23,0-.32a.35.35,0,0,1,.64.18Z" transform="translate(-5.01 -9.71)" style="fill:#fff"/><path d="M57.79,32a.46.46,0,0,1-.42.3c-.15-.07-.33-.2-.2-.41s.1-.14.2-.15a.33.33,0,0,1,.42.26Z" transform="translate(-5.01 -9.71)" style="fill:#fff"/><path d="M49.53,32.16c.09.23-.12.3-.26.4a.69.69,0,0,1-.33-.14.4.4,0,0,1,.24-.45.42.42,0,0,1,.35.19Z" transform="translate(-5.01 -9.71)" style="fill:#fff"/><path d="M44.75,32.37c.09,0,0,.16,0,.21s-.24.25-.4.14a.3.3,0,0,1-.17-.33.33.33,0,0,1,.54,0Z" transform="translate(-5.01 -9.71)" style="fill:#fff"/><path d="M45.72,32.49a.24.24,0,0,1-.14.29c-.12.12-.26,0-.38-.06a.29.29,0,0,1,0-.26.43.43,0,0,1,.23-.14c.12,0,.26,0,.31.17Z" transform="translate(-5.01 -9.71)" style="fill:#fff"/><path d="M16.21,32.51c.11.11,0,.23,0,.34a.34.34,0,0,1-.44.08c-.17-.07-.15-.3-.12-.44s.11-.15.25-.15a.53.53,0,0,1,.34.17Z" transform="translate(-5.01 -9.71)" style="fill:#fff"/><path d="M51.39,32.58c0,.18-.14.25-.26.28s-.31-.08-.4-.23.11-.17.14-.26c.24-.1.4.07.52.21Z" transform="translate(-5.01 -9.71)" style="fill:#fff"/><path d="M50.45,32.58c.07.18-.12.27-.19.35a.32.32,0,0,1-.38-.07c-.09,0-.09-.16-.09-.26s.16-.19.28-.23a.45.45,0,0,1,.38.21Z" transform="translate(-5.01 -9.71)" style="fill:#fff"/><path d="M58.3,32.79c0,.25-.28.12-.4.2a2.85,2.85,0,0,1-2.37-.16c0-.23.31-.14.45-.23.75-.47,1.52.1,2.26.14l.06,0Z" transform="translate(-5.01 -9.71)" style="fill:#fff"/><path d="M10.7,32.58l-.07.12a2.82,2.82,0,0,1-2.24.41L8.32,33a3.16,3.16,0,0,1,2.33-.47l0,0Z" transform="translate(-5.01 -9.71)" style="fill:#fff"/><path d="M53.17,32.7A.39.39,0,0,1,53,33a.35.35,0,0,1-.45-.19c0-.15.09-.29.23-.34s.33,0,.4.19Z" transform="translate(-5.01 -9.71)" style="fill:#fff"/><path d="M13.81,32.78c-.07.13,0,.28-.21.35a.37.37,0,0,1-.43-.23c-.05-.2.09-.25.17-.34s.37.06.47.22Z" transform="translate(-5.01 -9.71)" style="fill:#fff"/><path d="M12.58,32.86c.05.13-.05.2-.09.28a.32.32,0,0,1-.35.06c-.12-.11-.24-.23-.19-.42a1,1,0,0,1,.28-.2.41.41,0,0,1,.35.28Z" transform="translate(-5.01 -9.71)" style="fill:#fff"/><path d="M54.38,33.27a.36.36,0,0,1-.27.31.42.42,0,0,1-.34-.17.29.29,0,0,1,.07-.34s.16,0,.23-.08a.35.35,0,0,1,.31.28Z" transform="translate(-5.01 -9.71)" style="fill:#fff"/><path d="M11.29,33.07c.05.14-.07.2-.09.3a2.41,2.41,0,0,1-.38.75c-.33.41-.8.41-1.27.53l-.07-.14A4.58,4.58,0,0,1,11.24,33l0,0Z" transform="translate(-5.01 -9.71)" style="fill:#fff"/><path d="M53.51,33.46c0,.21-.14.24-.26.33a.41.41,0,0,1-.35-.21c0-.19.13-.26.23-.35a.36.36,0,0,1,.38.23Z" transform="translate(-5.01 -9.71)" style="fill:#fff"/><path d="M13.29,33.46s0,.07.05.09c0,.19-.15.24-.26.33a.45.45,0,0,1-.38-.18.29.29,0,0,1,.17-.4c.16,0,.37,0,.42.16Z" transform="translate(-5.01 -9.71)" style="fill:#fff"/><path d="M56.71,34c.18,0,.21-.22.4-.26a.44.44,0,0,1,.42.19c.07.21-.09.32-.23.41s-.38-.11-.36.12a.53.53,0,0,1,.24.35c0,.07-.15.05-.21,0a2.2,2.2,0,0,1-1.25-1.09c-.07-.16-.4-.28-.21-.42a1.63,1.63,0,0,1,1.2.68Z" transform="translate(-5.01 -9.71)" style="fill:#fff"/><path d="M58.38,33.44a.27.27,0,0,1,0,.33c-.09.18-.35.11-.51.09s-.17-.17-.14-.31a.53.53,0,0,1,.26-.23.45.45,0,0,1,.4.12Z" transform="translate(-5.01 -9.71)" style="fill:#fff"/><path d="M52.07,34.39a2.4,2.4,0,0,1,.38.7s-.12,0-.15,0c-.59-.33-1.36-.7-1.59-1.4-.05-.07-.19-.16-.17-.28a1.63,1.63,0,0,1,1.2.49c.12.18.26.26.33.46Z" transform="translate(-5.01 -9.71)" style="fill:#fff"/><path d="M12.32,33.72c.07.16-.07.28-.16.35a.39.39,0,0,1-.4-.14c-.12-.19.11-.35.25-.42s.22.12.31.21Z" transform="translate(-5.01 -9.71)" style="fill:#fff"/><path d="M54.24,34.12c0,.11-.12.18-.17.25s-.28.07-.4,0-.12-.23,0-.32.47,0,.59.12Z" transform="translate(-5.01 -9.71)" style="fill:#fff"/><path d="M58.57,34.37c.06.21-.1.35-.24.44a.47.47,0,0,1-.42-.16c-.08-.11,0-.21,0-.33a.44.44,0,0,1,.46-.13,1.54,1.54,0,0,1,.2.18Z" transform="translate(-5.01 -9.71)" style="fill:#fff"/><path d="M46.54,36.79c0,.21-.38.15-.54.31a3.68,3.68,0,0,1-1.82.26v-.1a2.55,2.55,0,0,1,2.36-.47Z" transform="translate(-5.01 -9.71)" style="fill:#fff"/><path d="M21.17,37.54a.35.35,0,0,1-.26.3.34.34,0,0,1-.3-.18c-.07-.21.11-.3.23-.38a.4.4,0,0,1,.33.26Z" transform="translate(-5.01 -9.71)" style="fill:#fff"/><path d="M46.24,37.73a.47.47,0,0,1-.26.4c-.15,0-.26-.05-.38-.12s0-.19-.05-.28a.37.37,0,0,1,.69,0Z" transform="translate(-5.01 -9.71)" style="fill:#fff"/><path d="M49.71,37.8a2.89,2.89,0,0,1-1.5.61h-.94l-.09-.07a2.89,2.89,0,0,1,2.53-.63v.1Z" transform="translate(-5.01 -9.71)" style="fill:#fff"/><path d="M16.4,38.22a.31.31,0,0,1-.59.18A.32.32,0,0,1,16,38c.19-.12.38.09.45.23Z" transform="translate(-5.01 -9.71)" style="fill:#fff"/><path d="M17.27,38.4c.06.08,0,.14-.07.23a.3.3,0,0,1-.33,0,.23.23,0,0,1-.1-.3c.05-.11.16-.09.21-.16a.45.45,0,0,1,.29.23Z" transform="translate(-5.01 -9.71)" style="fill:#fff"/><path d="M10.61,40.17c-.17.21-.45-.06-.64-.16-.61-.35-.59-1-1.2-1.44.07-.21.23,0,.35,0a2.08,2.08,0,0,0,.36.2c.59.33.73.89,1.13,1.42Z" transform="translate(-5.01 -9.71)" style="fill:#fff"/><path d="M61.3,33.37a1.36,1.36,0,0,0-1.3-.72,1.22,1.22,0,0,0-1,.72.86.86,0,0,0,.33,1,.25.25,0,0,0,.34-.08c.09-.23-.15-.23-.19-.41a.59.59,0,0,1,.19-.61c.18-.17.47-.09.68-.09a1.22,1.22,0,0,1,.52.51,1.35,1.35,0,0,1,0,.93,1.51,1.51,0,0,1-1.07.87c-1.45.21-17.29.14-17.29.14-1.86.18-4-.35-5.58.63a2.79,2.79,0,0,0-1.29,1.88,12.53,12.53,0,0,0-1.35,1.38l-.06,0c.09-.42.28-.79.37-1.21A7,7,0,0,0,35.08,37a9.62,9.62,0,0,1,2.31-2.9c.44-.58,1.2-.48,1.86-.48a4.54,4.54,0,0,0,2.42.35.13.13,0,0,0,0-.12c-.24-.23-.64-.31-.92-.54-.69-.33-1.35.1-2.08,0,0,0-.07,0-.06-.1a10,10,0,0,1,2.16-1.16,14.57,14.57,0,0,1,1.89-.75c.27,0,.51-.23.75-.07l.92-.25s.07.07.14.05a9.83,9.83,0,0,1,2.66,0l.13.1.83.21c.31,0,.45.41.78.42.18-.24-.19-.35-.28-.5a1.89,1.89,0,0,1,1.17.17l-.17.19c-.11.2,0,.34.2.41s.21-.06.3-.09,0-.32,0-.46a17.32,17.32,0,0,1,3.71,1.05,3,3,0,0,0,1,.34,4.18,4.18,0,0,0-1.32-.7c-.29-.18-.71-.2-.94-.44.06-.09.18-.05.23-.12a2.57,2.57,0,0,0,1.51-1c0-.11.23-.07.21-.21s-.42.05-.62,0c-.73.14-1,1-1.78,1.16-.88-.21-1.79-.42-2.68-.65a5.68,5.68,0,0,1-1.3-.28l-1-.09H45.46s-.07-.05-.05-.1c.63-.16,1.17-.53,1.79-.69l4.66-2.13a11.21,11.21,0,0,0,1.32-1.44.32.32,0,0,0-.19-.33.28.28,0,0,0-.35.07c-.2.15,0,.35,0,.54a2.69,2.69,0,0,1-.8.68c-.07,0-4.8,2.16-4.8,2.16a12.59,12.59,0,0,1-2.12.79l-1,.15a.65.65,0,0,1-.43.41,4.3,4.3,0,0,1-.8.22,17.88,17.88,0,0,0-6.4,3.59,1.91,1.91,0,0,0,.17-.73,1.36,1.36,0,0,0-.19-.77c0-.1-.17-.38-.12-.48l-.26.16a2.47,2.47,0,0,0-.14,1.49c0,.32.31.68.07,1A16.79,16.79,0,0,0,34,38.57c-.21,0-.31-.23-.4-.42a5.89,5.89,0,0,0,1.24-2.56c.12-.08,0-.31.15-.42,0-.28.16-.56,0-.78.11-.39-.51-.74-.11-1l-.33.15c-.75,1,.39,2.46-.47,3.4V37a2.85,2.85,0,0,1-.69.84c-.42-.17-.57-.65-.82-1a1.55,1.55,0,0,1-.15-1.63c.15-.5-.11-.94-.16-1.4l-.17-.1a2,2,0,0,0-.25,2c.17.31.19.75.45,1A5.85,5.85,0,0,0,33,38.1c.07.17-.1.21-.19.3-.19-.13-.16-.41-.33-.53a12.43,12.43,0,0,0-2.23-3.2c0-.16-.19-.3-.1-.48a1.29,1.29,0,0,0,.23-1.33c0-.08-.14-.19-.13-.28L30,32.37c0,.62-.36,1.16-.19,1.81v0A33.16,33.16,0,0,0,24,30.71l-.16.45a12.34,12.34,0,0,1,1.87.95,11.6,11.6,0,0,1,1.73.93,11.91,11.91,0,0,1,5,5.9c0,.19.2.4.07.6A8.81,8.81,0,0,0,31.2,38.2a2.55,2.55,0,0,0-1.32-1.94c-.26-.38-.82-.42-1.25-.54l-6.33,0c-5.15-.07-9.84.16-15,.07-.71-.07-1.58-.31-1.79-1.07a1.15,1.15,0,0,1,0-1,1.06,1.06,0,0,1,.89-.47c.28,0,.47.3.59.49s-.19.44-.28.63.09.21.21.16A.82.82,0,0,0,7.41,34c0-.13.07-.3,0-.39a1.16,1.16,0,0,0-.82-.72,1.46,1.46,0,0,0-1.18.41,1.44,1.44,0,0,0-.28,1.47A2.37,2.37,0,0,0,7,36.14l16.92.07a37.44,37.44,0,0,1,5.18.14,2,2,0,0,1,1.41,1.33s-.07,0-.12,0a7.49,7.49,0,0,0-4.94-1,6.39,6.39,0,0,0-1.95.4,1,1,0,0,1-.85-.28,2.88,2.88,0,0,0-2.52-.31s0,.1,0,.12c.85-.07,1.35.67,2.12.75.17,0,.31-.15.47,0a15.82,15.82,0,0,1-2.42,1.08c-.26,0-.4-.3-.61-.44-.33-.36-.94-.21-1.39-.24-.15,0-.29-.07-.4,0a1.47,1.47,0,0,0,.75.58c.43.19.94,0,1.34.24a1.85,1.85,0,0,1-.37.25c-.81.31-1.49,1-2.4,1A3.1,3.1,0,0,1,14.63,39a1.74,1.74,0,0,0-1.76-1s-.12,0-.1.12c.38.23.68.68,1.06,1s.71,0,.94.33a3.06,3.06,0,0,0,1.13.49,5.18,5.18,0,0,0,.9.25l-.12.07a15,15,0,0,1-5.18.5c-.52,0-1-.17-1.55-.15a1,1,0,0,0,.42.24,1.07,1.07,0,0,1-.47.14,2.71,2.71,0,0,0-.66.18,1.69,1.69,0,0,0-.75.17,3.4,3.4,0,0,1-1,.81c0,.07,0,.17.07.17.33-.14.75,0,1.08-.17.57-.06.9-.69,1.36-1a2.3,2.3,0,0,1,1.77-.21c.35.09,0,.23.07.46s.26.26.45.21a.34.34,0,0,1,.12-.09.39.39,0,0,0,0-.44c.24-.16.57,0,.83-.09.66,0,1.33-.15,2-.17.1,0,.23-.12.33,0-.05.14-.23.16-.16.35a.42.42,0,0,0,.35.26c.18-.07.33-.19.26-.42s-.17-.14-.26-.19c.37-.17.78-.23,1.15-.4a3,3,0,0,0,.73-.25c.23,0,.42-.22.62-.14a3.13,3.13,0,0,1-.36.84,4.17,4.17,0,0,0,0,3c.05,0,.07,0,.1,0A4.25,4.25,0,0,1,18.16,41C18.4,39.47,19.93,39,21,38.47l0,.07A5.5,5.5,0,0,0,20.42,41c0,.16-.07.32,0,.42a1.8,1.8,0,0,0,.64-.8c.13-.79-.33-1.77.47-2.35A12.12,12.12,0,0,1,26,36.93c.05,0,.18,0,.19.07a4.14,4.14,0,0,0-1,1.22,4,4,0,0,0-.29,3c.16.54-.31.84-.54,1.26-.11.15-.14.41-.24.58l.34,0A1.87,1.87,0,0,0,25,42a.45.45,0,0,0,.33.35c.12-.19-.11-.33-.13-.53.28-.15.4.2.63.27a4.29,4.29,0,0,0,1.06.24l.12-.12a2.16,2.16,0,0,0-1.81-.74,3.58,3.58,0,0,1-.31-2,3,3,0,0,1,.35-1.09,2.63,2.63,0,0,1,.49-.66,2.41,2.41,0,0,1,1.09-.6h.05s0,0,0,0c-.47.37-.52.88-.8,1.33A1.49,1.49,0,0,0,25.93,40c.11.23.06.58.3.73a3.59,3.59,0,0,0,.36-1.06c-.05-.58-.4-1.13-.07-1.69a1.48,1.48,0,0,1,.94-.77,5.54,5.54,0,0,1,2.63.77c.17.13.47.23.5.48a1.42,1.42,0,0,1-2.22,1.15,1.19,1.19,0,0,1-.28-1.07.73.73,0,0,1,.77-.28c.17.09.33.27.55.16a.22.22,0,0,0,.07-.28c-.19-.1-.26-.37-.52-.4a1.14,1.14,0,0,0-1,.19,1.26,1.26,0,0,0-.4,1.23,1.52,1.52,0,0,0,1.08,1.12,2,2,0,0,0,2.14-.74,2.21,2.21,0,0,0,.38-.75A4.51,4.51,0,0,1,33,41.11,3.74,3.74,0,0,1,33,42l.61,0a.61.61,0,0,1,.05-.42,5.27,5.27,0,0,1,1.79-2.87c.3-.18.23.22.3.35a2.35,2.35,0,0,0,1.51,1.33,1.91,1.91,0,0,0,1.88-.61c.23-.42.5-1,.12-1.48a1.2,1.2,0,0,0-1-.45,1.15,1.15,0,0,0-1,.65c0,.14,0,.29.1.37s.21,0,.26-.09c0-.27.26-.39.47-.53a.55.55,0,0,1,.56.11.88.88,0,0,1,.24.68,1,1,0,0,1-.57.82,1.77,1.77,0,0,1-1.67-.15,3.82,3.82,0,0,1-.49-.78c0-.28-.14-.52,0-.8a5.9,5.9,0,0,1,2.49-.88,1.8,1.8,0,0,1,.92.58c.8.82-.17,2,.38,2.91.21,0,.21-.32.3-.49a3.08,3.08,0,0,0-.23-1.93,3.62,3.62,0,0,0-.66-1,.39.39,0,0,1,.21,0,4.34,4.34,0,0,1,1.06.91,4.68,4.68,0,0,1,.68,2.88c-.14.52-.7.77-1.13,1a1.7,1.7,0,0,0-.47.56c.21.12.5,0,.71-.09s.53-.54.75-.73c0,0,0,.07,0,.1,0,.19-.09.46.08.51a5.66,5.66,0,0,0,.16-.89,1.69,1.69,0,0,1,.33.87c.16.32.42.74.83.79.11-.16,0-.31-.05-.45,0-.44-.42-.67-.66-1-.61-.84-.33-2.15-.8-3.09a3.63,3.63,0,0,0-.94-1.3l.07-.07a10.06,10.06,0,0,1,2.35.42c1,.47,2.35.37,2.8,1.61a4.53,4.53,0,0,0,1,1.89l.05,0a.68.68,0,0,0,0-.65c-.1-.88-.87-1.09-1.27-1.82l.06-.07a10.91,10.91,0,0,1,1.27.4,3.73,3.73,0,0,1,2.53,3.17,6.75,6.75,0,0,1-.64,3c0,.15-.3.3-.14.43.19-.14.23-.37.33-.53a4.87,4.87,0,0,0,.58-3.52c0-.23-.28-.4-.16-.63a.65.65,0,0,0,.29.16c.11-.07.27-.07.34-.2s.08-.22,0-.31a.48.48,0,0,0-.51-.12.79.79,0,0,0-.21.38,3.77,3.77,0,0,0-.62-.93l0,0c.78.26,1.5.65,2.3.86a1.16,1.16,0,0,0,.61.19,16.6,16.6,0,0,0,2.13.54c.53,0,1,.2,1.48.07v0l0,0c-.19-.25-.6,0-.83-.2a13.06,13.06,0,0,1-3.43-.85c0-.06.09,0,.14,0a.44.44,0,0,0,.28-.44.47.47,0,0,0-.4-.19.51.51,0,0,0-.26.3.43.43,0,0,0,.26.33s-.1,0-.15,0c-.54-.25-1.07-.47-1.59-.72-.19,0-.35-.19-.54-.23-.4-.19-.8-.38-1.2-.54a26.61,26.61,0,0,0-3.53-1.31l-.74-.21c-.44-.13-.87-.23-1.31-.35a6.58,6.58,0,0,0-4.75.4c-.2-.07-.33.26-.43.05a2.44,2.44,0,0,1,2.38-1.31c7-.07,13.51-.12,20.38-.23a2.19,2.19,0,0,0,2-1,1.73,1.73,0,0,0,.12-1.61ZM33.65,39.83a1.94,1.94,0,0,0-.19.62l-.07,0c.06-.26-.2-.42-.14-.7-.13-.21-.13-.47-.26-.7s.14-.4.26-.6c.25.11.34.34.51.55s-.12.52-.11.8Z" transform="translate(-5.01 -9.71)" style="fill:#fff"/><path d="M52.52,38.73c0,.05.11.07.07.16a3.62,3.62,0,0,1-2.33.73.55.55,0,0,1-.22.06c-.06,0-.07-.09,0-.13a2.66,2.66,0,0,1,2.52-.82Z" transform="translate(-5.01 -9.71)" style="fill:#fff"/><path d="M49.72,39c.07.25-.08.39-.28.47a.48.48,0,0,1-.38-.28c-.05-.14.07-.21.12-.29a.32.32,0,0,1,.54.1Z" transform="translate(-5.01 -9.71)" style="fill:#fff"/><path d="M16.67,39.05a.36.36,0,0,1-.09.36.35.35,0,0,1-.32.09c-.12,0-.19-.16-.22-.26a.37.37,0,0,1,.22-.33c.14,0,.3,0,.41.14Z" transform="translate(-5.01 -9.71)" style="fill:#fff"/><path d="M13.55,40.18v.13A1.37,1.37,0,0,1,12.42,40a2.27,2.27,0,0,0-.92-.87c0-.06-.1-.12,0-.16.87,0,1.39.7,2.05,1.17Z" transform="translate(-5.01 -9.71)" style="fill:#fff"/><path d="M55.17,39c-.41.59-.75,1.33-1.46,1.59-.13,0-.23.18-.34.05A3.22,3.22,0,0,1,54.92,39a.53.53,0,0,1,.25,0Z" transform="translate(-5.01 -9.71)" style="fill:#fff"/><path d="M17.67,39.24c0,.19-.12.23-.24.33s-.21-.09-.3-.19.09-.25.18-.33a.34.34,0,0,1,.36.19Z" transform="translate(-5.01 -9.71)" style="fill:#fff"/><path d="M57.36,39.34c-.16.23-.09.56-.25.81-.34.4-.64.86-1.2.94-.08-.17.13-.35.21-.5a2.52,2.52,0,0,1,1.15-1.35l.09.1Z" transform="translate(-5.01 -9.71)" style="fill:#fff"/><path d="M8.16,39.5a.35.35,0,0,1,0,.39.43.43,0,0,1-.4.07.33.33,0,0,1-.14-.42c.11-.16.42-.25.54,0Z" transform="translate(-5.01 -9.71)" style="fill:#fff"/><path d="M7.17,39.71c0,.09.07.16,0,.25a.45.45,0,0,1-.24.21.37.37,0,0,1-.4-.23.34.34,0,0,1,.17-.37.36.36,0,0,1,.42.14Z" transform="translate(-5.01 -9.71)" style="fill:#fff"/><path d="M9.22,39.82c0,.14.07.38-.14.42s-.38-.07-.52-.21a.4.4,0,0,1,.21-.35.47.47,0,0,1,.45.14Z" transform="translate(-5.01 -9.71)" style="fill:#fff"/><path d="M12.07,40c0,.13,0,.3-.12.34s-.24,0-.33,0-.22-.19-.12-.31a.78.78,0,0,1,.24-.2c.11.06.27,0,.33.14Z" transform="translate(-5.01 -9.71)" style="fill:#fff"/><path d="M59,40.17c-.06.12-.13.28-.26.28s-.32,0-.4-.2.08-.29.22-.35.4.07.44.27Z" transform="translate(-5.01 -9.71)" style="fill:#fff"/><path d="M55.84,40.25c0,.14-.14.25-.2.3a.41.41,0,0,1-.54-.26.45.45,0,0,1,.29-.32.46.46,0,0,1,.45.28Z" transform="translate(-5.01 -9.71)" style="fill:#fff"/><path d="M58,40.22a.38.38,0,0,1-.16.3.4.4,0,0,1-.41-.07c-.16-.14,0-.27.07-.37s.45-.07.5.14Z" transform="translate(-5.01 -9.71)" style="fill:#fff"/><path d="M7.71,40.52A.37.37,0,0,1,7.5,41a.38.38,0,0,1-.38-.24.32.32,0,0,1,.17-.37.39.39,0,0,1,.42.18Z" transform="translate(-5.01 -9.71)" style="fill:#fff"/><path d="M55,40.71a.37.37,0,0,1-.24.45c-.14,0-.23,0-.33-.12s-.16-.28,0-.37c.14-.26.49-.15.59,0Z" transform="translate(-5.01 -9.71)" style="fill:#fff"/><path d="M17.06,40.9c.07.19-.13.23-.19.33a.23.23,0,0,1-.26,0c-.08-.11-.19-.21-.14-.37s.13-.14.23-.18.26.13.36.23Z" transform="translate(-5.01 -9.71)" style="fill:#fff"/><path d="M58.71,41c0,.13-.07.18-.08.27a.52.52,0,0,1-.4.07c-.16-.09-.16-.23-.16-.39s.12-.16.24-.19a.4.4,0,0,1,.4.24Z" transform="translate(-5.01 -9.71)" style="fill:#fff"/><path d="M57.64,41.08c.06.21-.13.31-.27.36s-.17,0-.19.07a4.62,4.62,0,0,1,1.08.93v.14a2.32,2.32,0,0,1-1.72-.66c-.12-.09-.33-.09-.47-.21.23-.23.64-.14,1-.16.22-.25-.26-.42,0-.63.11,0,.17-.12.31-.09a.55.55,0,0,1,.27.25Z" transform="translate(-5.01 -9.71)" style="fill:#fff"/><path d="M50.52,41.09c0,.09-.07.2-.08.28a.34.34,0,0,1-.39.07c-.08-.12-.22-.22-.17-.4s.59-.21.64.05Z" transform="translate(-5.01 -9.71)" style="fill:#fff"/><path d="M11.64,41.71a.31.31,0,0,1-.61.07c0-.13.07-.2.09-.28.19-.16.54-.06.52.21Z" transform="translate(-5.01 -9.71)" style="fill:#fff"/><path d="M13.05,41.48c0,.24-.26.38-.35.63a1.79,1.79,0,0,1-1.39,1.16c-.07-.16.23-.35.29-.51a3.66,3.66,0,0,1,1.34-1.28Z" transform="translate(-5.01 -9.71)" style="fill:#fff"/><path d="M50.11,41.72a.47.47,0,0,1-.3.41c-.16,0-.28-.07-.37-.14s0-.28,0-.42.51,0,.65.15Z" transform="translate(-5.01 -9.71)" style="fill:#fff"/><path d="M51.18,41.85a.42.42,0,0,1-.31.38s-.12,0-.17,0a.38.38,0,0,1-.23-.32c.09-.09.12-.23.24-.24s.42,0,.47.21Z" transform="translate(-5.01 -9.71)" style="fill:#fff"/><path d="M15.74,41.83a.38.38,0,0,1-.26.37.35.35,0,0,1-.33-.21c0-.16.12-.27.21-.35s.26.08.38.19Z" transform="translate(-5.01 -9.71)" style="fill:#fff"/><path d="M16.94,41.9a.41.41,0,0,1-.33.3c-.12,0-.26-.07-.31-.21s.12-.27.24-.35.37.07.4.26Z" transform="translate(-5.01 -9.71)" style="fill:#fff"/><path d="M54.92,43.13c.09.07.25.15.21.28-.28.12-.5-.2-.76-.25a3.61,3.61,0,0,1-.91-1.4c.16-.16.33,0,.47.09a3.4,3.4,0,0,1,1,1.28Z" transform="translate(-5.01 -9.71)" style="fill:#fff"/><path d="M55.57,41.9a.45.45,0,0,1,0,.39c-.1.17-.33.14-.49.1s-.24-.24-.14-.4.21-.18.34-.23.2.09.33.14Z" transform="translate(-5.01 -9.71)" style="fill:#fff"/><path d="M18.54,42.36c0,.14.06.35-.12.43a.33.33,0,0,1-.42-.21c-.08-.21.11-.24.21-.35a.36.36,0,0,1,.33.13Z" transform="translate(-5.01 -9.71)" style="fill:#fff"/><path d="M51.13,43.49a2.55,2.55,0,0,1,.45,1.25c0,.12.09.24,0,.33H51.5a3.91,3.91,0,0,1-1.26-2.14c-.07,0-.08-.1-.07-.17.18-.16.3.16.47.21l.49.52Z" transform="translate(-5.01 -9.71)" style="fill:#fff"/><path d="M20.8,42.9s0,0,0,0a2.32,2.32,0,0,1-2.47.32.14.14,0,0,1,.09-.16A3.54,3.54,0,0,1,20,42.76l.83.14Z" transform="translate(-5.01 -9.71)" style="fill:#fff"/><path d="M16.84,43c-.59.36-1.13,1.08-1.86,1.26-.14,0-.23.24-.4.14a2.55,2.55,0,0,1,2.26-1.54V43Z" transform="translate(-5.01 -9.71)" style="fill:#fff"/><path d="M50.11,43.77c0,.14,0,.34-.14.37a.24.24,0,0,1-.33,0c-.16-.07-.16-.23-.16-.35s.17-.14.26-.19.28,0,.37.17Z" transform="translate(-5.01 -9.71)" style="fill:#fff"/><path d="M48.66,43.86a1,1,0,0,1-.62.46,2.69,2.69,0,0,1-1.66-.21c0-.14.2-.09.28-.18a4,4,0,0,1,1.78-.09c.05,0,.17-.05.22,0Z" transform="translate(-5.01 -9.71)" style="fill:#fff"/><path d="M16.84,44.37c-.05.07-.07.23-.21.28a.38.38,0,0,1-.35-.07c0-.11-.15-.19-.07-.32s.18-.15.28-.19a.37.37,0,0,1,.35.3Z" transform="translate(-5.01 -9.71)" style="fill:#fff"/><path d="M17.87,44.53c-.06.1-.11.26-.25.33a.42.42,0,0,1-.35-.12.43.43,0,0,1-.05-.35c0-.09.16-.11.25-.16s.33.16.4.3Z" transform="translate(-5.01 -9.71)" style="fill:#fff"/><path d="M49.77,44.7a.47.47,0,0,1-.12.34.3.3,0,0,1-.38.07c-.12,0-.16-.16-.21-.25s.07-.23.12-.35a.38.38,0,0,1,.59.19Z" transform="translate(-5.01 -9.71)" style="fill:#fff"/><path d="M50.54,44.67c0,.09.07.17,0,.24s-.17.32-.38.23S50,45,50,45s0-.44.21-.47.26.08.35.14Z" transform="translate(-5.01 -9.71)" style="fill:#fff"/><path d="M17.24,45.17a.49.49,0,0,1-.18.48c-.19,0-.43,0-.5-.19a.46.46,0,0,1,.21-.51.42.42,0,0,1,.47.22Z" transform="translate(-5.01 -9.71)" style="fill:#fff"/><path d="M18.23,45.11a1.58,1.58,0,0,1-.63,1.36c-.27.05-.55.32-.83.14v-.09a19.57,19.57,0,0,1,1.46-1.41Z" transform="translate(-5.01 -9.71)" style="fill:#fff"/><path d="M47,45.51c.07.1,0,.19-.1.28s-.3.07-.42,0a.26.26,0,0,1-.08-.35c0-.11.14-.16.22-.2a.48.48,0,0,1,.38.25Z" transform="translate(-5.01 -9.71)" style="fill:#fff"/><path d="M20,46.31c.24.41.1.95.24,1.39-.29,0-.41-.3-.61-.48a5.34,5.34,0,0,1-.5-1.83.08.08,0,0,1,.12,0,4.66,4.66,0,0,1,.66.74c0,.12.11.12.09.22Z" transform="translate(-5.01 -9.71)" style="fill:#fff"/><path d="M47.91,45.65c0,.14-.15.17-.24.26a.64.64,0,0,1-.33-.16c-.05-.17.09-.22.17-.31a.29.29,0,0,1,.4.21Z" transform="translate(-5.01 -9.71)" style="fill:#fff"/><path d="M50,47.21s0,.15-.1.12h-.07a2.09,2.09,0,0,1-.94-1.66l.1,0a2.16,2.16,0,0,1,1,1.56Z" transform="translate(-5.01 -9.71)" style="fill:#fff"/><path d="M48.68,46.65a.39.39,0,0,1-.16.33c-.19.05-.48,0-.52-.23s.17-.26.26-.35a.36.36,0,0,1,.42.25Z" transform="translate(-5.01 -9.71)" style="fill:#fff"/><path d="M47.53,47c-.24.65-.9,1-1.36,1.48-.08-.06-.05-.2,0-.27a2.42,2.42,0,0,1,1.34-1.57c.28,0,0,.22.05.36Z" transform="translate(-5.01 -9.71)" style="fill:#fff"/><path d="M48.84,47.54c0,.16-.16.23-.25.31a.47.47,0,0,1-.38-.19c0-.17.12-.23.23-.31a.36.36,0,0,1,.4.19Z" transform="translate(-5.01 -9.71)" style="fill:#fff"/><path d="M35.9,15.74a.44.44,0,0,1,0,.87H30.74a.44.44,0,0,1,0-.87Zm-3.65.75c.5,0,0-.61-.24-.61H31.5c-.5,0,0,.61.25.61Zm2.11,0c.51,0,0-.61-.24-.61h-.5c-.51,0,0,.61.24.61Zm1.56-.61h-.19c-.51,0-.08.61.19.61s.36-.61,0-.61Z" transform="translate(-5.01 -9.71)" style="fill:#fff"/><path d="M35.44,21.66l1,.38,1-.38L37,23.11l.77-.16-.26.88.26.84-.68-.18.3,1.56-1-.38-1,.38.41-1.56-.79.22.21-.88L35.06,23l.75.12-.37-1.45Zm1.46,2.61c.22,0,.24-.3.24-.56,0-.6-.47,0-.72-.57-.17.48-.66,0-.66.55,0,.35,0,.58.35.58Zm-1-.53c0,.22.31.07.53.07s.54.15.54-.07-.31-.21-.54-.21-.53-.12-.53.21Z" transform="translate(-5.01 -9.71)" style="fill:#fff"/><polygon points="28.13 14.09 28.13 13.9 27.96 13.87 28.09 13.73 28.01 13.59 28.18 13.61 28.29 13.43 28.39 13.6 28.56 13.59 28.48 13.73 28.61 13.87 28.44 13.9 28.44 14.09 28.29 13.97 28.13 14.09 28.13 14.09" style="fill:#fff"/><polygon points="27.36 15.07 27.36 14.89 27.2 14.85 27.33 14.72 27.25 14.57 27.42 14.59 27.52 14.41 27.62 14.59 27.79 14.57 27.71 14.72 27.84 14.85 27.68 14.89 27.68 15.07 27.52 14.95 27.36 15.07 27.36 15.07" style="fill:#fff"/><polygon points="28.66 14.94 28.66 14.76 28.5 14.73 28.63 14.59 28.55 14.45 28.72 14.46 28.82 14.29 28.92 14.46 29.09 14.45 29.01 14.59 29.14 14.73 28.98 14.76 28.98 14.94 28.82 14.83 28.66 14.94 28.66 14.94" style="fill:#fff"/><polygon points="28.82 15.68 28.82 15.57 28.72 15.56 28.8 15.48 28.75 15.4 28.85 15.41 28.9 15.31 28.96 15.41 29.06 15.4 29.01 15.48 29.09 15.56 28.99 15.57 28.99 15.68 28.9 15.61 28.82 15.68 28.82 15.68" style="fill:#fff"/><polygon points="27.61 16.52 27.61 16.21 27.33 16.15 27.55 15.92 27.41 15.67 27.7 15.7 27.88 15.39 28.05 15.69 28.34 15.67 28.21 15.92 28.43 16.15 28.14 16.21 28.14 16.52 27.88 16.32 27.61 16.52 27.61 16.52" style="fill:#fff"/><polygon points="28.22 0 28.84 1.51 30.39 1.05 29.6 2.47 30.92 3.41 29.33 3.67 29.43 5.3 28.22 4.21 27.02 5.3 27.12 3.67 25.53 3.41 26.85 2.47 26.06 1.05 27.61 1.51 28.22 0 28.22 0" style="fill:#fff"/><path d="M27.62,43.48c-.18.07-.25.12-.21.31l.22.93a.83.83,0,0,1-.06.6,1.13,1.13,0,0,1-.63.38,1.34,1.34,0,0,1-.74,0c-.18-.07-.29-.15-.37-.46l-.23-1c-.05-.24-.14-.23-.34-.2l0-.07,1.17-.28,0,.07c-.23.06-.34.09-.28.35l.23,1c0,.17.14.57.63.45a.57.57,0,0,0,.47-.78l-.21-.88c0-.18-.11-.26-.41-.2v-.08l.75-.18,0,.07Z" transform="translate(-5.01 -9.71)" style="fill:#fff"/><path d="M29.35,43.68a.75.75,0,0,0-.8-.39c-.18,0-.35.17-.31.36s.12.21.44.26l.55.1a.61.61,0,0,1,.5.45c.06.26-.09.66-.73.8a2.93,2.93,0,0,1-.61,0,.11.11,0,0,0-.08.12l-.1,0-.16-.72.1,0a.73.73,0,0,0,.85.46c.41-.09.37-.38.36-.42,0-.2-.22-.23-.47-.27l-.25,0c-.64-.11-.7-.36-.73-.49s0-.6.64-.74a3.26,3.26,0,0,1,.56,0c.08,0,.09-.06.09-.12l.11,0,.14.64-.1,0Z" transform="translate(-5.01 -9.71)" style="fill:#fff"/><path d="M31.64,44.82,30.38,45v-.08c.25,0,.34-.06.31-.3L30.54,43c-.24,0-.6.09-.63.57h-.1l0-.6,2.12-.2.07.59h-.11c-.11-.46-.48-.44-.72-.43l.15,1.56c0,.25.1.25.37.24v.07Z" transform="translate(-5.01 -9.71)" style="fill:#fff"/><path d="M34.59,44.82h-.72l-.72-1h-.09l0,.59c0,.23.08.24.31.28v.07l-1.2,0V44.7c.24,0,.32,0,.32-.27l0-1.31c0-.26-.11-.27-.31-.28v-.08l1.14,0c.25,0,1,0,1,.54s-.37.45-.57.5l.7.86a.19.19,0,0,0,.14.06v.07Zm-1.53-1c.46,0,.65-.06.66-.45a.37.37,0,0,0-.43-.43c-.19,0-.2,0-.22.12v.76Z" transform="translate(-5.01 -9.71)" style="fill:#fff"/><path d="M36.92,45.12,35.78,45v-.07c.22,0,.28,0,.3-.08a1.5,1.5,0,0,0-.12-.42l-.79-.1a2.07,2.07,0,0,0-.2.37c0,.11.15.14.27.16v.07l-.71-.09v-.07c.19,0,.25-.1.38-.3l1-1.52H36l.59,1.65c.12.34.16.44.33.46v.07Zm-1-.83-.26-.76-.42.68.68.08Z" transform="translate(-5.01 -9.71)" style="fill:#fff"/><path d="M39,45.54l-2-.37V45.1c.2,0,.31,0,.34-.15l.26-1.42c0-.19-.11-.23-.27-.26l0-.08,1.22.23,0,.07c-.24,0-.35-.05-.4.2l-.25,1.39c0,.14,0,.18.28.22a.87.87,0,0,0,1-.41h.1l-.26.64Z" transform="translate(-5.01 -9.71)" style="fill:#fff"/><path d="M40.32,45.84l-1.21-.25v-.08c.19,0,.33.05.37-.13L39.78,44c0-.2-.12-.24-.28-.28l0-.07,1.21.25V44c-.17,0-.34-.06-.38.13l-.29,1.41c0,.19.1.23.29.28l0,.07Z" transform="translate(-5.01 -9.71)" style="fill:#fff"/><path d="M42.79,46.16,41.65,46V46c.22,0,.29,0,.3-.09a1.44,1.44,0,0,0-.12-.41l-.8-.08a1.53,1.53,0,0,0-.19.36c0,.12.16.14.27.16V46l-.72-.07v-.07c.19,0,.25-.1.38-.31L41.73,44h.1l.63,1.64c.12.34.17.44.34.45v.08Zm-1-.81-.29-.76-.4.69.69.07Z" transform="translate(-5.01 -9.71)" style="fill:#fff"/><path d="M33.72,22.14c0-.72-.4-.05-.62-.65-.16.51-.65.08-.65.63a.44.44,0,0,0,.16.4v.21a.1.1,0,0,0,.1.1h.76a.1.1,0,0,0,.1-.1V22.5a.45.45,0,0,0,.15-.36Zm-.62.14c-.21,0-.49.14-.49-.11s.24-.27.45-.27.53-.08.53.27-.28.11-.49.11Z" transform="translate(-5.01 -9.71)" style="fill:#fff"/><path d="M39.94,30.92a.29.29,0,1,0,0-.58.29.29,0,1,0,0,.58Z" transform="translate(-5.01 -9.71)" style="fill:#fff"/><path d="M38.4,20.32a1.8,1.8,0,0,0-.15.31.16.16,0,1,0,.31,0l-.16-.31Z" transform="translate(-5.01 -9.71)" style="fill:#fff"/><path d="M27.9,20.32a1.8,1.8,0,0,0-.15.31.16.16,0,1,0,.31,0l-.16-.31Z" transform="translate(-5.01 -9.71)" style="fill:#fff"/><path d="M30.52,20.32a1.8,1.8,0,0,0-.15.31.16.16,0,1,0,.31,0l-.16-.31Z" transform="translate(-5.01 -9.71)" style="fill:#fff"/><path d="M33.15,20.32a1.8,1.8,0,0,0-.15.31.16.16,0,1,0,.31,0l-.16-.31Z" transform="translate(-5.01 -9.71)" style="fill:#fff"/><path d="M35.78,20.32a1.76,1.76,0,0,0-.16.31.16.16,0,1,0,.31,0l-.15-.31Z" transform="translate(-5.01 -9.71)" style="fill:#fff"/><path d="M27.9,23.93a1.76,1.76,0,0,1,.16.31.16.16,0,1,1-.31,0l.15-.31Z" transform="translate(-5.01 -9.71)" style="fill:#fff"/><path d="M27.9,27.43a1.76,1.76,0,0,1,.16.31.16.16,0,1,1-.31,0l.15-.31Z" transform="translate(-5.01 -9.71)" style="fill:#fff"/><path d="M28.32,30.2a1.76,1.76,0,0,1,.16.31.16.16,0,1,1-.31,0l.15-.31Z" transform="translate(-5.01 -9.71)" style="fill:#fff"/><path d="M30.53,31.68a1.8,1.8,0,0,1,.15.31.16.16,0,1,1-.31,0l.16-.31Z" transform="translate(-5.01 -9.71)" style="fill:#fff"/><path d="M38.54,23.93a1.76,1.76,0,0,0-.16.31.16.16,0,1,0,.31,0l-.15-.31Z" transform="translate(-5.01 -9.71)" style="fill:#fff"/><path d="M38.54,27.43a1.76,1.76,0,0,0-.16.31.16.16,0,1,0,.31,0l-.15-.31Z" transform="translate(-5.01 -9.71)" style="fill:#fff"/><path d="M38.12,30.2a1.76,1.76,0,0,0-.16.31.16.16,0,1,0,.31,0l-.15-.31Z" transform="translate(-5.01 -9.71)" style="fill:#fff"/><path d="M35.91,31.68a1.8,1.8,0,0,0-.15.31.16.16,0,1,0,.31,0l-.16-.31Z" transform="translate(-5.01 -9.71)" style="fill:#fff"/><path d="M33.23,33.24a1.8,1.8,0,0,0-.15.31.16.16,0,1,0,.31,0l-.16-.31Z" transform="translate(-5.01 -9.71)" style="fill:#fff"/><path d="M37.5,28c0,.05.12.06.22,0l.1-.29s-.11-.13-.18-.11c-.28.07-.58.1-.75.37a.57.57,0,0,0,.27.43c.1,0,.11.06.18.11a.11.11,0,0,1-.12.15c-.19-.2-.54.07-.69-.18.07-.25.2-.53,0-.76,0-.05.1-.1.05-.15-.08-.24-.33-.05-.48-.05a.62.62,0,0,0-.59.3.48.48,0,0,0,.13.24c.07,0,.1,0,.12.07l-.17.1a.4.4,0,0,1,.07.18c-.12.05-.23-.11-.28-.2s0-.36-.17-.39l-.14,0a.5.5,0,0,0-.07.28,1.07,1.07,0,0,0,.07.3,2.58,2.58,0,0,1,.62.61c-.15.3-.15.71-.49.88-.1.06-.1.16-.1.26l.08.07c.21-.12.63-.15.59-.51a1.5,1.5,0,0,1,.32-.44.35.35,0,0,1,.38.19A.64.64,0,0,1,36,30s0,.09,0,.14.24.06.34.05c.28-.19.4-.52.65-.62,0,.17-.33.22-.1.39.15,0,.34,0,.44-.19-.11-.28.4-.41.09-.66,0-.25.26-.35.24-.62s-.41-.27-.49-.51a.34.34,0,0,1,.34,0Z" transform="translate(-5.01 -9.71)" style="fill:#fff"/><path d="M25.44,31a.31.31,0,0,0,.33-.29.33.33,0,0,0-.66,0,.31.31,0,0,0,.33.29Z" transform="translate(-5.01 -9.71)" style="fill:#fff"/><path d="M8.41,41a.31.31,0,1,0,0-.62.31.31,0,1,0,0,.62Z" transform="translate(-5.01 -9.71)" style="fill:#fff"/><path d="M19.25,43.41h0l0,0h0v0h0v0h.06s0,0,0,0l0,0Zm-.05,0s0,0,0,0h0v0Z" transform="translate(-5.01 -9.71)" style="fill:#fff"/><path d="M19.29,43.37l0,0h0s0,0,0,0h0v0h0l0,0h0s0,0,0,0,0,0,0,0h0v0Z" transform="translate(-5.01 -9.71)" style="fill:#fff"/><path d="M19.4,43.35h0l0,0h0l0,0h0l0,0h0l0,0h0v0h0v0h0v0h0v0h0Z" transform="translate(-5.01 -9.71)" style="fill:#fff"/><path d="M19.4,43.41a0,0,0,0,0,0,0h0a0,0,0,0,1,0,0s0,0,0,0a0,0,0,0,1,0,0,0,0,0,0,1-.05,0Zm0,0h0v0h0s0,0,0,0Z" transform="translate(-5.01 -9.71)" style="fill:#fff"/><path d="M19.46,43.37h0v0s0,0,0,0h0v0h0Z" transform="translate(-5.01 -9.71)" style="fill:#fff"/><path d="M39.27,19.91H27.15v9.26a2.2,2.2,0,0,0,1,2l4.66,3a.54.54,0,0,0,.42.19.56.56,0,0,0,.38-.14l4.73-3a2.2,2.2,0,0,0,1-2V19.91Zm-.34,9.38a2.09,2.09,0,0,1-.78,1.62l-4.57,2.9h0a.52.52,0,0,1-.35.13.59.59,0,0,1-.36-.13l-4.56-2.9a2.09,2.09,0,0,1-.78-1.62V20.23H38.93v9.06Z" transform="translate(-5.01 -9.71)" style="fill:#fff"/><path d="M34.85,33.41l.14-.07a.46.46,0,0,0-.14.07Z" transform="translate(-5.01 -9.71)" style="fill:#fff"/><path d="M25.7,46.06l-1.14.14v-.08c.22,0,.28,0,.27-.14a1.56,1.56,0,0,0-.2-.38l-.8.09a2.91,2.91,0,0,0-.11.4c0,.11.19.1.31.1v.07l-.71.08v-.07c.19-.05.23-.15.31-.39l.59-1.71h.1l1,1.46c.2.3.27.4.44.37v.07Zm-1.15-.57-.44-.68-.25.76.69-.08Z" transform="translate(-5.01 -9.71)" style="fill:#fff"/><path d="M45.78,41.72a1.83,1.83,0,0,0-1.19-1.08,1.52,1.52,0,0,0-1.51.38c-.63.51-.19,1.35-.17,2,0,.14,0,.24-.13.31-2.52-.23-4.86-.86-7.37-1.12-.57-.1-1.15-.07-1.7-.19L33,42a29.15,29.15,0,0,0-6.38.72c-.44.14-.92.17-1.36.33-.31,0-.57.17-.87.09l-.57.13a.42.42,0,0,1-.19,0c-.28-.72.55-1.16.29-1.86a1.27,1.27,0,0,0-1.2-.72,1.46,1.46,0,0,0-1.39.72c-.4.88.11,1.79.26,2.65,0,.28.28.59,0,.82a2.32,2.32,0,0,0-2-.4c-.21.1-.59,0-.7.21a5,5,0,0,0,2.54.31c.11,0,.18,0,.26,0,.07.46-.08,1.07.19,1.47a1.81,1.81,0,0,0,1.34.58,21.14,21.14,0,0,0,4.49-.89c.23,0,.4-.14.64-.14a12.67,12.67,0,0,1,2.47-.34,4.56,4.56,0,0,0-.73,1.58c-.21.47.37.54.54.8a13.62,13.62,0,0,0-1.42.74,20.46,20.46,0,0,0-3.1.51c0,.23.36.16.4.38s-.21.18-.33.27,0,.12.1.14c.11-.13.33,0,.44-.16.35,0,.64-.11,1-.12a3.44,3.44,0,0,0,.89-.35c.36-.11.59-.35,1-.46s1-.17,1.47-.21v.11c-.4.64-.81,1.31-1.23,1.92a.2.2,0,0,0,.12.28.93.93,0,0,0,.68-.1c.36-.63.69-1.23,1-1.88a2.55,2.55,0,0,1,1-1.31c.07,0,.18-.14.24,0A8.85,8.85,0,0,0,32,49a1.48,1.48,0,0,0,.26,1.52c.21.18.52.13.8.14.68-.35,1.55.22,2.07-.45.31,0,.37.31.54.49s.61.39.9.18c0-.2-.22-.37-.33-.55-.21-.37-.47-.66-.66-1a4.44,4.44,0,0,1-.28-.64,6.28,6.28,0,0,0,.94.36,7.29,7.29,0,0,1,.94.28,3.27,3.27,0,0,0,.87.67c.44.21.92.24,1.38.42.17,0,.43.16.55,0a.63.63,0,0,0-.26-.19c-.05-.23.31-.11.44-.28a.28.28,0,0,0-.21-.14c-.25-.13-.86-.18-1-.27a3.57,3.57,0,0,1-.61-.19c-1,0-1.61-.94-2.45-1.3.19-.17.49-.31.61-.57a1,1,0,0,0,0-.93c-.16-.54-.85-.47-1.25-.77l.05,0a7.17,7.17,0,0,1,1.88.24,40.5,40.5,0,0,0,5,.89c1,0,2.15.06,2.62-.87.09-.54.19-1.09.28-1.63a8.31,8.31,0,0,0,.7-2.65ZM27,49.71l-.24-.23c.12-.15.38-.07.57-.17a3,3,0,0,1,1.48-.21,4.19,4.19,0,0,1-1.81.61Zm10.86-.28a7.59,7.59,0,0,0,1.86.44c-.06.24-.48,0-.43.35a4.07,4.07,0,0,1-1.57-.74s.07-.07.14,0ZM21.53,42a1.33,1.33,0,0,1,.42-.88,1.49,1.49,0,0,1,1.38,0,.68.68,0,0,1,.27.34.78.78,0,0,1-.26.79h-.17a2,2,0,0,1,.1-.79c0-.21-.19-.23-.33-.32a1,1,0,0,0-.78.18.81.81,0,0,0-.23.77c.13.19,0,.45.09.66l-.05.07a1.07,1.07,0,0,1-.44-.87Zm.82.5c.26.19.63.1.94.16a.65.65,0,0,1-.09.59c-.29-.07-.67,0-.83-.31,0-.13-.05-.3,0-.44Zm-.05-.59c.05-.14,0-.35.19-.39s.31,0,.33.11a3,3,0,0,1-.09.61c-.24,0-.36-.12-.43-.33Zm8.15,5.62A1.9,1.9,0,0,1,31,46a1,1,0,0,1,.75,0c-.45.12-1,.23-1.13.81,0,.22-.05.35.05.54s.63.19.87.45a.22.22,0,0,1-.16.21,6.34,6.34,0,0,1-.94-.47Zm-.62,1.21c.42-.17.85-.54,1.32-.38a2.43,2.43,0,0,1-1.32.38Zm1.65.18a12.78,12.78,0,0,1-.85,1.64c0,.09-.18.11-.28.12,0-.24.24-.43.35-.64a15.53,15.53,0,0,1,.89-1.44c.1.11-.11.18-.11.32Zm.44-1V48h0v-.09H32a.1.1,0,0,0-.07,0Zm-.16-.47a5.43,5.43,0,0,1-.84-.21c-.17-.18,0-.37,0-.56a.89.89,0,0,1,1.27-.23,1.89,1.89,0,0,1-.43,1Zm.38,0a2.89,2.89,0,0,1,.28-.74,1.5,1.5,0,0,1-.28.74ZM32.33,46c-.22,0-.35-.32-.59-.32a1.33,1.33,0,0,1,.66,0c.09.12,0,.22-.07.33Zm.21.52h0v-.19h0v.19Zm0,.81c0-.07,0-.16,0-.25s.18.07.21.13a.27.27,0,0,1-.26.12Zm.26-1.09a1.92,1.92,0,0,1,.26-.64,1,1,0,0,1,.47.07c0,.35.47.82,0,1.12-.16.07-.38.22-.56.07a.5.5,0,0,1-.17-.62Zm1.27-.49c0-.15.16,0,.23-.1l.53,0c-.27,0-.62.62-.76.07ZM35,46c-.21.07-.37.32-.57.37A.7.7,0,0,1,35,46Zm-.73,1.09v0h0v0Zm0,1.07s0,.08,0,.12l-.4-.32a.41.41,0,0,1,.43.2Zm-.47-.55a.15.15,0,0,1,.16,0Zm-.24-.26c.07-.11.16-.26.28-.26l0,0a.9.9,0,0,1-.31.21Zm-.4,0h-.07l.11-.1c.05,0,0,.07,0,.1Zm.05.67c.23-.25.44.14.52.33.27.39.94.74.68,1.26-.33.3-.85,0-1.21.25-.2,0-.53,0-.63-.16A9.9,9.9,0,0,1,33.2,48Zm-.48.33.08-.14a7.87,7.87,0,0,1-.57,1.26c-.11-.42.33-.75.49-1.12Zm.76,2.09c-.33,0-.83.21-1.15-.07,0-.14-.14-.21-.12-.35.28-.11.52.22.78,0a8.29,8.29,0,0,1,1.22,0c.19.06.49-.31.52.06-.14.57-.83.17-1.25.35Zm1-2.53V47.8h0v.05Zm.1,1.11c0,.17.2.24.09.4a.57.57,0,0,1-.09-.4Zm.49,1L35,50c-.08-.07-.05-.26,0-.36.1.08.19.21.12.33Zm.87.42s-.1,0-.14,0a9.54,9.54,0,0,1-1.09-2.1l.07,0c.41.68.74,1.43,1.16,2.1Zm.64-1.61a.07.07,0,0,0,0,.07,2,2,0,0,1-1.22-.54l0-.09a3.14,3.14,0,0,1,1.27.56Zm-.45-2.33c.21,0,.23.28.24.45a.91.91,0,0,1-.59.86.88.88,0,0,1-.67.07,1.11,1.11,0,0,0,1-.59l0-.79Zm-.38-.07a1.19,1.19,0,0,1,.16.77c-.18.33-.53.33-.84.4a.52.52,0,0,1-.4-.12c0-.07,0-.12-.07-.18,0-.22-.4-.45-.09-.64s.94-.86,1.24-.23Zm8.83-1.28c-.14.18,0,.46-.19.61,0,.32-.26.48-.49.6-2.06.45-4.1-.25-6.1-.6a21.28,21.28,0,0,0-8.92-.14c-1.34.25-2.64.56-3.93.93a5.53,5.53,0,0,1-2.43,0c-.63-.29-.37-1.1-.56-1.66a9.53,9.53,0,0,0-.14-1.21,1,1,0,0,1-.07-.45,7.84,7.84,0,0,1,.8.29,10.92,10.92,0,0,0,4.12-.43,30.9,30.9,0,0,1,4-.62,26.7,26.7,0,0,1,4.66.16c.49,0,.9.14,1.37.18,1,.12,1.88.38,2.87.45.16.05.35.05.52.09,1.57.24,3.32.68,4.82,0a12.44,12.44,0,0,1-.35,1.82ZM44.11,43c0,.28-.25.21-.39.32h-.41a.93.93,0,0,1-.06-.49,3.54,3.54,0,0,1,.86.17Zm-.2-.43c.2-.2,0-1.3.49-.58,0,.14,0,.35-.12.45s-.23.21-.37.13Zm1.41-.18a1,1,0,0,1-.74.6c0-.42.4-.72.26-1.2a1.07,1.07,0,0,0-1.1-.35c-.16.11-.09.28-.14.44l-.07.58c-.35,0-.36-.31-.47-.56A1,1,0,0,1,43.6,41a1.23,1.23,0,0,1,1,0c.23.06.49.16.57.37a1.1,1.1,0,0,1,.14,1Z" transform="translate(-5.01 -9.71)" style="fill:#fff"/><line x1="61.73" y1="26.15" x2="170.71" y2="26.15" style="fill:#fff"/><rect x="61.73" y="25.87" width="134.37" height="0.56" style="fill:#fff"/></svg>