<?xml version="1.0" encoding="UTF-8"?>
<svg version="1.1" viewBox="0 0 696.08 333.32" xmlns="http://www.w3.org/2000/svg" xmlns:cc="http://creativecommons.org/ns#" xmlns:dc="http://purl.org/dc/elements/1.1/" xmlns:rdf="http://www.w3.org/1999/02/22-rdf-syntax-ns#">
<metadata>
<rdf:RDF>
<cc:Work rdf:about="">
<dc:format>image/svg+xml</dc:format>
<dc:type rdf:resource="http://purl.org/dc/dcmitype/StillImage"/>
<dc:title/>
</cc:Work>
</rdf:RDF>
</metadata>
<g transform="translate(-2.9243 -4)">
<title>DTA logo</title>
<path d="m0 0v338h700v-338z" fill="none"/>
<path d="m194 4v110c-15.205-11.046-33.663-17.072-52-20.08-17.085-2.8025-36.559-1.0607-53 4.1934-48.407 15.47-83.722 59.761-85.961 110.89-2.7846 63.592 45.414 120.82 108.96 127.17 7.701 0.77 15.281 1.2799 23 0.25391 21.353-2.838 40.794-8.3768 59-20.424v16h59v-328zm82 0v328h59v-229h47v-53h-47v-46zm329 0v47h47v46h47v-93zm-127.53 88.574c-12.409-0.072002-25.173 1.8243-36.469 5.4043-48.852 15.483-83.717 60.796-85.961 112.02-3.052 69.71 60.474 135.84 131.96 126.42 21.412-2.819 40.741-8.3418 59-20.424v16h59v-235h-59v17c-15.3-11.115-33.551-17.054-52-20.08-5.3225-0.87309-10.891-1.313-16.531-1.3457zm5.3242 53.377c6.8549-0.0142 13.82 1.2977 20.207 3.3789 8.741 2.849 16.816 6.2448 24 12.135 24.621 20.183 31.448 54.968 18.203 83.535-10.918 23.551-33.391 35.677-58.203 38.715-38.477 4.71-75.041-32.983-72.906-70.715 1.997-35.293 27.39-61.629 61.906-66.572 2.2348-0.32 4.508-0.47182 6.793-0.47656zm-351.2 0.0527c6.5869 0.0169 13.134 1.2899 19.408 3.3262 10.509 3.412 19.861 8.0408 27.984 15.76 22.277 21.17 26.857 55.99 12.689 82.91-11.654 22.142-33.758 32.863-57.674 35.715-38.609 4.602-74.299-34.233-71.91-71.715 2.2638-35.526 28.365-60.984 62.91-65.576 2.1955-0.29175 4.3962-0.42555 6.5918-0.41992z" fill="#fff" fill-rule="evenodd"/>
</g>
</svg>