<?xml version="1.0" encoding="utf-8"?>
<!-- Generator: Adobe Illustrator 24.3.0, SVG Export Plug-In . SVG Version: 6.00 Build 0)  -->
<svg version="1.1" id="Layer_1" xmlns="http://www.w3.org/2000/svg" xmlns:xlink="http://www.w3.org/1999/xlink" x="0px" y="0px"
	 viewBox="0 0 1620.6 422.8" style="enable-background:new 0 0 1620.6 422.8;" xml:space="preserve">
<style type="text/css">
	.st0{fill:#FFFFFF;}
</style>
<path id="path3008_4_" class="st0" d="M131.7,422.4c-0.6-0.2-2-0.3-3-0.3c-3.3-0.1-7.7-3.5-10-7.8c-0.9-1.7-6-19.7-19.7-69.1
	c-10.2-36.7-18.6-67.4-18.9-68l-0.4-1.2H51.1c-31,0-31.9-0.1-36.7-2c-5.1-2.1-9.7-6.1-12.1-10.5c-1.4-2.6-1.5-3.1-1.9-7.7
	c-0.9-9.7-1-9.3,10.3-55.1C30.9,118.3,34,106,34.6,104.6c0.8-1.7,1.8-2.7,3.6-3.5c1.2-0.5,7.3-0.6,52.9-0.6
	c57.2,0,53.6-0.2,58.7,2.5c3.1,1.6,6.2,4.9,7.8,8.2c0.7,1.5,3.4,10.6,7,23.4c3.2,11.6,5.9,20.8,6.1,20.5s7-34.5,15.2-76.1
	c9.7-48.6,15.2-75.9,15.7-76.6c0.9-1.5,1.2-1.7,4.5-2.2c3.3-0.5,103.3-0.3,107.4,0.3c4,0.6,8.1,3.5,10.9,7.8
	c0.7,1,11.6,30,26.7,70.4l25.6,68.6l23.1,0.2c25.6,0.2,24.9,0.2,30.4,2.9c4.7,2.3,8.2,5.8,10.6,10.3c1.4,2.8,2.3,10.9,1.7,15.7
	c-0.2,1.8-0.4,3.9-0.4,4.8c0,1.5-21.2,87.6-22.2,89.9c-0.6,1.6-2.5,3.1-4.3,3.6c-0.9,0.3-18.5,0.4-52.5,0.4
	c-55.8,0-53.9,0.1-58.5-2.2c-3.2-1.6-5.2-3.3-7.2-6.2c-1.5-2.1-2.8-5.4-9.1-22.3c-4-10.9-7.5-19.8-7.6-19.8s-8.8,43.2-19.3,95.9
	c-10.5,52.8-19.3,96.8-19.6,97.9c-0.7,2.4-1.6,3.3-4.3,3.8C235.1,422.8,133.7,422.9,131.7,422.4L131.7,422.4z M224.2,408.2
	c0-0.1-18-65.2-40-144.7C148.3,134.2,144,118.9,143,117.9c-2.2-2.3,0.4-2.2-47.4-2.2c-41.6,0-43.9,0-43.7,0.7
	c0.1,0.4,18.1,65.5,40.1,144.7c21.9,79.2,40,144.4,40.2,144.9s0.9,1.2,1.6,1.6c1.2,0.7,2,0.8,45.8,0.8
	C204.1,408.4,224.2,408.3,224.2,408.2z M251.9,288.8c10.1-50.6,18.3-92.2,18.4-92.4c0.1-0.6-59.5-160.4-59.7-160.2
	c-0.1,0.1-7,34.6-15.4,76.7l-15.2,76.5l26.6,96c14.6,52.8,26.7,95.9,26.8,95.7C233.4,381,241.8,339.4,251.9,288.8L251.9,288.8z
	 M74.8,257.6C59.2,201,42.1,139.7,41.9,139.9c-0.4,0.5-27.3,109.4-27.3,110.7c0,2.9,2,6.4,4.6,8c3.2,2,3.5,2,31,2l25.5,0L74.8,257.6
	L74.8,257.6z M400.8,257.4c-0.5-1.4-20.8-55.7-44.9-120.6c-24.2-64.9-44.2-118.5-44.4-119.1c-0.3-0.6-1.2-1.5-2-2.1l-1.5-1.1
	l-44.2-0.1c-24.3-0.1-44.2,0-44.2,0.1c0,0.1,4,11,9,24.2c4.9,13.2,9.2,24.7,9.4,25.4c2.2,6.1,71,190.7,71.6,191.9
	c0.4,0.8,1,1.8,1.5,2.2c2,1.8,1.1,1.7,47.2,1.8l43.5,0L400.8,257.4z M428.1,173c0.1-3.5-2.2-6.9-5.7-8.8l-1.7-0.9l-19-0.1l-19-0.1
	l3.9,10.4c2.1,5.7,8.6,23.2,14.5,38.9l10.6,28.5l8.3-33.1C424.3,189.6,428,174,428.1,173L428.1,173z"/>
<path class="st0" d="M502.4,296.1V172.9H535v21.7h1.4c2.6-7.2,6.8-12.9,12.8-17.1c6-4.2,13.2-6.3,21.5-6.3c8.4,0,15.6,2.1,21.6,6.3
	c5.9,4.2,9.9,9.9,11.9,17h1.3c2.5-7.1,7.1-12.7,13.7-17c6.6-4.3,14.4-6.4,23.5-6.4c11.5,0,20.8,3.6,28,10.9
	c7.2,7.3,10.8,17.6,10.8,31v82.9h-34.1v-76.1c0-6.8-1.8-12-5.5-15.4c-3.6-3.4-8.2-5.1-13.6-5.1c-6.2,0-11,2-14.5,5.9
	c-3.5,3.9-5.2,9.1-5.2,15.5v75.2h-33.1v-76.8c0-6-1.7-10.9-5.2-14.4c-3.4-3.6-8-5.4-13.6-5.4c-3.8,0-7.2,0.9-10.2,2.8
	c-3,1.9-5.4,4.5-7.2,7.9c-1.8,3.4-2.6,7.4-2.6,11.9v74H502.4z"/>
<path class="st0" d="M741.2,298.4c-7.9,0-14.9-1.4-21-4.1c-6.1-2.8-11-6.8-14.6-12.3c-3.6-5.4-5.3-12.2-5.3-20.3
	c0-6.8,1.3-12.6,3.8-17.2c2.5-4.7,5.9-8.4,10.3-11.2c4.3-2.8,9.3-5,14.8-6.4c5.5-1.4,11.3-2.5,17.4-3c7.2-0.7,12.9-1.5,17.3-2.1
	c4.4-0.7,7.6-1.7,9.5-3c2-1.3,3-3.3,3-5.9v-0.5c0-5.1-1.6-9-4.8-11.8c-3.2-2.8-7.7-4.2-13.5-4.2c-6.1,0-11,1.4-14.7,4.1
	c-3.6,2.7-6,6.1-7.2,10.1l-31.6-2.6c1.6-7.5,4.8-14,9.5-19.5c4.7-5.5,10.8-9.7,18.2-12.7c7.5-3,16.1-4.5,25.9-4.5
	c6.8,0,13.4,0.8,19.7,2.4c6.3,1.6,11.9,4.1,16.8,7.5c4.9,3.4,8.8,7.7,11.6,13c2.8,5.3,4.3,11.6,4.3,18.9v83.1h-32.4V279h-1
	c-2,3.9-4.6,7.2-7.9,10.1c-3.3,2.9-7.3,5.2-12,6.8C752.7,297.6,747.3,298.4,741.2,298.4z M751,274.8c5,0,9.5-1,13.3-3
	c3.8-2,6.9-4.7,9.1-8.1c2.2-3.4,3.3-7.3,3.3-11.6v-13.1c-1.1,0.7-2.5,1.3-4.4,1.9c-1.8,0.6-3.9,1.1-6.2,1.5
	c-2.3,0.5-4.6,0.9-6.9,1.2c-2.3,0.3-4.4,0.7-6.3,0.9c-4,0.6-7.5,1.5-10.5,2.8c-3,1.3-5.3,3-7,5.2c-1.7,2.2-2.5,4.9-2.5,8.1
	c0,4.7,1.7,8.2,5.1,10.6C741.5,273.6,745.8,274.8,751,274.8z"/>
<path class="st0" d="M890.6,298.5c-12.6,0-23.5-2.7-32.5-8.1c-9.1-5.4-16-12.8-20.9-22.4c-4.8-9.6-7.3-20.6-7.3-33
	c0-12.6,2.4-23.7,7.3-33.2c4.9-9.5,11.9-17,20.9-22.4c9-5.4,19.8-8.1,32.2-8.1c10.7,0,20.2,2,28.2,5.9c8.1,3.9,14.5,9.4,19.2,16.4
	c4.7,7.1,7.3,15.3,7.8,24.9h-32.2c-0.9-6.1-3.3-11.1-7.2-14.9c-3.9-3.8-8.9-5.7-15.2-5.7c-5.3,0-9.9,1.4-13.8,4.3
	c-3.9,2.9-7,7-9.2,12.5c-2.2,5.5-3.3,12.1-3.3,19.8c0,7.9,1.1,14.5,3.2,20.1c2.2,5.5,5.2,9.7,9.2,12.6c4,2.9,8.6,4.3,13.9,4.3
	c3.9,0,7.4-0.8,10.5-2.4c3.1-1.6,5.7-3.9,7.8-7c2.1-3.1,3.4-6.8,4.1-11.1h32.2c-0.5,9.4-3.1,17.7-7.7,24.8
	c-4.6,7.1-10.9,12.7-18.9,16.7C911,296.5,901.5,298.5,890.6,298.5z"/>
<path class="st0" d="M965.3,296.1V172.9h33.1v21.5h1.3c2.2-7.6,6-13.4,11.3-17.4s11.4-5.9,18.3-5.9c1.7,0,3.6,0.1,5.5,0.3
	c2,0.2,3.7,0.5,5.2,0.9v30.3c-1.6-0.5-3.8-0.9-6.7-1.3c-2.8-0.4-5.4-0.6-7.8-0.6c-5,0-9.5,1.1-13.4,3.2c-3.9,2.2-7,5.2-9.3,9
	c-2.3,3.8-3.4,8.3-3.4,13.3v69.7H965.3z"/>
<path class="st0" d="M1105.3,298.5c-12.5,0-23.2-2.7-32.3-8c-9.1-5.3-16.1-12.8-21-22.3c-4.9-9.5-7.4-20.6-7.4-33.2
	c0-12.7,2.5-23.9,7.4-33.4c4.9-9.5,11.9-17,21-22.3c9.1-5.3,19.8-8,32.3-8c12.5,0,23.2,2.7,32.3,8c9.1,5.3,16.1,12.8,21,22.3
	c4.9,9.5,7.4,20.7,7.4,33.4c0,12.6-2.5,23.7-7.4,33.2c-4.9,9.5-11.9,17-21,22.3C1128.5,295.8,1117.7,298.5,1105.3,298.5z
	 M1105.4,272c5.7,0,10.4-1.6,14.2-4.9c3.8-3.2,6.7-7.7,8.6-13.3c2-5.6,2.9-12,2.9-19.2c0-7.2-1-13.6-2.9-19.2
	c-2-5.6-4.8-10.1-8.6-13.3c-3.8-3.3-8.5-4.9-14.2-4.9c-5.7,0-10.5,1.6-14.4,4.9c-3.9,3.3-6.8,7.7-8.7,13.3c-2,5.6-2.9,12-2.9,19.2
	c0,7.2,1,13.6,2.9,19.2c2,5.6,4.9,10,8.7,13.3C1094.9,270.4,1099.7,272,1105.4,272z"/>
<path class="st0" d="M1288.5,208l-31.3,1.9c-0.5-2.7-1.7-5.1-3.4-7.3c-1.8-2.2-4.1-3.9-6.9-5.2c-2.9-1.3-6.3-2-10.2-2
	c-5.3,0-9.8,1.1-13.4,3.3c-3.6,2.2-5.5,5.2-5.5,8.9c0,2.9,1.2,5.4,3.5,7.5c2.4,2,6.4,3.7,12.1,4.9l22.3,4.5
	c12,2.5,20.9,6.4,26.8,11.9c5.9,5.5,8.8,12.6,8.8,21.5c0,8.1-2.4,15.2-7.1,21.3c-4.7,6.1-11.2,10.8-19.4,14.2
	c-8.2,3.4-17.7,5.1-28.4,5.1c-16.3,0-29.3-3.4-38.9-10.2c-9.7-6.8-15.3-16.1-17-27.9l33.6-1.8c1,5,3.5,8.8,7.4,11.3
	c3.9,2.6,8.9,3.9,15,3.9c6,0,10.8-1.2,14.5-3.5c3.7-2.3,5.5-5.3,5.6-9c-0.1-3.1-1.4-5.7-3.9-7.7c-2.6-2-6.5-3.5-11.9-4.6l-21.3-4.3
	c-12-2.4-21-6.6-26.8-12.5c-5.9-5.9-8.8-13.5-8.8-22.7c0-7.9,2.2-14.7,6.5-20.5c4.3-5.7,10.4-10.1,18.2-13.2
	c7.8-3.1,17-4.7,27.6-4.7c15.6,0,27.8,3.3,36.8,9.9C1281.7,187.7,1287,196.7,1288.5,208z"/>
<path class="st0" d="M1327.8,157c-5.1,0-9.4-1.7-13.1-5.1c-3.6-3.4-5.5-7.5-5.5-12.2c0-4.7,1.8-8.8,5.5-12.2c3.6-3.4,8-5.1,13-5.1
	c5.1,0,9.5,1.7,13.1,5.1c3.6,3.4,5.4,7.4,5.4,12.2c0,4.8-1.8,8.8-5.4,12.2C1337.2,155.3,1332.9,157,1327.8,157z M1310.6,296.1V172.9
	h34.2v123.2H1310.6z"/>
<path class="st0" d="M1403.9,224.8v71.2h-34.2V172.9h32.6v21.7h1.4c2.7-7.2,7.3-12.8,13.7-17c6.4-4.2,14.2-6.3,23.3-6.3
	c8.6,0,16,1.9,22.4,5.6c6.4,3.7,11.3,9.1,14.8,16c3.5,6.9,5.3,15.2,5.3,24.7v78.4h-34.2v-72.3c0.1-7.5-1.9-13.4-5.8-17.7
	c-3.9-4.3-9.3-6.4-16.1-6.4c-4.6,0-8.7,1-12.2,3c-3.5,2-6.2,4.9-8.2,8.6C1405,215,1404,219.5,1403.9,224.8z"/>
<path class="st0" d="M1564.1,298.5c-12.7,0-23.6-2.6-32.7-7.7c-9.1-5.2-16.1-12.5-21.1-22c-4.9-9.5-7.4-20.7-7.4-33.7
	c0-12.7,2.5-23.8,7.4-33.4c4.9-9.6,11.9-17,20.8-22.4c9-5.3,19.5-8,31.6-8c8.1,0,15.7,1.3,22.7,3.9c7,2.6,13.2,6.5,18.4,11.7
	c5.3,5.2,9.4,11.7,12.3,19.5c2.9,7.8,4.4,17,4.4,27.5v9.4h-104V222h71.9c0-4.9-1.1-9.3-3.2-13.1c-2.1-3.8-5.1-6.8-8.9-8.9
	s-8.1-3.2-13.1-3.2c-5.2,0-9.8,1.2-13.8,3.6c-4,2.4-7.1,5.6-9.3,9.5c-2.2,4-3.4,8.4-3.4,13.3v20.1c0,6.1,1.1,11.4,3.4,15.8
	c2.3,4.4,5.5,7.9,9.7,10.3c4.2,2.4,9.1,3.6,14.8,3.6c3.8,0,7.3-0.5,10.4-1.6c3.2-1.1,5.9-2.7,8.1-4.8c2.2-2.1,4-4.8,5.1-7.9
	l31.6,2.1c-1.6,7.6-4.9,14.2-9.8,19.9c-4.9,5.6-11.3,10-19.1,13.2C1583.2,296.9,1574.2,298.5,1564.1,298.5z"/>
</svg>
