<?xml version="1.0" encoding="utf-8"?>
<!-- Generator: Adobe Illustrator 27.0.0, SVG Export Plug-In . SVG Version: 6.00 Build 0)  -->
<svg version="1.1" id="Layer_1" xmlns="http://www.w3.org/2000/svg" xmlns:xlink="http://www.w3.org/1999/xlink" x="0px" y="0px"
	 viewBox="0 0 1102.1 809.2" style="enable-background:new 0 0 1102.1 809.2;" xml:space="preserve">
<style type="text/css">
	.st0{fill:#FFFFFF;}
</style>
<g>
	<path class="st0" d="M98.2,100.2c0,15.5-11,25.7-24.5,25.7c-7.4,0-14.3-3.2-17.5-8.9v31.5h-9.1V75.6h9.1v7.7
		c3.2-5.6,10.4-8.9,17.4-8.9C87.1,74.3,98.2,84.7,98.2,100.2z M89,100.3c0-9.8-7.1-17.3-16.2-17.3c-8.7,0-16.6,6.8-16.6,17.3
		c0,10.6,8.6,17,16.6,17C81.8,117.3,89,110.1,89,100.3z"/>
	<path class="st0" d="M107.6,100c0-15.5,11.6-25.7,25.6-25.7c14,0,25.7,10.2,25.7,25.7s-11.8,25.8-25.7,25.8
		C119.2,125.9,107.6,115.6,107.6,100z M149.8,100c0-10.1-7.6-17.1-16.6-17.1c-8.9,0-16.4,7-16.4,17.1c0,10.2,7.5,17.2,16.4,17.2
		C142.2,117.3,149.8,110.2,149.8,100z"/>
	<path class="st0" d="M233.1,75.6h9.9l-18.3,49h-7.7l-13.5-36.4l-13,36.4H183l-18.7-49h9.9l12.5,34.9l12.5-34.9h8.9l12.6,34.9
		L233.1,75.6z"/>
	<path class="st0" d="M297.8,104h-39.9c1.4,8.7,7.7,13.2,16.1,13.2c6,0,11.5-2.7,14.3-7.7l7.9,3.2c-4.2,8.5-13,13.1-22.5,13.1
		c-14,0-25.2-10.4-25.2-25.9s11.2-25.6,25.2-25.6S298,84.4,298,99.9C298,101.3,297.9,102.7,297.8,104z M288.9,96.2
		c-1.2-8.4-7.1-13.2-15.2-13.2c-8.3,0-14.2,4.4-15.6,13.2H288.9z"/>
	<path class="st0" d="M342,76.2l-1.5,8.6c-2.6-1.3-5.2-1.7-7.1-1.7c-9.8,0-13.6,10.6-13.6,23.5v17.9h-9.2v-49h9.2v11.1
		c2.5-8.6,7.2-12.4,13.8-12.4C337,74.3,340.6,75.3,342,76.2z"/>
	<path class="st0" d="M395.6,104h-39.9c1.4,8.7,7.7,13.2,16.1,13.2c6,0,11.4-2.7,14.3-7.7l7.9,3.2c-4.2,8.5-13,13.1-22.5,13.1
		c-14,0-25.2-10.4-25.2-25.9s11.2-25.6,25.2-25.6s24.4,10.1,24.4,25.6C395.8,101.3,395.7,102.7,395.6,104z M386.7,96.2
		c-1.2-8.4-7.1-13.2-15.2-13.2c-8.3,0-14.2,4.4-15.6,13.2H386.7z"/>
	<path class="st0" d="M447,48.9h9.1v75.7H447v-7.7c-3.2,5.6-10.4,8.9-17.4,8.9c-13.4,0-24.6-10.4-24.6-25.8
		c0-15.5,11-25.7,24.5-25.7c7.4,0,14.3,3.2,17.5,8.9L447,48.9L447,48.9z M447,99.9c0-10.6-8.6-17-16.7-17c-8.9,0-16.1,7.1-16.1,17
		c0,9.8,7.1,17.3,16.1,17.3C439.2,117.3,447,110.4,447,99.9z"/>
	<path class="st0" d="M549.8,100c0,15.4-11.1,25.8-24.6,25.8c-7,0-14.2-3.4-17.4-8.9v7.7h-9.1V48.9h9.1v34.3
		c3.2-5.8,10.2-8.9,17.5-8.9C538.8,74.3,549.8,84.5,549.8,100z M540.6,99.9c0-9.9-7.1-17-16.2-17c-8,0-16.6,6.4-16.6,17
		c0,10.5,7.9,17.3,16.6,17.3C533.4,117.3,540.6,109.7,540.6,99.9z"/>
	<path class="st0" d="M594.8,75.6h9.9l-30.4,72.9h-9.7l10.3-25.3l-19.7-47.6h9.9l14.8,36.1L594.8,75.6z"/>
</g>
<g>
	<g>
		<g>
			<path class="st0" d="M659.5,336.1c-38.7,0-74.3,16.9-96.8,45.2V248.6h-31.5v340.5h31.5v-40.2c9.1,11.4,20.3,20.9,33.3,28.5
				c19.2,11,41.1,16.8,63.5,16.8c34.1,0,65.9-13.2,89.9-37.2c24-24.2,37.4-57,37.4-92s-13.2-67.6-37.4-91.8
				C725.4,349.3,693.6,336.1,659.5,336.1 M562.7,466.7c0-27.6,10.2-52.5,28.7-70.6c17.9-17.3,41.7-26.8,67-26.8
				c25.1,0,48.8,9.9,66.6,27.6c17.9,17.9,27.7,41.9,27.7,67.8c0,25.7-9.9,49.9-27.7,68c-17.7,17.9-41.3,27.9-66.6,27.9
				c-25.7,0-49.5-9.3-67.4-26.4C572.7,516.8,562.7,492.8,562.7,466.7"/>
			<path class="st0" d="M1012.1,371.2c-22-22.7-52.9-35-87.1-35c-34.4,0-66.1,12.5-88.8,35c-23.8,23.6-36.3,55.8-36.3,93.3
				c0,37,12.8,70.6,36.3,94.2c22.9,22.9,54.4,35.6,88.8,35.6c46.4,0,86.8-22.5,108.2-60.1l3-5.4l-29.6-14.7l-2.8,4.7
				c-16,26.4-45.4,42.3-78.4,42.3c-49.7,0-84.7-31.5-90.7-80.8H1045l0.7-4.8c0.6-3.5,0.6-7.4,0.6-10.6
				C1046.5,426.7,1034.6,394.5,1012.1,371.2 M925,369.6c24,0,45.1,7.8,60.7,22.9c14.7,14,23.8,33.5,26.4,56.4H834.9
				C841.8,399.7,875.8,369.6,925,369.6"/>
			<path class="st0" d="M241.9,532.5c-18.1,18.1-42.1,27.9-67.6,27.9l0,0c-25.5,0-49.5-9.9-67.6-27.9
				c-18.1-18.1-27.9-42.1-27.9-67.6s9.9-49.5,27.9-67.6c18.1-18.1,42.1-27.9,67.6-27.9l0,0c25.5,0,49.5,9.9,67.6,27.9l67.6,67.6
				L289.4,485l23.5,23.5l43.6-43.6l-91-91c-50.1-50.1-131.8-50.1-181.9,0s-50.1,131.8,0,181.9c24.2,24.2,56.6,37.6,90.8,37.6l0,0
				c34.4,0,66.6-13.4,90.8-37.6l7.6-7.6l-23.5-23.5L241.9,532.5z"/>
			<path class="st0" d="M298.3,373.7l-8.6,7.4l22.9,23.8l8.6-7.4l0.2-0.2c37.2-37.2,97.7-37.2,135.2,0
				c18.1,18.1,27.9,42.1,27.9,67.6s-9.9,49.5-27.9,67.6c-18.1,18.1-42.1,27.9-67.6,27.9l0,0c-25.5,0-49.5-9.9-67.6-27.9l-67.6-67.6
				l19.4-19.4l-23.5-23.5l-42.8,42.8l91,91c24.2,24.2,56.6,37.6,90.8,37.6l0,0c34.4,0,66.6-13.4,90.8-37.6
				c50.1-50.1,50.1-131.8,0-181.9C429.8,323.8,348.4,323.8,298.3,373.7"/>
		</g>
	</g>
</g>
<g>
	<path class="st0" d="M55.9,717.5c-3.2-1.5-5.6-3.7-7.4-6.5c-1.7-2.8-2.6-6-2.6-9.7s0.9-6.9,2.8-9.7c1.9-2.6,4.5-4.7,8-6.1
		c3.5-1.3,7.6-2,12.3-2h14.7v-2.8c0-3.2-0.9-5.4-2.8-7.3c-1.9-1.7-4.7-2.6-8.6-2.6c-3.4,0-6.1,0.6-8.2,1.9s-3.9,3.2-5.4,5.8
		L47,671.3c2.6-4.5,6-7.6,10.1-9.9c4.1-2.2,9.5-3.4,15.8-3.4c8.4,0,14.7,1.9,19,5.6c4.3,3.7,6.3,8.9,6.3,16v16.4
		c0,2.2,0.2,4.3,0.4,6.3c0.2,1.9,0.6,4.3,1.1,7.1l1.7,8l-14.5,2l-1.7-7.6c-2.6,2.8-5.2,4.7-8,6c-2.8,1.3-6.3,1.9-10.6,1.9
		C62.8,719.7,59.1,719,55.9,717.5z M63.2,706c1.7,1.3,3.9,1.9,7.1,1.9c4.1,0,7.4-0.9,9.9-2.8c2.4-1.9,3.7-4.7,3.7-8.6V694h-13
		c-6.7,0-10.1,2.2-10.1,6.7C60.6,703,61.5,704.7,63.2,706z"/>
	<path class="st0" d="M144.6,636.2h54v14.5h-38.4v21.8h31.3v14.3h-31.3v31.6h-15.5v-82.3H144.6z"/>
	<path class="st0" d="M220,716.8c-4.1-1.9-7.3-4.8-9.5-8.6c-2.2-3.9-3.4-8.6-3.4-14.1v-34.3h14.7v32c0,4.5,1.1,8,3.2,10.4
		c2,2.4,5,3.7,8.9,3.7c3.9,0,6.9-1.3,8.9-3.7c2-2.4,3.2-6,3.2-10.4v-32h14.7V694c0,5.6-1.1,10.2-3.4,14.1c-2.2,3.9-5.4,6.7-9.5,8.6
		c-4.1,1.9-8.7,3-14.1,3C228.7,719.7,223.9,718.8,220,716.8z"/>
	<path class="st0" d="M259.6,746.7l1.5-11.7h4.5c3.4,0,6-0.9,7.6-2.8c1.7-1.9,2.4-4.7,2.4-8.6v-63.9h14.7v65c0,8-1.7,14-5.2,17.9
		c-3.5,4.1-8.7,6-15.6,6C265.6,748.8,262.2,748,259.6,746.7z M275.2,635c0.7-1.3,1.9-2.4,3.2-3.2s2.8-1.1,4.5-1.1
		c1.7,0,3.2,0.4,4.5,1.1c1.3,0.7,2.4,1.9,3.2,3.2s1.1,2.8,1.1,4.5c0,2.6-0.9,4.7-2.6,6.3c-1.7,1.7-3.9,2.4-6.3,2.4
		c-2.6,0-4.7-0.7-6.3-2.4c-1.7-1.7-2.4-3.7-2.4-6.3C274.1,637.8,274.5,636.3,275.2,635z"/>
	<path class="st0" d="M305.2,635c0.7-1.3,1.9-2.4,3.2-3.2s2.8-1.1,4.5-1.1c1.7,0,3.2,0.4,4.5,1.1c1.3,0.7,2.4,1.9,3.2,3.2
		c0.7,1.3,1.1,2.8,1.1,4.5c0,2.6-0.9,4.7-2.6,6.3s-3.9,2.4-6.3,2.4c-2.6,0-4.7-0.7-6.3-2.4c-1.7-1.7-2.4-3.7-2.4-6.3
		C304.1,637.8,304.5,636.3,305.2,635z M305.6,659.8h14.7v58.6h-14.7V659.8z"/>
	<path class="st0" d="M347.1,713.8c-3.5-3.5-5.2-8.6-5.2-15.1v-25.5H330V660h11.9v-18.2h14.7V660h17.1v13.2h-17.1v22.7
		c0,6.3,3.2,9.3,9.7,9.3h6.3l1.3,11.7c-1.7,0.6-3.7,1.1-5.8,1.5c-2,0.4-4.1,0.6-6.1,0.6C355.7,719,350.6,717.3,347.1,713.8z"/>
	<path class="st0" d="M393.5,717.3c-4.1-1.7-7.8-4.1-11.2-7.6l8.6-9.3c2.6,2.4,5.4,4.3,8.2,5.6c2.8,1.3,5.6,1.9,8.6,1.9
		c2.6,0,4.5-0.6,6-1.5c1.3-0.9,2-2.2,2-3.9c0-2.4-1.5-4.1-4.7-5l-12.5-3.9c-8.9-2.8-13.4-8.2-13.4-16.6c0-3.7,0.9-7.1,2.6-9.9
		c1.7-2.8,4.3-5,7.6-6.5c3.4-1.5,7.4-2.2,12.1-2.2c4.8,0,9.3,0.7,13.2,2.2c3.9,1.5,7.3,3.7,9.7,6.7l-8.9,8.7
		c-1.9-1.7-4.1-3.2-6.5-4.3c-2.4-1.1-4.8-1.7-7.4-1.7c-2.4,0-4.3,0.4-5.6,1.3c-1.3,0.9-1.9,2-1.9,3.5c0,2.4,1.7,4.1,4.8,5l11.9,3.7
		c4.7,1.5,8.2,3.5,10.4,6.3c2.2,2.8,3.4,6.1,3.4,10.6c0,6.1-2,10.8-6.1,14c-4.1,3.2-9.9,4.8-17.1,4.8
		C402.2,719.7,397.6,719,393.5,717.3z"/>
	<path class="st0" d="M454.7,716.8c-4.1-1.9-7.3-4.8-9.5-8.6c-2.2-3.9-3.4-8.6-3.4-14.1v-34.3h14.7v32c0,4.5,1.1,8,3.2,10.4
		c2,2.4,5,3.7,8.9,3.7c3.9,0,6.9-1.3,8.9-3.7c2-2.4,3.2-6,3.2-10.4v-32h14.7V694c0,5.6-1.1,10.2-3.4,14.1c-2.2,3.9-5.4,6.7-9.5,8.6
		c-4.1,1.9-8.7,3-14.1,3C463.5,719.7,458.8,718.8,454.7,716.8z"/>
	<path class="st0" d="M551.1,715.6c-4.8-2.8-8.6-6.5-11.2-11.2s-4.1-9.9-4.1-15.5c0-5.6,1.3-10.8,4.1-15.5
		c2.6-4.7,6.3-8.4,11.2-11.2s10.2-4.1,16.2-4.1s11.2,1.3,15.6,3.9c4.5,2.6,7.8,6.1,10.1,10.6l-11.9,7.3c-1.5-2.6-3.5-4.7-5.6-6
		c-2.2-1.3-5-2-8.2-2c-3.2,0-6,0.7-8.6,2.2c-2.4,1.5-4.3,3.5-5.8,6.1c-1.3,2.6-2,5.4-2,8.6s0.7,6,2,8.6c1.3,2.6,3.4,4.7,5.8,6.1
		c2.4,1.5,5.2,2.2,8.6,2.2s6-0.6,8-1.9c2.2-1.3,4.1-3.2,5.6-5.8l11.9,7.3c-2.2,4.3-5.6,7.8-10.1,10.2c-4.5,2.6-9.5,3.7-15.5,3.7
		C561.4,719.7,556,718.4,551.1,715.6z"/>
	<path class="st0" d="M617,715.6c-4.8-2.8-8.6-6.5-11.4-11.2s-4.1-9.9-4.1-15.5c0-5.6,1.3-10.8,4.1-15.5c2.8-4.7,6.5-8.4,11.4-11.2
		c4.8-2.8,10.2-4.1,16.2-4.1s11.4,1.3,16.2,4.1s8.6,6.5,11.4,11.2c2.8,4.7,4.1,9.9,4.1,15.5c0,5.6-1.3,10.8-4.1,15.5
		c-2.8,4.7-6.5,8.4-11.4,11.2s-10.2,4.1-16.2,4.1S621.9,718.4,617,715.6z M618.7,697.6c1.5,2.6,3.4,4.7,6,6.1
		c2.4,1.5,5.4,2.2,8.6,2.2s6-0.7,8.6-2.2c2.6-1.5,4.5-3.5,6-6.1c1.5-2.6,2-5.4,2-8.6s-0.7-6-2-8.6c-1.5-2.6-3.4-4.7-6-6.1
		c-2.6-1.5-5.4-2.2-8.6-2.2s-6,0.7-8.6,2.2c-2.4,1.5-4.5,3.5-6,6.1s-2,5.4-2,8.6S617.4,695,618.7,697.6z"/>
	<path class="st0" d="M677,659.8h14.7v7.1c2-2.8,4.7-4.8,7.4-6.3c3-1.5,6.1-2,9.9-2c4.1,0,7.8,0.7,11,2.4c3.2,1.7,5.6,4.3,7.3,7.6
		c2.6-3.4,5.6-6,8.7-7.6c3.4-1.7,6.9-2.4,11-2.4c6.7,0,11.9,2,15.8,6c3.9,4.1,5.8,10.1,5.8,18.2v35.7h-14.7v-33c0-4.3-0.9-7.4-3-9.9
		c-2-2.2-4.8-3.4-8.4-3.4c-3.9,0-6.9,1.1-8.9,3.5c-2.2,2.4-3.4,5.8-3.4,10.4v32.2h-14.7v-33c0-4.3-0.9-7.4-3-9.9
		c-2-2.2-4.8-3.4-8.4-3.4c-3.9,0-6.9,1.1-8.9,3.5c-2.2,2.4-3.4,5.8-3.4,10.4v32.2h-14.7v-58.6H677z"/>
	<path class="st0" d="M783.5,676.5c-0.4-1.9-0.7-4.5-1.5-7.6l-1.7-8l14.7-2.6l1.9,9.3c4.7-6.3,11.4-9.5,19.9-9.5
		c5.8,0,11,1.3,15.3,4.1c4.5,2.8,7.8,6.5,10.1,11.2c2.4,4.7,3.5,9.9,3.5,15.3c0,5.8-1.3,11-3.7,15.6c-2.4,4.7-6,8.4-10.4,11.2
		c-4.5,2.8-9.5,4.1-15.3,4.1c-3.7,0-6.9-0.6-9.7-1.9c-2.8-1.3-5.6-3.2-8.2-5.6v35.7h-14.7v-65.9
		C783.9,680.5,783.9,678.4,783.5,676.5z M800.4,697.8c1.3,2.6,3.2,4.7,5.8,6.1c2.4,1.5,5.2,2.2,8.4,2.2s6-0.7,8.6-2.2
		c2.4-1.5,4.5-3.5,5.8-6.1c1.3-2.6,2-5.6,2-8.7s-0.7-6.1-2-8.7c-1.3-2.6-3.4-4.7-5.8-6.1s-5.4-2.2-8.6-2.2s-6,0.7-8.4,2.2
		c-2.4,1.5-4.3,3.5-5.8,6.3c-1.3,2.6-2,5.6-2,8.7C798.4,692.4,799.1,695.2,800.4,697.8z"/>
	<path class="st0" d="M864.8,717.5c-3.2-1.5-5.6-3.7-7.4-6.5c-1.7-2.8-2.6-6-2.6-9.7s0.9-6.9,2.8-9.7c1.9-2.6,4.5-4.7,8-6.1
		c3.5-1.3,7.6-2,12.3-2h14.7v-2.8c0-3.2-0.9-5.4-2.8-7.3c-1.9-1.7-4.7-2.6-8.6-2.6c-3.4,0-6.1,0.6-8.2,1.9c-2,1.3-3.9,3.2-5.4,5.8
		l-11.7-7.1c2.6-4.5,6-7.6,10.1-9.9c4.1-2.2,9.5-3.4,15.8-3.4c8.4,0,14.7,1.9,19,5.6c4.3,3.7,6.3,8.9,6.3,16v16.4
		c0,2.2,0.2,4.3,0.4,6.3c0.2,1.9,0.6,4.3,1.1,7.1l1.7,8l-14.5,2l-1.7-7.6c-2.6,2.8-5.2,4.7-8,6c-2.8,1.3-6.3,1.9-10.6,1.9
		C871.7,719.7,868,719,864.8,717.5z M872.1,706c1.7,1.3,3.9,1.9,7.1,1.9c4.1,0,7.4-0.9,9.9-2.8c2.4-1.9,3.7-4.7,3.7-8.6V694h-13
		c-6.7,0-10.1,2.2-10.1,6.7C869.7,703,870.4,704.7,872.1,706z"/>
	<path class="st0" d="M922.5,659.8h14.7v7.1c1.9-2.6,4.5-4.7,7.4-6.1s6.3-2.2,10.2-2.2c6.9,0,12.3,2,16.4,6.1c4.1,4.1,6,10.2,6,18.6
		v35.4h-14.7v-32.4c0-4.5-1.1-7.8-3.2-10.2c-2-2.4-5-3.5-8.9-3.5c-4.1,0-7.3,1.3-9.5,3.7c-2.4,2.4-3.5,6-3.5,10.6v31.8h-14.7v-58.8
		H922.5z"/>
	<path class="st0" d="M986.6,747.1l1.5-11.7h3.2c4.1,0,7.4-0.7,10.1-2c2.6-1.3,4.5-3.5,5.8-6.7l1.9-4.5l-24.2-62.4h16l15.5,42.3
		l15.6-42.3h15.3l-27.2,71.3c-2.4,6.3-5.4,10.8-9.3,13.6c-3.9,2.8-8.6,4.1-14.3,4.1C992.5,748.8,989.4,748.2,986.6,747.1z"/>
</g>
</svg>
