<?xml version="1.0" encoding="utf-8"?>
<!-- Generator: Adobe Illustrator 25.3.1, SVG Export Plug-In . SVG Version: 6.00 Build 0)  -->
<svg version="1.1" id="Layer_1" xmlns="http://www.w3.org/2000/svg" xmlns:xlink="http://www.w3.org/1999/xlink" x="0px" y="0px"
	 viewBox="0 0 612 315" style="enable-background:new 0 0 612 315;" xml:space="preserve">
<style type="text/css">
	.st0{fill:#fff;}
</style>
<g>
	<g>
		<g>
			<path class="st0" d="M370.1,80.5c-20.8,0-39.9,9.1-52,24.3V33.5h-16.9v182.9h16.9v-21.6c4.9,6.1,10.9,11.2,17.9,15.3
				c10.3,5.9,22.1,9,34.1,9c18.3,0,35.4-7.1,48.3-20c12.9-13,20.1-30.6,20.1-49.4c0-18.8-7.1-36.3-20.1-49.3
				C405.5,87.6,388.4,80.5,370.1,80.5 M318.1,150.7c0-14.8,5.5-28.2,15.4-37.9c9.6-9.3,22.4-14.4,36-14.4c13.5,0,26.2,5.3,35.8,14.8
				c9.6,9.6,14.9,22.5,14.9,36.4c0,13.8-5.3,26.8-14.9,36.5c-9.5,9.6-22.2,15-35.8,15c-13.8,0-26.6-5-36.2-14.2
				C323.5,177.6,318.1,164.7,318.1,150.7"/>
			<path class="st0" d="M559.5,99.4c-11.8-12.2-28.4-18.8-46.8-18.8c-18.5,0-35.5,6.7-47.7,18.8c-12.8,12.7-19.5,30-19.5,50.1
				c0,19.9,6.9,37.9,19.5,50.6c12.3,12.3,29.2,19.1,47.7,19.1c24.9,0,46.6-12.1,58.1-32.3l1.6-2.9l-15.9-7.9l-1.5,2.5
				c-8.6,14.2-24.4,22.7-42.1,22.7c-26.7,0-45.5-16.9-48.7-43.4h113l0.4-2.6c0.3-1.9,0.3-4,0.3-5.7
				C578,129.2,571.6,111.9,559.5,99.4 M512.7,98.5c12.9,0,24.2,4.2,32.6,12.3c7.9,7.5,12.8,18,14.2,30.3h-95.2
				C468,114.7,486.3,98.5,512.7,98.5"/>
			<path class="st0" d="M145.8,186c-9.7,9.7-22.6,15-36.3,15h0c-13.7,0-26.6-5.3-36.3-15c-9.7-9.7-15-22.6-15-36.3s5.3-26.6,15-36.3
				c9.7-9.7,22.6-15,36.3-15h0c13.7,0,26.6,5.3,36.3,15l36.3,36.3l-10.8,10.8l12.6,12.6l23.4-23.4l-48.9-48.9
				c-26.9-26.9-70.8-26.9-97.7,0c-26.9,26.9-26.9,70.8,0,97.7c13,13,30.4,20.2,48.8,20.2h0c18.5,0,35.8-7.2,48.8-20.2l4.1-4.1
				l-12.6-12.6L145.8,186z"/>
			<path class="st0" d="M176.1,100.7l-4.6,4l12.3,12.8l4.6-4l0.1-0.1c20-20,52.5-20,72.6,0c9.7,9.7,15,22.6,15,36.3
				c0,13.7-5.3,26.6-15,36.3c-9.7,9.7-22.6,15-36.3,15h0c-13.7,0-26.6-5.3-36.3-15l-36.3-36.3l10.4-10.4l-12.6-12.6l-23,23
				l48.9,48.9c13,13,30.4,20.2,48.8,20.2h0c18.5,0,35.8-7.2,48.8-20.2c26.9-26.9,26.9-70.8,0-97.7C246.7,73.9,203,73.9,176.1,100.7"
				/>
		</g>
	</g>
</g>
<g>
	<path class="st0" d="M45.9,285.4c-1.7-0.8-3-2-4-3.5c-0.9-1.5-1.4-3.2-1.4-5.2c0-2,0.5-3.7,1.5-5.2c1-1.4,2.4-2.5,4.3-3.3
		c1.9-0.7,4.1-1.1,6.6-1.1h7.9v-1.5c0-1.7-0.5-2.9-1.5-3.9c-1-0.9-2.5-1.4-4.6-1.4c-1.8,0-3.3,0.3-4.4,1c-1.1,0.7-2.1,1.7-2.9,3.1
		l-6.3-3.8c1.4-2.4,3.2-4.1,5.4-5.3c2.2-1.2,5.1-1.8,8.5-1.8c4.5,0,7.9,1,10.2,3c2.3,2,3.4,4.8,3.4,8.6v8.8c0,1.2,0.1,2.3,0.2,3.4
		c0.1,1,0.3,2.3,0.6,3.8l0.9,4.3l-7.8,1.1l-0.9-4.1c-1.4,1.5-2.8,2.5-4.3,3.2c-1.5,0.7-3.4,1-5.7,1
		C49.6,286.6,47.6,286.2,45.9,285.4z M49.8,279.2c0.9,0.7,2.1,1,3.8,1c2.2,0,4-0.5,5.3-1.5c1.3-1,2-2.5,2-4.6v-1.3h-7
		c-3.6,0-5.4,1.2-5.4,3.6C48.4,277.6,48.9,278.5,49.8,279.2z"/>
	<path class="st0" d="M93.5,241.7h29v7.8h-20.6v11.7h16.8v7.7h-16.8v17h-8.3V241.7z"/>
	<path class="st0" d="M134,285c-2.2-1-3.9-2.6-5.1-4.6c-1.2-2.1-1.8-4.6-1.8-7.6v-18.4h7.9v17.2c0,2.4,0.6,4.3,1.7,5.6
		c1.1,1.3,2.7,2,4.8,2s3.7-0.7,4.8-2c1.1-1.3,1.7-3.2,1.7-5.6v-17.2h7.9v18.4c0,3-0.6,5.5-1.8,7.6c-1.2,2.1-2.9,3.6-5.1,4.6
		c-2.2,1-4.7,1.6-7.6,1.6C138.7,286.6,136.1,286.1,134,285z"/>
	<path class="st0" d="M155.3,301.1l0.8-6.3h2.4c1.8,0,3.2-0.5,4.1-1.5c0.9-1,1.3-2.5,1.3-4.6v-34.3h7.9v34.9c0,4.3-0.9,7.5-2.8,9.6
		c-1.9,2.2-4.7,3.2-8.4,3.2C158.5,302.2,156.7,301.8,155.3,301.1z M163.7,241.1c0.4-0.7,1-1.3,1.7-1.7c0.7-0.4,1.5-0.6,2.4-0.6
		c0.9,0,1.7,0.2,2.4,0.6c0.7,0.4,1.3,1,1.7,1.7c0.4,0.7,0.6,1.5,0.6,2.4c0,1.4-0.5,2.5-1.4,3.4c-0.9,0.9-2.1,1.3-3.4,1.3
		c-1.4,0-2.5-0.4-3.4-1.3c-0.9-0.9-1.3-2-1.3-3.4C163.1,242.6,163.3,241.8,163.7,241.1z"/>
	<path class="st0" d="M179.8,241.1c0.4-0.7,1-1.3,1.7-1.7c0.7-0.4,1.5-0.6,2.4-0.6c0.9,0,1.7,0.2,2.4,0.6c0.7,0.4,1.3,1,1.7,1.7
		c0.4,0.7,0.6,1.5,0.6,2.4c0,1.4-0.5,2.5-1.4,3.4c-0.9,0.9-2.1,1.3-3.4,1.3c-1.4,0-2.5-0.4-3.4-1.3c-0.9-0.9-1.3-2-1.3-3.4
		C179.2,242.6,179.4,241.8,179.8,241.1z M180,254.4h7.9v31.5H180V254.4z"/>
	<path class="st0" d="M202.3,283.4c-1.9-1.9-2.8-4.6-2.8-8.1v-13.7h-6.4v-7.1h6.4v-9.8h7.9v9.8h9.2v7.1h-9.2v12.2c0,3.4,1.7,5,5.2,5
		h3.4l0.7,6.3c-0.9,0.3-2,0.6-3.1,0.8c-1.1,0.2-2.2,0.3-3.3,0.3C206.9,286.2,204.2,285.3,202.3,283.4z"/>
	<path class="st0" d="M227.2,285.3c-2.2-0.9-4.2-2.2-6-4.1l4.6-5c1.4,1.3,2.9,2.3,4.4,3c1.5,0.7,3,1,4.6,1c1.4,0,2.4-0.3,3.2-0.8
		c0.7-0.5,1.1-1.2,1.1-2.1c0-1.3-0.8-2.2-2.5-2.7l-6.7-2.1c-4.8-1.5-7.2-4.4-7.2-8.9c0-2,0.5-3.8,1.4-5.3c0.9-1.5,2.3-2.7,4.1-3.5
		c1.8-0.8,4-1.2,6.5-1.2c2.6,0,5,0.4,7.1,1.2c2.1,0.8,3.9,2,5.2,3.6l-4.8,4.7c-1-0.9-2.2-1.7-3.5-2.3c-1.3-0.6-2.6-0.9-4-0.9
		c-1.3,0-2.3,0.2-3,0.7c-0.7,0.5-1,1.1-1,1.9c0,1.3,0.9,2.2,2.6,2.7l6.4,2c2.5,0.8,4.4,1.9,5.6,3.4c1.2,1.5,1.8,3.3,1.8,5.7
		c0,3.3-1.1,5.8-3.3,7.5c-2.2,1.7-5.3,2.6-9.2,2.6C231.9,286.6,229.4,286.2,227.2,285.3z"/>
	<path class="st0" d="M260.1,285c-2.2-1-3.9-2.6-5.1-4.6c-1.2-2.1-1.8-4.6-1.8-7.6v-18.4h7.9v17.2c0,2.4,0.6,4.3,1.7,5.6
		c1.1,1.3,2.7,2,4.8,2s3.7-0.7,4.8-2c1.1-1.3,1.7-3.2,1.7-5.6v-17.2h7.9v18.4c0,3-0.6,5.5-1.8,7.6c-1.2,2.1-2.9,3.6-5.1,4.6
		c-2.2,1-4.7,1.6-7.6,1.6C264.8,286.6,262.3,286.1,260.1,285z"/>
	<path class="st0" d="M311.9,284.4c-2.6-1.5-4.6-3.5-6-6c-1.4-2.5-2.2-5.3-2.2-8.3c0-3,0.7-5.8,2.2-8.3c1.4-2.5,3.4-4.5,6-6
		c2.6-1.5,5.5-2.2,8.7-2.2c3.2,0,6,0.7,8.4,2.1c2.4,1.4,4.2,3.3,5.4,5.7l-6.4,3.9c-0.8-1.4-1.9-2.5-3-3.2c-1.2-0.7-2.7-1.1-4.4-1.1
		c-1.7,0-3.2,0.4-4.6,1.2c-1.3,0.8-2.3,1.9-3.1,3.3c-0.7,1.4-1.1,2.9-1.1,4.6s0.4,3.2,1.1,4.6c0.7,1.4,1.8,2.5,3.1,3.3
		c1.3,0.8,2.8,1.2,4.6,1.2s3.2-0.3,4.3-1c1.2-0.7,2.2-1.7,3-3.1l6.4,3.9c-1.2,2.3-3,4.2-5.4,5.5c-2.4,1.4-5.1,2-8.3,2
		C317.4,286.6,314.5,285.9,311.9,284.4z"/>
	<path class="st0" d="M347.3,284.4c-2.6-1.5-4.6-3.5-6.1-6c-1.5-2.5-2.2-5.3-2.2-8.3c0-3,0.7-5.8,2.2-8.3c1.5-2.5,3.5-4.5,6.1-6
		s5.5-2.2,8.7-2.2s6.1,0.7,8.7,2.2s4.6,3.5,6.1,6c1.5,2.5,2.2,5.3,2.2,8.3c0,3-0.7,5.8-2.2,8.3c-1.5,2.5-3.5,4.5-6.1,6
		c-2.6,1.5-5.5,2.2-8.7,2.2S349.9,285.9,347.3,284.4z M348.2,274.7c0.8,1.4,1.8,2.5,3.2,3.3c1.3,0.8,2.9,1.2,4.6,1.2
		c1.7,0,3.2-0.4,4.6-1.2c1.4-0.8,2.4-1.9,3.2-3.3c0.8-1.4,1.1-2.9,1.1-4.6s-0.4-3.2-1.1-4.6c-0.8-1.4-1.8-2.5-3.2-3.3
		c-1.4-0.8-2.9-1.2-4.6-1.2c-1.7,0-3.2,0.4-4.6,1.2c-1.3,0.8-2.4,1.9-3.2,3.3c-0.8,1.4-1.1,2.9-1.1,4.6S347.5,273.3,348.2,274.7z"/>
	<path class="st0" d="M379.5,254.4h7.9v3.8c1.1-1.5,2.5-2.6,4-3.4c1.6-0.8,3.3-1.1,5.3-1.1c2.2,0,4.2,0.4,5.9,1.3
		c1.7,0.9,3,2.3,3.9,4.1c1.4-1.8,3-3.2,4.7-4.1c1.8-0.9,3.7-1.3,5.9-1.3c3.6,0,6.4,1.1,8.5,3.2c2.1,2.2,3.1,5.4,3.1,9.8v19.2h-7.9
		v-17.7c0-2.3-0.5-4-1.6-5.3c-1.1-1.2-2.6-1.8-4.5-1.8c-2.1,0-3.7,0.6-4.8,1.9c-1.2,1.3-1.8,3.1-1.8,5.6v17.3h-7.9v-17.7
		c0-2.3-0.5-4-1.6-5.3c-1.1-1.2-2.6-1.8-4.5-1.8c-2.1,0-3.7,0.6-4.8,1.9c-1.2,1.3-1.8,3.1-1.8,5.6v17.3h-7.9V254.4z"/>
	<path class="st0" d="M436.7,263.4c-0.2-1-0.4-2.4-0.8-4.1l-0.9-4.3l7.9-1.4l1,5c2.5-3.4,6.1-5.1,10.7-5.1c3.1,0,5.9,0.7,8.2,2.2
		c2.4,1.5,4.2,3.5,5.4,6c1.3,2.5,1.9,5.3,1.9,8.2c0,3.1-0.7,5.9-2,8.4c-1.3,2.5-3.2,4.5-5.6,6c-2.4,1.5-5.1,2.2-8.2,2.2
		c-2,0-3.7-0.3-5.2-1c-1.5-0.7-3-1.7-4.4-3v19.2h-7.9v-35.4C436.9,265.5,436.9,264.4,436.7,263.4z M445.8,274.8
		c0.7,1.4,1.7,2.5,3.1,3.3c1.3,0.8,2.8,1.2,4.5,1.2c1.7,0,3.2-0.4,4.6-1.2c1.3-0.8,2.4-1.9,3.1-3.3c0.7-1.4,1.1-3,1.1-4.7
		s-0.4-3.3-1.1-4.7c-0.7-1.4-1.8-2.5-3.1-3.3c-1.3-0.8-2.9-1.2-4.6-1.2c-1.7,0-3.2,0.4-4.5,1.2c-1.3,0.8-2.3,1.9-3.1,3.4
		c-0.7,1.4-1.1,3-1.1,4.7C444.7,271.9,445.1,273.4,445.8,274.8z"/>
	<path class="st0" d="M480.4,285.4c-1.7-0.8-3-2-4-3.5c-0.9-1.5-1.4-3.2-1.4-5.2c0-2,0.5-3.7,1.5-5.2c1-1.4,2.4-2.5,4.3-3.3
		c1.9-0.7,4.1-1.1,6.6-1.1h7.9v-1.5c0-1.7-0.5-2.9-1.5-3.9c-1-0.9-2.5-1.4-4.6-1.4c-1.8,0-3.3,0.3-4.4,1c-1.1,0.7-2.1,1.7-2.9,3.1
		l-6.3-3.8c1.4-2.4,3.2-4.1,5.4-5.3c2.2-1.2,5.1-1.8,8.5-1.8c4.5,0,7.9,1,10.2,3c2.3,2,3.4,4.8,3.4,8.6v8.8c0,1.2,0.1,2.3,0.2,3.4
		c0.1,1,0.3,2.3,0.6,3.8l0.9,4.3l-7.8,1.1l-0.9-4.1c-1.4,1.5-2.8,2.5-4.3,3.2c-1.5,0.7-3.4,1-5.7,1
		C484.1,286.6,482.1,286.2,480.4,285.4z M484.3,279.2c0.9,0.7,2.1,1,3.8,1c2.2,0,4-0.5,5.3-1.5c1.3-1,2-2.5,2-4.6v-1.3h-7
		c-3.6,0-5.4,1.2-5.4,3.6C483,277.6,483.4,278.5,484.3,279.2z"/>
	<path class="st0" d="M511.4,254.4h7.9v3.8c1-1.4,2.4-2.5,4-3.3c1.6-0.8,3.4-1.2,5.5-1.2c3.7,0,6.6,1.1,8.8,3.3
		c2.2,2.2,3.2,5.5,3.2,10v19h-7.9v-17.4c0-2.4-0.6-4.2-1.7-5.5c-1.1-1.3-2.7-1.9-4.8-1.9c-2.2,0-3.9,0.7-5.1,2
		c-1.3,1.3-1.9,3.2-1.9,5.7v17.1h-7.9V254.4z"/>
	<path class="st0" d="M545.8,301.3l0.8-6.3h1.7c2.2,0,4-0.4,5.4-1.1c1.4-0.7,2.4-1.9,3.1-3.6l1-2.4l-13-33.5h8.6l8.3,22.7l8.4-22.7
		h8.2l-14.6,38.3c-1.3,3.4-2.9,5.8-5,7.3c-2.1,1.5-4.6,2.2-7.7,2.2C549,302.2,547.3,301.9,545.8,301.3z"/>
</g>
</svg>
