<?xml version="1.0" encoding="utf-8"?>
<!-- Generator: Adobe Illustrator 25.3.1, SVG Export Plug-In . SVG Version: 6.00 Build 0)  -->
<svg version="1.1" id="Layer_1" xmlns="http://www.w3.org/2000/svg" xmlns:xlink="http://www.w3.org/1999/xlink" x="0px" y="0px"
	 viewBox="0 0 612 315" style="enable-background:new 0 0 612 315;" xml:space="preserve">
<style type="text/css">
	.st0{fill:#FFFFFF;}
</style>
<g>
	<g>
		<g>
			<path class="st0" d="M370,80.3c-20.8,0-39.8,9.1-51.9,24.2V33.3h-16.9v182.6h16.9v-21.5c4.8,6,10.9,11.2,17.8,15.2
				c10.2,5.9,22,9,34.1,9c18.3,0,35.4-7.1,48.2-20c12.9-13,20-30.5,20-49.3c0-18.8-7.1-36.3-20-49.2C405.4,87.3,388.3,80.3,370,80.3
				 M318.1,150.4c0-14.7,5.5-28.2,15.4-37.8c9.6-9.3,22.3-14.4,36-14.4c13.5,0,26.2,5.3,35.7,14.8c9.6,9.6,14.8,22.5,14.8,36.3
				c0,13.8-5.3,26.8-14.9,36.4c-9.5,9.6-22.2,14.9-35.7,14.9c-13.7,0-26.6-5-36.2-14.2C323.5,177.2,318.1,164.3,318.1,150.4"/>
			<path class="st0" d="M559.2,99.1c-11.7-12.1-28.3-18.8-46.7-18.8c-18.5,0-35.4,6.7-47.6,18.8c-12.8,12.6-19.5,29.9-19.5,50
				c0,19.9,6.9,37.8,19.5,50.5c12.2,12.3,29.2,19.1,47.6,19.1c24.8,0,46.5-12,58-32.2l1.6-2.9l-15.8-7.9l-1.5,2.5
				c-8.6,14.2-24.3,22.6-42.1,22.6c-26.6,0-45.4-16.9-48.6-43.4h112.8l0.4-2.6c0.3-1.9,0.3-4,0.3-5.7
				C577.7,128.9,571.3,111.6,559.2,99.1 M512.5,98.2c12.9,0,24.2,4.2,32.6,12.3c7.9,7.5,12.8,18,14.2,30.3h-95
				C467.8,114.4,486,98.2,512.5,98.2"/>
			<path class="st0" d="M146.1,185.5c-9.7,9.7-22.5,15-36.2,15h0c-13.7,0-26.5-5.3-36.2-15c-9.7-9.7-15-22.5-15-36.2
				c0-13.7,5.3-26.6,15-36.2c9.7-9.7,22.5-15,36.2-15h0c13.7,0,26.6,5.3,36.2,15l36.2,36.2l-10.8,10.8l12.6,12.6l23.4-23.4
				l-48.8-48.8c-26.9-26.9-70.6-26.9-97.5,0c-26.9,26.9-26.9,70.7,0,97.5c13,13,30.3,20.2,48.8,20.2h0c18.4,0,35.7-7.2,48.8-20.2
				l4.1-4.1l-12.6-12.6L146.1,185.5z"/>
			<path class="st0" d="M176.3,100.4l-4.6,4l12.3,12.8l4.6-4l0.1-0.1c20-20,52.5-20,72.4,0c9.7,9.7,15,22.5,15,36.2
				c0,13.7-5.3,26.6-15,36.2c-9.7,9.7-22.5,15-36.2,15h0c-13.7,0-26.5-5.3-36.2-15l-36.2-36.2l10.4-10.4l-12.6-12.6l-23,23
				l48.8,48.8c13,13,30.4,20.2,48.8,20.2h0c18.4,0,35.7-7.2,48.8-20.2c26.9-26.9,26.9-70.7,0-97.5
				C246.9,73.7,203.2,73.6,176.3,100.4"/>
		</g>
	</g>
</g>
<g>
	<path class="st0" d="M134.5,271.4c-1.1-0.6-2-1.3-2.6-2.3c-0.6-1-0.9-2.2-0.9-3.5c0-1.3,0.3-2.5,1-3.4s1.6-1.7,2.8-2.2
		c1.2-0.5,2.7-0.7,4.4-0.7h5.3v-1c0-1.1-0.3-2-1-2.6s-1.7-0.9-3.1-0.9c-1.2,0-2.2,0.2-2.9,0.7c-0.7,0.5-1.4,1.1-1.9,2l-4.2-2.5
		c0.9-1.6,2.1-2.7,3.6-3.5c1.5-0.8,3.4-1.2,5.7-1.2c3,0,5.2,0.7,6.8,2c1.5,1.3,2.3,3.2,2.3,5.7v5.9c0,0.8,0,1.5,0.1,2.2
		c0.1,0.7,0.2,1.5,0.4,2.5l0.6,2.9l-5.2,0.8l-0.6-2.7c-0.9,1-1.9,1.7-2.8,2.1c-1,0.5-2.2,0.7-3.8,0.7
		C136.9,272.2,135.6,271.9,134.5,271.4z M137,267.2c0.6,0.4,1.4,0.7,2.5,0.7c1.5,0,2.6-0.3,3.5-1c0.9-0.7,1.3-1.7,1.3-3.1v-0.9h-4.7
		c-2.4,0-3.6,0.8-3.6,2.4C136.2,266.1,136.5,266.8,137,267.2z"/>
	<path class="st0" d="M166.2,242.3h19.3v5.2h-13.7v7.8h11.2v5.1h-11.2v11.3h-5.5V242.3z"/>
	<path class="st0" d="M193.1,271.1c-1.4-0.7-2.6-1.7-3.4-3.1c-0.8-1.4-1.2-3-1.2-5v-12.3h5.3v11.5c0,1.6,0.4,2.9,1.1,3.7
		c0.8,0.9,1.8,1.3,3.2,1.3c1.4,0,2.5-0.4,3.2-1.3c0.8-0.9,1.1-2.1,1.1-3.7v-11.5h5.3V263c0,2-0.4,3.7-1.2,5
		c-0.8,1.4-1.9,2.4-3.4,3.1c-1.4,0.7-3.1,1-5.1,1C196.2,272.2,194.5,271.8,193.1,271.1z"/>
	<path class="st0" d="M207.3,281.8l0.5-4.2h1.6c1.2,0,2.1-0.3,2.7-1c0.6-0.7,0.9-1.7,0.9-3.1v-22.9h5.3v23.2c0,2.8-0.6,5-1.9,6.4
		c-1.3,1.4-3.1,2.2-5.6,2.2C209.4,282.5,208.2,282.3,207.3,281.8z M212.9,241.9c0.3-0.5,0.6-0.9,1.1-1.1s1-0.4,1.6-0.4
		c0.6,0,1.1,0.1,1.6,0.4c0.5,0.3,0.9,0.6,1.1,1.1c0.3,0.5,0.4,1,0.4,1.6c0,0.9-0.3,1.7-0.9,2.3c-0.6,0.6-1.4,0.9-2.3,0.9
		c-0.9,0-1.7-0.3-2.3-0.9c-0.6-0.6-0.9-1.3-0.9-2.3C212.5,242.9,212.6,242.4,212.9,241.9z"/>
	<path class="st0" d="M223.6,241.9c0.3-0.5,0.6-0.9,1.1-1.1s1-0.4,1.6-0.4c0.6,0,1.1,0.1,1.6,0.4c0.5,0.3,0.9,0.6,1.1,1.1
		c0.3,0.5,0.4,1,0.4,1.6c0,0.9-0.3,1.7-0.9,2.3c-0.6,0.6-1.4,0.9-2.3,0.9c-0.9,0-1.7-0.3-2.3-0.9c-0.6-0.6-0.9-1.3-0.9-2.3
		C223.2,242.9,223.3,242.4,223.6,241.9z M223.7,250.7h5.3v21h-5.3V250.7z"/>
	<path class="st0" d="M238.6,270c-1.3-1.3-1.9-3.1-1.9-5.4v-9.1h-4.3v-4.8h4.3v-6.5h5.3v6.5h6.1v4.8H242v8.2c0,2.2,1.2,3.4,3.5,3.4
		h2.3l0.5,4.2c-0.6,0.2-1.3,0.4-2,0.5s-1.5,0.2-2.2,0.2C241.6,271.9,239.8,271.3,238.6,270z"/>
	<path class="st0" d="M255.2,271.3c-1.5-0.6-2.8-1.5-4-2.7l3.1-3.3c1,0.9,1.9,1.5,2.9,2c1,0.5,2,0.7,3.1,0.7c0.9,0,1.6-0.2,2.1-0.5
		c0.5-0.3,0.7-0.8,0.7-1.4c0-0.9-0.6-1.5-1.7-1.8l-4.4-1.4c-3.2-1-4.8-3-4.8-5.9c0-1.4,0.3-2.5,0.9-3.5c0.6-1,1.5-1.8,2.8-2.3
		c1.2-0.5,2.7-0.8,4.4-0.8c1.7,0,3.3,0.3,4.7,0.8c1.4,0.6,2.6,1.4,3.5,2.4l-3.2,3.1c-0.7-0.6-1.5-1.1-2.3-1.5
		c-0.9-0.4-1.8-0.6-2.7-0.6c-0.9,0-1.5,0.2-2,0.5c-0.5,0.3-0.7,0.7-0.7,1.3c0,0.9,0.6,1.5,1.7,1.8l4.2,1.4c1.7,0.5,2.9,1.3,3.7,2.3
		c0.8,1,1.2,2.2,1.2,3.8c0,2.2-0.7,3.8-2.2,5s-3.5,1.7-6.1,1.7C258.3,272.2,256.6,271.9,255.2,271.3z"/>
	<path class="st0" d="M277.1,271.1c-1.4-0.7-2.6-1.7-3.4-3.1c-0.8-1.4-1.2-3-1.2-5v-12.3h5.3v11.5c0,1.6,0.4,2.9,1.1,3.7
		c0.8,0.9,1.8,1.3,3.2,1.3c1.4,0,2.5-0.4,3.2-1.3c0.8-0.9,1.1-2.1,1.1-3.7v-11.5h5.3V263c0,2-0.4,3.7-1.2,5
		c-0.8,1.4-1.9,2.4-3.4,3.1c-1.4,0.7-3.1,1-5.1,1C280.2,272.2,278.5,271.8,277.1,271.1z"/>
	<path class="st0" d="M311.5,270.7c-1.7-1-3-2.3-4-4c-1-1.7-1.4-3.5-1.4-5.5c0-2,0.5-3.8,1.4-5.5c1-1.7,2.3-3,4-4
		c1.7-1,3.6-1.5,5.8-1.5c2.1,0,4,0.5,5.6,1.4s2.8,2.2,3.6,3.8l-4.3,2.6c-0.6-0.9-1.2-1.6-2-2.1c-0.8-0.5-1.8-0.7-2.9-0.7
		c-1.1,0-2.2,0.3-3,0.8c-0.9,0.5-1.6,1.3-2,2.2s-0.7,1.9-0.7,3.1s0.2,2.1,0.7,3.1s1.2,1.7,2,2.2c0.9,0.5,1.9,0.8,3,0.8
		c1.1,0,2.1-0.2,2.9-0.7c0.8-0.5,1.4-1.1,2-2l4.3,2.6c-0.8,1.5-2,2.8-3.6,3.7c-1.6,0.9-3.4,1.4-5.5,1.4
		C315.2,272.2,313.2,271.7,311.5,270.7z"/>
	<path class="st0" d="M335.1,270.7c-1.7-1-3.1-2.3-4-4s-1.5-3.5-1.5-5.5c0-2,0.5-3.8,1.5-5.5s2.3-3,4-4c1.7-1,3.6-1.5,5.8-1.5
		c2.1,0,4.1,0.5,5.8,1.5c1.7,1,3.1,2.3,4,4c1,1.7,1.5,3.5,1.5,5.5c0,2-0.5,3.8-1.5,5.5c-1,1.7-2.3,3-4,4c-1.7,1-3.6,1.5-5.8,1.5
		C338.7,272.2,336.8,271.7,335.1,270.7z M335.7,264.2c0.5,0.9,1.2,1.7,2.1,2.2s1.9,0.8,3,0.8c1.1,0,2.2-0.3,3.1-0.8
		c0.9-0.5,1.6-1.3,2.1-2.2c0.5-0.9,0.8-1.9,0.8-3.1s-0.3-2.1-0.8-3c-0.5-0.9-1.2-1.7-2.1-2.2c-0.9-0.5-1.9-0.8-3.1-0.8
		c-1.1,0-2.1,0.3-3,0.8s-1.6,1.3-2.1,2.2c-0.5,0.9-0.8,1.9-0.8,3S335.2,263.3,335.7,264.2z"/>
	<path class="st0" d="M356.5,250.7h5.3v2.5c0.7-1,1.6-1.7,2.7-2.3c1.1-0.5,2.2-0.8,3.5-0.8c1.5,0,2.8,0.3,3.9,0.9
		c1.1,0.6,2,1.5,2.6,2.7c0.9-1.2,2-2.1,3.1-2.7c1.2-0.6,2.5-0.9,3.9-0.9c2.4,0,4.3,0.7,5.6,2.2c1.4,1.4,2.1,3.6,2.1,6.5v12.8H384
		v-11.8c0-1.5-0.4-2.7-1.1-3.5s-1.7-1.2-3-1.2c-1.4,0-2.4,0.4-3.2,1.3s-1.2,2.1-1.2,3.7v11.5h-5.3v-11.8c0-1.5-0.4-2.7-1.1-3.5
		s-1.7-1.2-3-1.2c-1.4,0-2.4,0.4-3.2,1.3s-1.2,2.1-1.2,3.7v11.5h-5.3V250.7z"/>
	<path class="st0" d="M394.6,256.7c-0.1-0.7-0.3-1.6-0.5-2.7l-0.6-2.9l5.3-0.9l0.7,3.3c1.7-2.3,4.1-3.4,7.1-3.4
		c2.1,0,3.9,0.5,5.5,1.5s2.8,2.3,3.6,4c0.8,1.7,1.3,3.5,1.3,5.5c0,2.1-0.4,3.9-1.3,5.6s-2.1,3-3.7,4c-1.6,1-3.4,1.5-5.5,1.5
		c-1.3,0-2.5-0.2-3.5-0.7c-1-0.5-2-1.1-2.9-2v12.8h-5.3v-23.5C394.7,258.1,394.7,257.4,394.6,256.7z M400.6,264.3
		c0.5,0.9,1.2,1.7,2,2.2s1.9,0.8,3,0.8c1.1,0,2.1-0.3,3-0.8c0.9-0.5,1.6-1.3,2.1-2.2c0.5-0.9,0.7-2,0.7-3.1c0-1.1-0.2-2.2-0.7-3.1
		c-0.5-0.9-1.2-1.7-2.1-2.2s-1.9-0.8-3-0.8c-1.1,0-2.1,0.3-3,0.8s-1.6,1.3-2,2.2s-0.7,2-0.7,3.1
		C399.9,262.3,400.2,263.4,400.6,264.3z"/>
	<path class="st0" d="M423.6,271.4c-1.1-0.6-2-1.3-2.6-2.3c-0.6-1-0.9-2.2-0.9-3.5c0-1.3,0.3-2.5,1-3.4s1.6-1.7,2.8-2.2
		c1.2-0.5,2.7-0.7,4.4-0.7h5.3v-1c0-1.1-0.3-2-1-2.6c-0.7-0.6-1.7-0.9-3.1-0.9c-1.2,0-2.2,0.2-2.9,0.7c-0.7,0.5-1.4,1.1-1.9,2
		l-4.2-2.5c0.9-1.6,2.1-2.7,3.6-3.5c1.5-0.8,3.4-1.2,5.7-1.2c3,0,5.2,0.7,6.8,2c1.5,1.3,2.3,3.2,2.3,5.7v5.9c0,0.8,0,1.5,0.1,2.2
		s0.2,1.5,0.4,2.5l0.6,2.9l-5.2,0.8l-0.6-2.7c-0.9,1-1.9,1.7-2.8,2.1c-1,0.5-2.2,0.7-3.8,0.7C426.1,272.2,424.8,271.9,423.6,271.4z
		 M426.2,267.2c0.6,0.4,1.4,0.7,2.5,0.7c1.5,0,2.6-0.3,3.5-1c0.9-0.7,1.3-1.7,1.3-3.1v-0.9H429c-2.4,0-3.6,0.8-3.6,2.4
		C425.4,266.1,425.6,266.8,426.2,267.2z"/>
	<path class="st0" d="M444.3,250.7h5.3v2.5c0.7-0.9,1.6-1.7,2.6-2.2c1.1-0.5,2.3-0.8,3.7-0.8c2.4,0,4.4,0.7,5.8,2.2
		c1.4,1.5,2.2,3.7,2.2,6.6v12.6h-5.3v-11.6c0-1.6-0.4-2.8-1.1-3.6c-0.8-0.8-1.8-1.2-3.2-1.2c-1.4,0-2.6,0.4-3.4,1.3
		c-0.8,0.9-1.2,2.1-1.2,3.8v11.4h-5.3V250.7z"/>
	<path class="st0" d="M467.2,281.9l0.5-4.2h1.1c1.5,0,2.7-0.2,3.6-0.7c0.9-0.5,1.6-1.3,2-2.4l0.6-1.6l-8.7-22.3h5.7l5.5,15.1
		l5.6-15.1h5.4l-9.7,25.5c-0.8,2.2-1.9,3.9-3.3,4.8s-3.1,1.5-5.1,1.5C469.3,282.5,468.2,282.3,467.2,281.9z"/>
</g>
</svg>
