<?xml version="1.0" encoding="utf-8"?>
<!-- Generator: Adobe Illustrator 25.3.1, SVG Export Plug-In . SVG Version: 6.00 Build 0)  -->
<svg version="1.1"
	 id="svg4300" xmlns:cc="http://creativecommons.org/ns#" xmlns:dc="http://purl.org/dc/elements/1.1/" xmlns:inkscape="http://www.inkscape.org/namespaces/inkscape" xmlns:rdf="http://www.w3.org/1999/02/22-rdf-syntax-ns#" xmlns:sodipodi="http://sodipodi.sourceforge.net/DTD/sodipodi-0.dtd" xmlns:svg="http://www.w3.org/2000/svg"
	 xmlns="http://www.w3.org/2000/svg" xmlns:xlink="http://www.w3.org/1999/xlink" x="0px" y="0px" viewBox="0 0 374 86.1"
	 style="enable-background:new 0 0 374 86.1;" xml:space="preserve">
<style type="text/css">
	.st0{fill:#FFFFFF;}
	.st1{enable-background:new    ;}
</style>
<sodipodi:namedview  bordercolor="#666666" borderopacity="1.0" fit-margin-bottom="0" fit-margin-left="0" fit-margin-right="0" fit-margin-top="0" id="base" inkscape:current-layer="flowRoot5184" inkscape:cx="457.76443" inkscape:cy="-11.856774" inkscape:document-units="mm" inkscape:pagecheckerboard="true" inkscape:pageopacity="0" inkscape:pageshadow="2" inkscape:showpageshadow="false" inkscape:window-height="2755" inkscape:window-maximized="1" inkscape:window-width="5120" inkscape:window-x="-13" inkscape:window-y="-13" inkscape:zoom="1.0677312" pagecolor="#ffffff" showborder="true" showgrid="false" units="mm">
	</sodipodi:namedview>
<g id="layer1" transform="translate(-12.952733,-144.33735)" inkscape:groupmode="layer" inkscape:label="Layer 1">
	
		<g id="flowRoot5176" inkscape:export-filename="C:\Users\Greg.Roll\oobe Pty Ltd\perimeta - azure\Marketing\Logos\Perimeta TM\Perimeta-Logo-Horizontal-Blue.png" inkscape:export-xdpi="96" inkscape:export-ydpi="96">
	</g>
	
		<g id="g861" inkscape:export-filename="C:\Users\Greg.Roll\oobe Pty Ltd\perimeta - azure\Marketing\Logos\Perimeta TM\Perimeta-Logo-Horizontal-Blue.png" inkscape:export-xdpi="96" inkscape:export-ydpi="96">
		<g id="g4331" transform="translate(-19.328366,94.659432)">
			<g>
				<path id="path3811_1_" inkscape:connector-curvature="0" sodipodi:nodetypes="cccccccccccccc" class="st0" d="M107.6,59.6
					l-19.4,4.3l-7.5,12.2l15.9,9.7l24.4-6.1l2.8-13.8l-16.4-6.5 M98.2,82.2L85.8,75l5.5-9.6l15.3-3.5l12.7,5.2l-2.7,10.5L98.2,82.2"
					/>
				<path class="st0" d="M96.5,86.3l-16.3-10L88,63.6l19.6-4.4l0,0l0,0l16.8,6.6l-3,14.3L96.5,86.3z M81.3,76.1l15.4,9.4l24.1-6
					l2.8-13.2l-15.9-6.2l-19.1,4.2L81.3,76.1z M98.1,82.6l-12.8-7.4L91,65.1l15.6-3.5l13.1,5.3l-2.8,11L98.1,82.6z M86.3,74.9
					l11.9,6.9l18-4.4l2.6-10l-12.2-5l-15.1,3.4L86.3,74.9z"/>
			</g>
		</g>
		<g>
			<path id="path3813_1_" inkscape:connector-curvature="0" sodipodi:nodetypes="cccccccccccccc" class="st0" d="M59.1,172.2
				l-23.6,5.6l-14.6,17.9l13.2,16l31.5-8.5l9.1-21l-15.9-10.1 M37.8,205.9l-10.6-11.7l10.9-14.1l18.8-4.4l12,8.1l-7.6,15.9
				L37.8,205.9"/>
			<path class="st0" d="M33.9,212.3l-13.6-16.5l14.9-18.3l23.8-5.6l16.2,10.3l-9.3,21.4L33.9,212.3z M21.3,195.8l12.9,15.6l31.1-8.4
				l8.9-20.5l-15.4-9.8l-23.2,5.5L21.3,195.8z M37.6,206.3l-10.9-12.1l11.2-14.5l19.1-4.6l12.5,8.4l-7.9,16.4L37.6,206.3z
				 M27.7,194.2l10.2,11.3l23.1-6.1l7.4-15.4l-11.7-7.9l-18.4,4.3L27.7,194.2z"/>
		</g>
		<g id="g4337" transform="translate(-19.328366,94.659432)">
			<g>
				<path id="path3815_1_" inkscape:connector-curvature="0" sodipodi:nodetypes="cccccccccccccc" class="st0" d="M122.4,81.7
					L97.3,88l-8.6,21.3l24.3,20l34.1-10.2l-0.8-25.5l-24.2-12 M114.4,121.9l-18.8-14.5l5.9-16.8l19.9-5.1l18.8,9.7l-0.4,19.2
					L114.4,121.9"/>
				<path class="st0" d="M112.9,129.7l-24.7-20.3L97,87.7l25.3-6.3l0,0l0,0l0,0l24.4,12.1l0.8,26L112.9,129.7z M89.2,109.1
					l23.9,19.7l33.6-10.1l-0.8-24.9l-23.7-11.7l-24.6,6.2L89.2,109.1z M114.3,122.3l-19.2-14.8l6.1-17.2l20.2-5.2l19.1,9.8
					l-0.4,19.8L114.3,122.3z M96,107.3l18.5,14.2l24.9-7.3l0.4-18.7L121.4,86l-19.5,5L96,107.3z"/>
			</g>
		</g>
	</g>
	
		<g id="flowRoot5184" transform="matrix(0.26458333,0,0,0.26458333,126.30393,22.303585)" inkscape:export-filename="C:\Users\Greg.Roll\oobe Pty Ltd\perimeta - azure\Marketing\Logos\Perimeta TM\Perimeta-Logo-Horizontal-Blue.png" inkscape:export-xdpi="96" inkscape:export-ydpi="96">
		<g>
			<path id="path842_3_" inkscape:connector-curvature="0" inkscape:export-xdpi="96" inkscape:export-ydpi="96" class="st0" d="
				M186.7,539.5c0,6.1-1.1,11.8-3.3,17c-2.1,5.2-5,9.7-8.9,13.5c-4.8,4.8-10.4,8.3-16.8,10.7c-6.5,2.3-14.6,3.5-24.5,3.5h-18.1v51.2
				H96.9V498h37.3c8.3,0,15.3,0.7,21,2.1c5.7,1.4,10.8,3.5,15.3,6.5c5.3,3.5,9.3,7.9,12.1,13.1C185.3,524.9,186.7,531.5,186.7,539.5
				L186.7,539.5z M167.7,540c0-4.8-0.9-8.9-2.5-12.4s-4.2-6.4-7.6-8.6c-3-1.9-6.4-3.2-10.2-4c-3.8-0.9-8.5-1.3-14.3-1.3h-18v54.9
				h15.4c7.4,0,13.4-0.7,18-2c4.6-1.4,8.4-3.5,11.3-6.4c2.9-3,4.9-6,6.1-9.3C167.1,547.7,167.7,544,167.7,540L167.7,540z"/>
			<path class="st0" d="M116,636.3H96V497.1h38.2c8.3,0,15.4,0.7,21.2,2.1c5.8,1.4,11,3.6,15.5,6.6c5.4,3.6,9.5,8.1,12.4,13.4
				c3,5.4,4.5,12.2,4.5,20.2c0,6.2-1.1,12-3.3,17.3c-2.1,5.2-5.1,9.9-9,13.8c-4.8,4.8-10.6,8.5-17.1,10.9
				c-6.5,2.3-14.9,3.5-24.8,3.5H116V636.3L116,636.3z M97.8,634.5h16.5v-51.2h19.2c9.7,0,17.8-1.2,24.2-3.5
				c6.3-2.4,11.9-5.9,16.5-10.5c3.7-3.7,6.6-8.1,8.6-13.2c2.1-5.1,3.2-10.7,3.2-16.7c0-7.8-1.4-14.4-4.3-19.4
				c-2.8-5.1-6.7-9.4-11.8-12.8c-4.3-2.9-9.4-5-15-6.4c-5.7-1.4-12.6-2.1-20.8-2.1H97.7L97.8,634.5L97.8,634.5L97.8,634.5z
				 M130.5,569.5h-16.3v-56.7h19c5.8,0,10.7,0.5,14.5,1.3c3.9,0.8,7.4,2.2,10.5,4.2c3.5,2.3,6.2,5.3,7.9,9c1.7,3.6,2.6,7.9,2.6,12.8
				c0,4.1-0.6,8-1.9,11.3c-1.2,3.4-3.3,6.6-6.3,9.7c-3,3-6.9,5.2-11.7,6.6C144.1,568.8,138,569.5,130.5,569.5z M116,567.7h14.5
				c7.3,0,13.3-0.7,17.8-1.9c4.5-1.3,8.1-3.3,10.9-6.1c2.8-2.9,4.8-5.9,5.9-9c1.2-3.2,1.8-6.8,1.8-10.7c0-4.6-0.8-8.6-2.4-12
				c-1.6-3.4-4-6.1-7.3-8.2c-2.9-1.9-6.1-3.1-9.9-4c-3.7-0.9-8.5-1.2-14.1-1.2H116V567.7L116,567.7z"/>
		</g>
		<g>
			<path id="path844_1_" inkscape:connector-curvature="0" inkscape:export-xdpi="96" inkscape:export-ydpi="96" class="st0" d="
				M291.4,585.6h-76c0,6.4,1,11.9,2.9,16.6c1.9,4.7,4.5,8.5,7.9,11.5c3.2,3,7,5.2,11.4,6.7c4.5,1.5,9.3,2.2,14.6,2.2
				c7,0,14.1-1.4,21.2-4.2c7.2-2.8,12.2-5.6,15.3-8.3h0.9V629c-5.9,2.5-11.8,4.5-17.9,6.2s-12.5,2.5-19.2,2.5
				c-17.1,0-30.5-4.6-40.1-13.8c-9.6-9.3-14.4-22.5-14.4-39.5c0-16.9,4.6-30.3,13.8-40.2s21.4-14.9,36.4-14.9
				c13.9,0,24.6,4,32.1,12.2c7.5,8.1,11.4,19.7,11.4,34.6L291.4,585.6L291.4,585.6z M274.5,572.4c0-9.1-2.4-16.2-6.9-21.2
				c-4.5-5-11.4-7.5-20.6-7.5c-9.3,0-16.7,2.8-22.3,8.2c-5.5,5.5-8.6,12.2-9.3,20.4L274.5,572.4L274.5,572.4z"/>
			<path class="st0" d="M252.3,638.7c-17.3,0-31-4.8-40.7-14.1c-9.8-9.4-14.7-23-14.7-40.2c0-17,4.7-30.7,14-40.8
				c9.4-10,21.8-15.1,37-15.1c14.1,0,25.1,4.2,32.8,12.5c7.7,8.2,11.6,20.1,11.6,35.2v10.3h-76c0.1,5.8,1,11,2.8,15.4
				c1.9,4.5,4.4,8.3,7.6,11.2c3.1,2.8,6.8,5,11.1,6.5s9.1,2.2,14.3,2.2c6.9,0,13.9-1.4,20.8-4.1c7-2.8,12.1-5.5,15-8.2l0.2-0.2h2.1
				v20.4l-0.5,0.2c-5.9,2.5-11.9,4.5-18,6.2C265.5,637.8,259,638.7,252.3,638.7z M247.9,530.3c-14.7,0-26.7,4.9-35.7,14.5
				c-9,9.7-13.5,23-13.5,39.6c0,16.7,4.8,29.8,14.1,38.9c9.4,9,22.7,13.6,39.5,13.6c6.6,0,13-0.9,19-2.5c5.9-1.6,11.7-3.6,17.3-5.9
				v-17.2c-3.1,2.6-8.1,5.3-15,8c-7.2,2.8-14.4,4.2-21.5,4.2c-5.4,0-10.4-0.8-14.9-2.2c-4.5-1.5-8.4-3.8-11.7-6.9
				c-3.4-3.1-6.1-7.1-8.1-11.8c-2-4.8-3-10.5-3-17v-0.9h76v-8.5c0-14.7-3.8-26.1-11.1-34C272.1,534.3,261.5,530.3,247.9,530.3z
				 M275.4,573.2h-60.9l0.1-1c0.8-8.3,4-15.4,9.6-21c5.7-5.6,13.4-8.5,22.9-8.5c9.5,0,16.6,2.6,21.3,7.8c4.7,5.1,7.1,12.5,7.2,21.7
				L275.4,573.2z M216.4,571.5h57.2c-0.2-8.4-2.5-15-6.7-19.7c-4.3-4.8-11-7.2-19.9-7.2c-9,0-16.3,2.7-21.6,8
				C220.3,557.7,217.3,564,216.4,571.5z"/>
		</g>
		<g>
			<path id="path846_1_" inkscape:connector-curvature="0" inkscape:export-xdpi="96" inkscape:export-ydpi="96" class="st0" d="
				M382,551.2h-0.9c-2.6-0.6-5.1-1-7.5-1.3s-5.2-0.5-8.6-0.5c-5.3,0-10.5,1.2-15.5,3.6c-5,2.3-9.8,5.4-14.4,9.1v73.3h-17.4V532.3
				h17.4v15.2c6.9-5.5,13-9.5,18.2-11.7c5.3-2.4,10.7-3.5,16.2-3.5c3,0,5.2,0.1,6.5,0.3c1.3,0.1,3.4,0.4,6.1,0.8L382,551.2z"/>
			<path class="st0" d="M335.9,636.3h-19.1V531.4h19.1v14.3c6.3-5,12.1-8.6,17-10.7c5.4-2.3,11-3.6,16.5-3.6c3.1,0,5.2,0.1,6.7,0.3
				c1.3,0.1,3.4,0.4,6.1,0.8l0.8,0.1v19.5h-2c-2.5-0.6-5-1-7.5-1.2c-2.4-0.3-5.2-0.5-8.5-0.5c-5.2,0-10.3,1.2-15.1,3.5
				c-4.8,2.2-9.5,5.2-13.9,8.8v73.6L335.9,636.3L335.9,636.3z M318.6,634.5h15.6v-72.7l0.3-0.2c4.7-3.8,9.6-6.9,14.6-9.2
				c5-2.5,10.4-3.7,15.9-3.7c3.4,0,6.3,0.2,8.7,0.5c2.4,0.2,5,0.7,7.5,1.2v-16.2c-2.3-0.3-4.1-0.6-5.3-0.7c-1.3-0.2-3.5-0.2-6.5-0.2
				c-5.3,0-10.7,1.2-15.8,3.5c-5.2,2.2-11.2,6.2-18,11.6l-1.5,1.2v-16.2h-15.5L318.6,634.5L318.6,634.5z"/>
		</g>
		<g>
			<path id="path848_1_" inkscape:connector-curvature="0" inkscape:export-xdpi="96" inkscape:export-ydpi="96" class="st0" d="
				M417.1,515.1h-19.5v-18h19.5V515.1z M416,635.4h-17.3V532.3H416V635.4z"/>
			<path class="st0" d="M416.9,636.3h-19.1V531.4h19.1V636.3z M399.6,634.5h15.5V533.2h-15.5V634.5z M418,515.9h-21.3v-19.8H418
				V515.9z M398.5,514.2h17.8V498h-17.8V514.2z"/>
		</g>
		<g>
			<path id="path850_1_" inkscape:connector-curvature="0" inkscape:export-xdpi="96" inkscape:export-ydpi="96" class="st0" d="
				M601,635.4h-17.3v-58.7c0-4.5-0.2-8.7-0.7-12.9c-0.3-4.1-1.2-7.4-2.5-9.8c-1.4-2.7-3.5-4.7-6.1-6c-2.7-1.4-6.5-2-11.5-2
				c-4.8,0-9.7,1.2-14.6,3.7c-4.8,2.4-9.7,5.5-14.6,9.2c0.2,1.4,0.3,3.1,0.5,5c0.1,1.8,0.2,3.7,0.2,5.5v66H517v-58.7
				c0-4.5-0.2-8.9-0.7-12.9c-0.3-4.1-1.2-7.4-2.5-9.9c-1.4-2.6-3.5-4.6-6.1-5.9c-2.7-1.4-6.5-2-11.5-2c-4.8,0-9.5,1.1-14.3,3.5
				c-4.8,2.3-9.5,5.3-14.2,9v77h-17.3V532.3h17.3v11.5c5.4-4.5,10.8-8,16.2-10.5c5.4-2.5,11.2-3.8,17.3-3.8c7,0,13,1.5,17.8,4.5
				c4.9,3,8.6,7,11,12.2c7-5.9,13.4-10.2,19.2-12.8c5.8-2.7,12-4,18.6-4c11.3,0,19.7,3.5,25,10.3c5.4,6.9,8.1,16.4,8.1,28.7
				L601,635.4z"/>
			<path class="st0" d="M601.8,636.3h-19.1v-59.6c0-4.4-0.2-8.7-0.7-12.8c-0.3-4-1.2-7.2-2.4-9.5c-1.3-2.5-3.2-4.3-5.7-5.6
				s-6.2-2-11-2c-4.7,0-9.5,1.2-14.2,3.6c-4.7,2.3-9.4,5.2-14,8.9c0.2,1.3,0.3,2.8,0.4,4.5c0.1,1.8,0.2,3.8,0.2,5.6v66.9h-19.1
				v-59.6c0-4.5-0.2-8.9-0.7-12.8c-0.3-4-1.2-7.2-2.4-9.5c-1.3-2.5-3.2-4.3-5.7-5.5c-2.5-1.3-6.2-2-11-2c-4.6,0-9.3,1.2-13.9,3.4
				c-4.5,2.2-9.2,5.1-13.7,8.6v77.5h-19.1v-105h19.1v10.5c5-4,10-7.1,14.9-9.5c5.5-2.5,11.5-3.8,17.7-3.8c7.2,0,13.3,1.5,18.2,4.5
				c4.7,2.8,8.4,6.8,10.8,11.6c6.7-5.6,13-9.7,18.5-12.2c5.8-2.7,12.3-4,18.9-4c11.5,0,20.2,3.6,25.7,10.7c5.5,7,8.3,16.8,8.3,29.2
				V636.3L601.8,636.3z M584.5,634.5H600v-66c0-12-2.7-21.5-8-28.2c-5.2-6.6-13.3-10-24.3-10c-6.4,0-12.6,1.3-18.2,3.9
				c-5.7,2.5-12,6.8-19,12.6l-0.9,0.8l-0.5-1c-2.3-5.1-5.9-9.1-10.7-11.9c-4.7-2.9-10.5-4.3-17.3-4.3c-6,0-11.6,1.2-16.9,3.7
				c-5.2,2.5-10.6,6-16,10.4l-1.5,1.2v-12.5h-15.5v101.3h15.5V558l0.3-0.2c4.8-3.6,9.6-6.7,14.4-9c4.9-2.4,9.8-3.6,14.7-3.6
				c5.1,0,9.1,0.7,11.8,2.1c2.8,1.4,5,3.5,6.5,6.3c1.3,2.5,2.2,6,2.6,10.2c0.5,4,0.7,8.4,0.7,13v57.8h15.6v-65.2
				c0-1.9,0-3.7-0.2-5.5c-0.1-1.9-0.2-3.5-0.5-5v-0.5l0.4-0.3c4.9-3.8,9.8-6.9,14.8-9.3c5-2.5,10-3.8,15-3.8c5.1,0,9.1,0.7,11.8,2.1
				c2.8,1.5,5,3.5,6.5,6.4c1.3,2.5,2.2,6,2.6,10.2c0.5,4.1,0.7,8.5,0.7,12.9v57.8L584.5,634.5L584.5,634.5z"/>
		</g>
		<g>
			<path id="path852_1_" inkscape:connector-curvature="0" inkscape:export-xdpi="96" inkscape:export-ydpi="96" class="st0" d="
				M720.6,585.6h-76c0,6.4,1,11.9,2.8,16.6c1.9,4.7,4.5,8.5,7.8,11.5c3.2,3,7,5.2,11.4,6.7c4.5,1.5,9.3,2.2,14.6,2.2
				c7,0,14-1.4,21.2-4.2s12.2-5.6,15.3-8.3h0.9V629c-5.8,2.5-11.8,4.5-17.9,6.2c-6.1,1.7-12.5,2.5-19.2,2.5
				c-17.1,0-30.5-4.6-40.1-13.8c-9.6-9.3-14.4-22.5-14.4-39.5c0-16.9,4.6-30.3,13.8-40.2s21.4-14.9,36.4-14.9
				c13.9,0,24.6,4,32.1,12.2c7.6,8.1,11.4,19.7,11.4,34.6L720.6,585.6L720.6,585.6z M703.7,572.4c0-9.1-2.3-16.2-6.9-21.2
				c-4.5-5-11.3-7.5-20.6-7.5c-9.3,0-16.7,2.8-22.3,8.2c-5.5,5.5-8.6,12.2-9.3,20.4L703.7,572.4L703.7,572.4z"/>
			<path class="st0" d="M681.5,638.7c-17.2,0-31-4.8-40.7-14.1c-9.8-9.4-14.7-23-14.7-40.2c0-17,4.7-30.7,14-40.8
				c9.3-10,21.8-15.1,37-15.1c14.1,0,25.1,4.2,32.8,12.5c7.7,8.2,11.6,20.1,11.6,35.2v10.3h-76c0.1,5.8,1,11,2.8,15.4
				c1.8,4.5,4.4,8.3,7.6,11.2c3.1,2.8,6.8,5,11.1,6.5s9.1,2.2,14.3,2.2c6.8,0,13.8-1.4,20.8-4.1c7-2.8,12.1-5.5,15-8.2l0.2-0.2h2.2
				v20.4l-0.5,0.2c-5.8,2.5-11.9,4.5-18,6.2C694.8,637.8,688.3,638.7,681.5,638.7z M677.2,530.3c-14.7,0-26.7,4.9-35.7,14.5
				c-9,9.7-13.5,23-13.5,39.6c0,16.7,4.8,29.8,14.1,38.9c9.4,9,22.7,13.6,39.5,13.6c6.6,0,13-0.9,19-2.5c5.8-1.6,11.7-3.6,17.3-5.9
				v-17.2c-3.2,2.6-8.2,5.3-15,8c-7.2,2.8-14.3,4.2-21.5,4.2c-5.3,0-10.3-0.8-14.8-2.2c-4.5-1.5-8.4-3.8-11.7-6.9
				c-3.4-3.1-6.1-7-8-11.8s-3-10.5-3-17v-0.9h76v-8.5c0-14.7-3.8-26.1-11.1-34C701.3,534.3,690.8,530.3,677.2,530.3z M704.6,573.2
				h-60.9l0.1-1c0.8-8.3,4-15.4,9.6-21c5.7-5.6,13.4-8.5,22.9-8.5c9.5,0,16.6,2.6,21.2,7.8c4.7,5.1,7.1,12.5,7.2,21.7L704.6,573.2z
				 M645.7,571.5h57.2c-0.2-8.4-2.5-15-6.7-19.7c-4.3-4.8-11-7.2-19.9-7.2c-9,0-16.3,2.7-21.6,8C649.6,557.7,646.5,564,645.7,571.5z
				"/>
		</g>
		<g>
			<path id="path854_1_" inkscape:connector-curvature="0" inkscape:export-xdpi="96" inkscape:export-ydpi="96" class="st0" d="
				M800.4,634.5c-3.2,0.8-6.8,1.5-10.7,2.1c-3.8,0.5-7.2,0.9-10.2,0.9c-10.5,0-18.5-2.9-24-8.5c-5.5-5.7-8.2-14.8-8.2-27.2v-54.9
				h-11.7v-14.6h11.7v-29.6h17.4v29.6h35.8v14.6h-35.8v47c0,5.4,0.1,9.7,0.3,12.8c0.2,3,1.1,5.8,2.6,8.5c1.3,2.5,3.2,4.3,5.5,5.5
				c2.4,1.1,6,1.7,10.9,1.7c2.8,0,5.8-0.4,8.8-1.2c3.1-0.9,5.3-1.6,6.7-2.1h0.9V634.5z"/>
			<path class="st0" d="M779.5,638.3c-10.7,0-19-3-24.7-8.8c-5.6-5.8-8.5-15.2-8.5-27.9v-53.9h-11.6v-16.3h11.7v-29.6h19.1v29.6
				h35.8v16.4h-35.8v46.1c0,5.4,0.1,9.6,0.3,12.7c0.2,2.9,1,5.6,2.5,8.2c1.2,2.3,3,4,5.2,5.1s5.8,1.6,10.5,1.6
				c2.8,0,5.7-0.4,8.7-1.2c3-0.9,5.2-1.5,6.5-2.1h0.3h1.8v17.2l-0.7,0.2c-3.3,0.9-6.9,1.6-10.8,2.2C786,638,782.5,638.3,779.5,638.3
				z M736.5,546h11.7v55.7c0,12.2,2.7,21.2,8,26.6c5.3,5.5,13.2,8.2,23.4,8.2c3,0,6.3-0.3,10.1-0.8c3.5-0.5,6.9-1.1,10-2v-14
				c-1.4,0.5-3.5,1.2-6.5,2c-3.2,0.8-6.2,1.2-9.1,1.2c-5,0-8.7-0.5-11.2-1.8c-2.5-1.2-4.5-3.2-6-5.8c-1.5-2.8-2.5-5.7-2.7-8.9
				c-0.2-3.1-0.3-7.4-0.3-12.8v-47.9h35.8v-12.8h-36v-29.6h-15.6v29.6h-11.7L736.5,546L736.5,546z"/>
		</g>
		<g>
			<path id="path856_1_" inkscape:connector-curvature="0" inkscape:export-xdpi="96" inkscape:export-ydpi="96" class="st0" d="
				M901.6,635.4h-17.2v-11c-1.6,1-3.7,2.5-6.2,4.5c-2.6,1.9-5.1,3.3-7.6,4.5c-2.9,1.4-6.2,2.6-10,3.5c-3.8,1-8.2,1.5-13.2,1.5
				c-9.3,0-17.2-3.1-23.6-9.2c-6.4-6.1-9.7-14-9.7-23.5c0-7.8,1.7-14.1,5-18.9c3.4-4.9,8.2-8.7,14.4-11.5c6.2-2.8,13.8-4.7,22.6-5.7
				s18.3-1.7,28.4-2.2v-2.7c0-4-0.7-7.2-2.1-9.8c-1.3-2.6-3.3-4.6-5.9-6.1c-2.4-1.4-5.4-2.4-8.8-2.9s-7.1-0.8-10.8-0.8
				c-4.6,0-9.7,0.6-15.2,1.9c-5.6,1.1-11.4,2.9-17.3,5.1h-0.9v-17.6c3.4-0.9,8.2-2,14.7-3c6.4-1.1,12.7-1.7,18.9-1.7
				c7.3,0,13.6,0.6,18.9,1.9c5.4,1.1,10.1,3.2,14.1,6.1c3.9,2.9,6.8,6.5,8.8,11c2.1,4.5,3.1,10,3.1,16.7v69.9H901.6L901.6,635.4z
				 M884.3,610v-28.7c-5.3,0.3-11.6,0.8-18.8,1.4c-7.2,0.6-12.8,1.5-17,2.7c-5,1.4-9,3.7-12.1,6.7c-3.1,3-4.6,7-4.6,12.2
				c0,5.9,1.8,10.4,5.3,13.4c3.6,3,9,4.5,16.3,4.5c6.1,0,11.7-1.1,16.7-3.5C875.3,616.2,880,613.3,884.3,610L884.3,610z"/>
			<path class="st0" d="M847.3,639.1c-9.5,0-17.7-3.2-24.2-9.5c-6.6-6.3-10-14.5-10-24.2c0-8,1.8-14.5,5.2-19.4
				c3.5-5,8.5-9,14.8-11.8c6.4-2.8,14-4.7,22.9-5.7c8.6-1,17.8-1.7,27.6-2.2v-1.9c0-3.8-0.7-6.9-2-9.3c-1.2-2.5-3.2-4.4-5.6-5.8
				c-2.3-1.4-5.2-2.3-8.6-2.8c-3.4-0.5-7-0.8-10.7-0.8c-4.4,0-9.5,0.6-15.1,1.8c-5.5,1.1-11.3,2.9-17.2,5.1h-0.3h-1.8v-19.2l0.7-0.2
				c3.4-1,8.3-2,14.8-3c6.4-1.1,12.8-1.7,19.1-1.7c7.3,0,13.7,0.7,19.1,1.9c5.5,1.2,10.3,3.3,14.3,6.2s7.1,6.7,9.2,11.4
				c2.1,4.6,3.1,10.3,3.1,17v70.9h-19.1v-10.2c-1.3,1-2.9,2.1-4.8,3.5c-2.6,1.9-5.2,3.4-7.7,4.5c-2.9,1.5-6.3,2.6-10.1,3.5
				C856.9,638.6,852.4,639.1,847.3,639.1z M856.6,544.2c3.8,0,7.5,0.2,10.9,0.8c3.6,0.5,6.7,1.5,9.2,3c2.7,1.5,4.8,3.7,6.2,6.5
				c1.4,2.7,2.2,6.1,2.2,10.2v3.5h-0.8c-10,0.5-19.6,1.2-28.3,2.2s-16.2,2.8-22.3,5.5c-6,2.7-10.8,6.5-14,11.1s-4.8,10.8-4.8,18.4
				c0,9.2,3.2,17,9.4,22.9c6.2,6,14,9,23,9c4.9,0,9.3-0.5,12.9-1.5c3.7-0.9,7-2,9.8-3.5c2.4-1.1,4.9-2.5,7.4-4.3
				c2.7-1.9,4.8-3.4,6.3-4.5l1.4-1v11.9h15.6v-69c0-6.5-1-12-2.9-16.3c-1.9-4.4-4.8-7.9-8.6-10.7s-8.4-4.8-13.7-6
				s-11.6-1.9-18.8-1.9c-6.2,0-12.4,0.5-18.8,1.7c-6,1-10.6,2-14,2.8v16c5.9-2.2,11.7-4,17.2-5.1
				C846.9,544.9,852.1,544.2,856.6,544.2z M853.6,623c-7.5,0-13.2-1.5-16.9-4.7c-3.8-3.2-5.7-7.9-5.7-14c0-5.5,1.7-9.8,4.9-12.9
				c3.2-3.1,7.3-5.4,12.4-6.9c4.2-1.2,10-2.1,17.2-2.7c7.2-0.6,13.5-1.1,18.8-1.4h0.9v30l-0.3,0.2c-4.3,3.4-9.1,6.2-14.2,8.7
				C865.5,621.8,859.8,623,853.6,623z M883.4,582.2c-5.1,0.3-11.1,0.8-17.8,1.3c-7.1,0.6-12.7,1.5-16.8,2.7
				c-4.8,1.3-8.8,3.5-11.7,6.4c-2.9,2.8-4.3,6.7-4.3,11.7c0,5.6,1.7,9.9,5,12.7c3.4,2.8,8.7,4.2,15.8,4.2c5.9,0,11.4-1.2,16.4-3.4
				c4.8-2.3,9.3-5,13.5-8.2L883.4,582.2L883.4,582.2z"/>
		</g>
		<g class="st1">
			<path class="st0" d="M115.8,693.6v5.5h14.5v12h-14.5v52.5h-16v-52.5H87.6v-12h12.3v-6.2c0-7.7,2-13.5,5.8-17.7
				c3.9-4.2,9.5-6.2,16.7-6.2c4,0,7.4,0.5,10.1,1.5v12.7c-2.4-0.6-4.5-0.9-6.3-0.9C119.2,682.2,115.8,686,115.8,693.6z"/>
			<path class="st0" d="M153.8,760.5c-5-2.8-8.8-6.6-11.5-11.7c-2.7-5-4-11-4-17.8s1.4-12.8,4-17.8c2.7-5,6.5-9,11.5-11.7
				c5-2.7,10.8-4.1,17.3-4.1c6.5,0,12.2,1.3,17.1,4.1c5,2.8,8.8,6.6,11.5,11.7c2.7,5,4,11,4,17.8s-1.4,12.8-4,17.8
				c-2.7,5-6.5,9-11.5,11.7c-5,2.8-10.7,4.1-17.1,4.1C164.5,764.6,158.8,763.2,153.8,760.5z M183.4,746.8c2.9-3.5,4.3-8.8,4.3-15.8
				c0-6.9-1.5-12.2-4.4-15.8c-2.9-3.6-7-5.5-12.3-5.5c-5.4,0-9.5,1.8-12.4,5.5c-2.9,3.6-4.4,8.9-4.4,15.8c0,7,1.5,12.2,4.3,15.8
				c2.9,3.5,7,5.3,12.3,5.3C176.4,752.1,180.5,750.3,183.4,746.8z"/>
			<path class="st0" d="M258.5,698.6l-0.1,14.5c-2.8-1.1-5.5-1.6-8.5-1.6c-5.5,0-9.6,1.6-12.5,4.8c-2.9,3.1-4.3,7.3-4.3,12.5v34.9
				h-15.9v-46.3c0-6.8-0.4-12.9-1-18.2h15l1.3,11.4c1.6-4.2,4.2-7.4,7.7-9.6c3.5-2.2,7.5-3.3,11.9-3.3
				C254.6,697.5,256.8,697.9,258.5,698.6z"/>
			<path class="st0" d="M358.5,724.7c2.8,3.8,4.3,8.5,4.3,14.1c0,7.9-2.9,14.2-8.8,18.8c-5.8,4.6-13.7,6.9-23.6,6.9
				c-6.1,0-12-1-17.7-2.8c-5.6-1.8-10.3-4.5-14-7.8l5.6-12c8.1,6.3,16.6,9.5,25.4,9.5c5.8,0,10.1-1.1,13-3.5
				c2.9-2.3,4.3-5.8,4.3-10.5c0-4.6-1.5-8-4.4-10.2c-2.9-2.1-7.3-3.2-13.4-3.2h-12v-13.2h9.9c11.8,0,17.6-4.5,17.6-13.4
				c0-4.2-1.3-7.4-3.9-9.6c-2.5-2.2-6.2-3.3-10.8-3.3c-8.1,0-16.4,3.1-24.5,9.5l-5.5-12c3.6-3.2,8.3-5.8,13.9-7.7
				c5.6-1.9,11.3-2.9,17.2-2.9c9,0,16.1,2.2,21.4,6.5c5.3,4.4,8,10.2,8,17.5c-0.1,5-1.4,9.4-3.9,13.1c-2.5,3.7-6,6.4-10.5,8.1
				C351.5,718.3,355.6,720.9,358.5,724.7z"/>
			<path class="st0" d="M428.7,708.9c4.2,2.5,7.5,5.9,9.9,10.3c2.4,4.5,3.5,9.5,3.5,15.2c0,5.8-1.3,11-3.9,15.6s-6.2,8.2-10.8,10.8
				c-4.7,2.6-9.9,3.9-15.8,3.9c-11.5,0-20.4-3.9-26.6-11.7c-6.2-7.8-9.3-18.9-9.3-33.3c0-10,1.5-18.7,4.4-25.9
				c3-7.2,7.2-12.8,12.8-16.6c5.6-3.9,12.2-5.8,19.9-5.8c5.5,0,10.8,0.9,15.9,2.8c5.2,1.8,9.7,4.5,13.5,7.8l-5.6,12
				c-8-6.3-15.7-9.5-23.1-9.5c-6.8,0-11.9,2.9-15.6,8.5c-3.7,5.7-5.6,13.9-5.8,24.5c2-3.9,5-6.9,9-9.2c4-2.2,8.5-3.4,13.3-3.4
				C419.7,705.2,424.5,706.4,428.7,708.9z M422.2,747.1c2.8-3,4.3-7.1,4.3-12.2c0-5-1.5-9-4.3-12s-6.7-4.5-11.5-4.5
				s-8.7,1.5-11.6,4.6c-3,3-4.5,7-4.5,12s1.5,9,4.5,12c3,3.1,6.9,4.7,11.7,4.7C415.5,751.7,419.3,750.1,422.2,747.1z"/>
			<path class="st0" d="M505.2,709.1c4.3,2.5,7.7,5.9,10.1,10.2c2.4,4.4,3.6,9.5,3.6,15.2c0,6-1.3,11.2-4.1,15.8
				c-2.7,4.5-6.7,8.1-11.8,10.6c-5.1,2.5-11,3.8-17.8,3.8c-5.7,0-11.3-1-16.9-2.8c-5.5-1.9-10.1-4.5-13.7-7.8l5.5-12
				c8.2,6.3,16.7,9.5,25.3,9.5c5.7,0,10.1-1.5,13.1-4.3c3-2.9,4.5-6.9,4.5-12.2c0-5-1.5-9-4.7-12c-3.1-3-7.3-4.6-12.5-4.6
				c-3.6,0-7,0.7-10.1,2c-3.2,1.3-5.9,3.3-8.3,5.8h-10v-53.5h57.3v12.8h-40.9v24.8c4.6-3.1,10-4.8,16.3-4.8
				C495.9,705.5,500.9,706.7,505.2,709.1z"/>
		</g>
		<g id="flowRoot4540">
		</g>
	</g>
</g>
</svg>
