<?xml version="1.0" encoding="utf-8"?>
<!-- Generator: Adobe Illustrator 27.0.0, SVG Export Plug-In . SVG Version: 6.00 Build 0)  -->
<svg version="1.1" id="Layer_1" xmlns="http://www.w3.org/2000/svg" xmlns:xlink="http://www.w3.org/1999/xlink" x="0px" y="0px"
	 viewBox="0 0 449.8 83.6" style="enable-background:new 0 0 449.8 83.6;" xml:space="preserve">
<style type="text/css">
	.st0{fill:#FFFFFF;}
</style>
<g>
	<path class="st0" d="M42.5,14.5v6.6H28.1v41.7h-7.2V21.1H6.6v-6.6H42.5z"/>
	<path class="st0" d="M79.2,44v18.7h-6.9V44.4c0-5.3-3.2-8.5-7.4-8.5c-4.3,0-9.5,2.5-9.5,9.2v17.6h-6.9V12.2h6.9V35
		c1.9-4,7.1-5.8,10.6-5.8C74.3,29.2,79.2,34.7,79.2,44z"/>
	<path class="st0" d="M120,49.1H94c0.9,5.3,4.8,8.1,10.1,8.1c3.9,0,7.4-1.8,9.2-4.8l5.5,2.7c-2.9,5.5-8.8,8.4-15,8.4
		c-9.5,0-16.9-6.9-16.9-17.3c0-10.4,7.6-17.1,16.9-17.1s16.4,6.7,16.4,17C120.2,47.1,120.1,48.1,120,49.1z M113.3,43.6
		c-0.7-5.1-4.4-8.1-9.5-8.1s-8.8,2.6-9.8,8.1H113.3z"/>
	<path class="st0" d="M145,62.7V12.2h9.7V34c0.8-1.5,2-2.6,3.8-3.5c1.8-0.8,3.7-1.3,5.8-1.3c2.1,0,4.1,0.4,6,1.2
		c1.9,0.8,3.6,2,5,3.4c1.4,1.4,2.6,3.3,3.5,5.4c0.9,2.2,1.3,4.5,1.3,7.1c0,2.5-0.4,4.8-1.3,7c-0.9,2.1-2,3.9-3.5,5.4
		c-1.4,1.4-3.1,2.6-5,3.4s-3.9,1.2-6,1.2c-2.1,0-4-0.4-5.7-1.3c-1.8-0.8-3-2-3.8-3.5v4.1H145z M154.9,46.3c0,2.3,0.7,4.2,2.2,5.6
		c1.5,1.5,3.3,2.2,5.3,2.2c2.1,0,3.9-0.7,5.4-2.2c1.5-1.5,2.2-3.3,2.2-5.7c0-2.3-0.7-4.2-2.2-5.6c-1.5-1.4-3.2-2.2-5.4-2.2
		c-2.1,0-3.9,0.7-5.3,2.1S154.9,44,154.9,46.3z"/>
	<path class="st0" d="M187.1,62.7V12.2h9.7v50.5H187.1z"/>
	<path class="st0" d="M205.4,49.6V30h9.7v17.6c0,1.2,0.2,2.3,0.6,3.2s0.9,1.6,1.5,2c0.6,0.4,1.2,0.8,1.9,1c0.6,0.2,1.2,0.3,1.9,0.3
		c1.7,0,3.1-0.5,4.2-1.6c1.1-1.1,1.7-2.8,1.7-5.1V30h9.7v32.7h-9.7v-4.4c-0.8,1.6-2.1,2.8-3.7,3.7c-1.6,0.9-3.2,1.4-4.9,1.4
		c-3.8,0-6.9-1.2-9.3-3.6C206.6,57.5,205.4,54,205.4,49.6z"/>
	<path class="st0" d="M245.9,55.3c-1.5-2.6-2.3-5.6-2.3-8.9c0-3.3,0.8-6.3,2.3-8.9s3.6-4.6,6.2-6c2.6-1.4,5.4-2.1,8.6-2.1
		c2.3,0,4.5,0.4,6.5,1.3c2.1,0.8,3.8,2,5.3,3.5c1.5,1.5,2.7,3.3,3.6,5.5s1.3,4.5,1.3,7c0,0.9,0,1.9-0.1,3h-24
		c0.2,1.8,1.1,3.1,2.8,4.1c1.6,1,3.4,1.4,5.3,1.4c1.4,0,2.8-0.3,4.1-0.8c1.3-0.5,2.3-1.3,3.1-2.3l7.1,4.8c-1.5,2.3-3.6,3.9-6.3,5
		c-2.7,1.1-5.6,1.6-8.6,1.6c-3.1,0-6-0.7-8.6-2.1S247.4,57.9,245.9,55.3z M253.4,43.5h14.2c-0.2-1.8-1-3.1-2.4-4s-2.9-1.4-4.5-1.4
		c-1.6,0-3.1,0.4-4.5,1.3C254.7,40.3,253.8,41.6,253.4,43.5z"/>
	<path class="st0" d="M284,78.7V30h9.7v4c0.8-1.5,2.1-2.6,3.8-3.5c1.8-0.8,3.7-1.3,5.7-1.3c2.1,0,4.1,0.4,6,1.2
		c1.9,0.8,3.6,1.9,5,3.4c1.4,1.4,2.6,3.2,3.5,5.4c0.9,2.1,1.3,4.5,1.3,7c0,2.6-0.4,4.9-1.3,7.1c-0.9,2.2-2,4-3.5,5.4
		c-1.4,1.5-3.1,2.6-5,3.4c-1.9,0.8-3.9,1.2-6,1.2c-2.1,0-4-0.4-5.8-1.3c-1.8-0.8-3-2-3.8-3.5v20.1H284z M293.9,46.4
		c0,2.3,0.7,4.2,2.2,5.6c1.5,1.4,3.3,2.1,5.3,2.1c2.1,0,3.9-0.7,5.4-2.1c1.5-1.4,2.2-3.3,2.2-5.6c0-2.3-0.7-4.2-2.2-5.7
		c-1.5-1.5-3.2-2.2-5.4-2.2c-2.1,0-3.9,0.7-5.3,2.2C294.6,42.3,293.9,44.2,293.9,46.4z"/>
	<path class="st0" d="M326.1,62.7V30h9.7v7.8c0.8-2.8,2-4.9,3.8-6.4c1.8-1.4,3.6-2.2,5.4-2.2c2.2,0,4.1,0.4,5.6,1.2l-1.7,8.7
		c-1.3-0.7-3-1-5-1c-2.8,0-4.8,1.1-6.1,3.3c-1.3,2.2-2,5.4-2,9.8v11.4H326.1z"/>
	<path class="st0" d="M356.3,22c-1.2-1.1-1.8-2.5-1.8-4.1c0-1.6,0.6-2.9,1.8-4c1.2-1.1,2.6-1.6,4.3-1.6c1.6,0,3,0.5,4.2,1.6
		s1.7,2.4,1.7,4c0,1.6-0.6,3-1.7,4.1c-1.2,1.1-2.6,1.7-4.2,1.7C358.9,23.6,357.5,23.1,356.3,22z M355.7,62.7V30h9.7v32.7H355.7z"/>
	<path class="st0" d="M374.3,62.7V30h9.7v4.8c0.9-1.7,2.2-3,3.9-4c1.7-1,3.6-1.5,5.5-1.5c3.8,0,6.7,1.2,8.8,3.5
		c2.1,2.3,3.2,5.8,3.2,10.4v19.5h-9.7V45.4c0-2.1-0.5-3.7-1.6-4.8c-1-1.1-2.4-1.7-4.1-1.7c-4,0-6,2.2-6,6.6v17.2H374.3z"/>
	<path class="st0" d="M411.2,37.7V30h5.9V17.5h9.7V30h6.9v7.7h-6.9v25h-9.7v-25H411.2z"/>
</g>
</svg>
