<?xml version="1.0" encoding="utf-8"?>
<!-- Generator: Adobe Illustrator 27.0.0, SVG Export Plug-In . SVG Version: 6.00 Build 0)  -->
<svg version="1.1" id="Layer_1" xmlns="http://www.w3.org/2000/svg" xmlns:xlink="http://www.w3.org/1999/xlink" x="0px" y="0px"
	 viewBox="0 0 3373.3 3320.1" style="enable-background:new 0 0 3373.3 3320.1;" xml:space="preserve">
<style type="text/css">
	.st0{fill:#041E42;}
</style>
<path class="st0" d="M1820.9,259.3c-60.9-40.2-126.2-74.6-193.8-102c-66.4-26.9-135.8-47.5-206.3-61.2
	c-69.8-13.5-141.2-20.4-212.4-20.4c-71.2,0-142.6,6.8-212.4,20.4c-70.5,13.7-139.9,34.2-206.3,61.2c-67.7,27.4-132.9,61.8-193.8,102
	c-62.5,41.2-121.1,89.2-174.5,142.5c-53.3,53.3-101.3,112-142.5,174.5c-40.2,60.9-74.6,126.2-102,193.8
	c-26.9,66.4-47.5,135.8-61.2,206.3c-13.5,69.8-20.4,141.2-20.4,212.4c0,71.2,6.8,142.6,20.4,212.4c13.7,70.5,34.2,139.9,61.2,206.3
	c27.4,67.7,61.8,132.9,102,193.8c41.2,62.5,89.2,121.1,142.5,174.5c53.3,53.3,112,101.3,174.5,142.5c60.9,40.2,126.2,74.6,193.8,102
	c66.4,26.9,135.8,47.5,206.3,61.2c69.8,13.5,141.2,20.4,212.4,20.4c71.2,0,142.6-6.8,212.4-20.4c70.5-13.7,139.9-34.2,206.3-61.2
	c67.7-27.4,132.9-61.8,193.8-102c34.2-22.6,67.3-47.2,98.9-73.6l220.2,220.2l-11,11c-38,38-38,100.1,0,138l801.7,801.7
	c38,38,100.1,38,138,0l166.4-166.4c38-38,38-100.1,0-138l-801.7-801.7c-38-38-100.1-38-138,0l-11,11l-220.2-220.2
	c26.4-31.7,51-64.7,73.6-98.9c40.2-60.9,74.6-126.2,102-193.8c26.9-66.4,47.5-135.8,61.2-206.3c13.5-69.8,20.4-141.2,20.4-212.4
	c0-71.2-6.8-142.6-20.4-212.4c-13.7-70.5-34.2-139.9-61.2-206.3c-27.4-67.7-61.8-132.9-102-193.8c-41.2-62.5-89.2-121.1-142.5-174.5
	C1942.1,348.5,1883.4,300.6,1820.9,259.3z M1860.4,1840.9c-360.1,360.1-944,360.1-1304.2,0s-360.1-944,0-1304.2s944-360.1,1304.2,0
	S2220.6,1480.8,1860.4,1840.9z M1208.4,390.4c103.7,0,204.8,19.7,300.4,58.5c27.1,11,40.2,41.9,29.2,69.1
	c-2.8,6.8-6.7,12.7-11.6,17.6c-14.6,14.6-37.1,19.9-57.4,11.7c-83-33.6-170.6-50.7-260.6-50.7c-90,0-177.6,17.1-260.6,50.7
	c-85.9,34.8-162.9,86-229,152.1c-20.7,20.7-54.3,20.7-75,0c-20.7-20.7-20.7-54.3,0-75C720,548.1,808.8,489,907.9,448.9
	C1003.6,410.1,1104.7,390.4,1208.4,390.4z"/>
</svg>
