<?xml version="1.0" encoding="utf-8"?>
<!-- Generator: Adobe Illustrator 27.0.0, SVG Export Plug-In . SVG Version: 6.00 Build 0)  -->
<svg version="1.1" id="Layer_1" xmlns="http://www.w3.org/2000/svg" xmlns:xlink="http://www.w3.org/1999/xlink" x="0px" y="0px"
	 viewBox="0 0 187.2 125.7" style="enable-background:new 0 0 187.2 125.7;" xml:space="preserve">
<style type="text/css">
	.st0{fill:#041E42;}
</style>
<path class="st0" d="M183.1,62.7C183.1,62.7,183.1,62.7,183.1,62.7C183.1,62.7,183.1,62.7,183.1,62.7c-0.1-0.8-0.2-1.6-0.5-2.3
	c-0.4-1.1-1-2.1-1.9-2.9L131.2,8c-3.2-3.2-8.4-3.2-11.7,0c-3.2,3.2-3.2,8.4,0,11.7l35.4,35.4H12.6c-4.4,0-8,3.6-8,8v0.5
	c0,4.4,3.6,8,8,8l142.3,0L119.5,107c-3.2,3.2-3.2,8.4,0,11.7c1.6,1.6,3.7,2.4,5.8,2.4c2.1,0,4.2-0.8,5.8-2.4l49.5-49.5
	c0.9-0.9,1.5-1.9,1.9-2.9c0.3-0.7,0.4-1.5,0.5-2.3c0,0,0,0,0,0c0,0,0,0,0,0c0-0.2,0-0.4,0-0.6C183.1,63.1,183.1,62.9,183.1,62.7z"/>
</svg>
