<?xml version="1.0" encoding="utf-8"?>
<!-- Generator: Adobe Illustrator 27.0.0, SVG Export Plug-In . SVG Version: 6.00 Build 0)  -->
<svg version="1.1" id="Layer_1" xmlns="http://www.w3.org/2000/svg" xmlns:xlink="http://www.w3.org/1999/xlink" x="0px" y="0px"
	 viewBox="0 0 192 192" style="enable-background:new 0 0 192 192;" xml:space="preserve">
<style type="text/css">
	.st0{fill:#48D597;}
</style>
<g>
	<path class="st0" d="M95.4,182.3c-47.6,0-86.3-38.7-86.3-86.3S47.8,9.7,95.4,9.7s86.3,38.7,86.3,86.3S142.9,182.3,95.4,182.3z
		 M95.4,23.3c-40.1,0-72.7,32.6-72.7,72.7s32.6,72.7,72.7,72.7s72.7-32.6,72.7-72.7S135.5,23.3,95.4,23.3z"/>
</g>
<g>
	<path class="st0" d="M64.4,73.3c0-10,3-18,9.1-23.9c6.1-6,14.1-8.9,24-8.9s17.9,2.7,24,8.2s9.1,12.9,9.1,22.2
		c0,7.5-1.9,13.8-5.8,19.1c-3.8,5.3-8.9,8.9-15.3,10.8c-3.1,0.9-5.2,2.4-6.3,4.4c-1.1,2-1.7,4.9-1.7,8.8l-0.3,3.5H79.8l-0.4-3.5
		c0-2.9,0-5.2,0.1-6.8s0.2-3.5,0.4-5.6s0.5-3.8,1-5s1.1-2.6,1.9-4.1s1.9-2.8,3.1-3.9c1.2-1,2.8-2.1,4.5-3.2c1.8-1.1,3.9-2.2,6.3-3.2
		l6.2-2.7c1.3-0.7,2.3-1.4,3.1-2.1c0.8-0.7,1.4-1.4,1.8-2.1s0.6-1.4,0.7-2s0.1-1.4,0.1-2.4c0-2.4-1-4.4-3.1-6.1
		c-2.1-1.7-4.7-2.5-7.8-2.5c-3.4,0-6.1,1-8.2,3.1c-2.1,2-3.1,4.8-3.1,8.1h-22V73.3z M77.3,138.4c0-3.7,1.3-6.8,4-9.3
		s5.9-3.7,9.7-3.7c3.8,0,7,1.3,9.6,3.8s3.9,5.6,3.9,9.3c0,3.8-1.3,6.9-3.9,9.4s-5.8,3.8-9.6,3.8c-3.8,0-7-1.3-9.7-3.8
		C78.6,145.3,77.3,142.2,77.3,138.4z"/>
</g>
</svg>
